<mxfile host="65bd71144e">
    <diagram id="Z_tCMmGzvbtCBzGZlTtd" name="Page-1">
        <mxGraphModel dx="1152" dy="864" grid="1" gridSize="10" guides="1" tooltips="1" connect="1" arrows="1" fold="1" page="1" pageScale="1" pageWidth="850" pageHeight="1100" math="0" shadow="0">
            <root>
                <mxCell id="0"/>
                <mxCell id="1" parent="0"/>
                <mxCell id="2" value="" style="rounded=0;whiteSpace=wrap;html=1;fillColor=#1ba1e2;strokeColor=#006EAF;shadow=1;movable=1;resizable=1;rotatable=1;deletable=1;editable=1;connectable=1;fontColor=#ffffff;" vertex="1" parent="1">
                    <mxGeometry x="191" y="140" width="461" height="70" as="geometry"/>
                </mxCell>
                <mxCell id="3" value="" style="verticalLabelPosition=bottom;verticalAlign=top;html=1;shadow=0;dashed=0;strokeWidth=1;shape=mxgraph.android.phone2;strokeColor=#c0c0c0;" vertex="1" parent="1">
                    <mxGeometry x="170" y="20" width="500" height="1000" as="geometry"/>
                </mxCell>
                <mxCell id="4" value="" style="verticalLabelPosition=bottom;verticalAlign=top;html=1;shape=mxgraph.basic.patternFillRect;fillStyle=diagRev;step=5;fillStrokeWidth=0.2;fillStrokeColor=#dddddd;" vertex="1" parent="1">
                    <mxGeometry x="210" y="290" width="120" height="60" as="geometry"/>
                </mxCell>
                <mxCell id="5" value="" style="verticalLabelPosition=bottom;verticalAlign=top;html=1;shape=mxgraph.basic.patternFillRect;fillStyle=diagRev;step=5;fillStrokeWidth=0.2;fillStrokeColor=#dddddd;" vertex="1" parent="1">
                    <mxGeometry x="210" y="290" width="120" height="60" as="geometry"/>
                </mxCell>
                <mxCell id="6" value="" style="verticalLabelPosition=bottom;verticalAlign=top;html=1;shape=mxgraph.basic.patternFillRect;fillStyle=diag;step=5;fillStrokeWidth=0.2;fillStrokeColor=#dddddd;" vertex="1" parent="1">
                    <mxGeometry x="210" y="290" width="120" height="60" as="geometry"/>
                </mxCell>
                <mxCell id="7" value="" style="verticalLabelPosition=bottom;verticalAlign=top;html=1;shape=mxgraph.basic.rect;fillColor2=none;strokeWidth=1;size=20;indent=5;movable=1;resizable=1;rotatable=1;deletable=1;editable=1;connectable=1;strokeColor=#666666;fillColor=#f5f5f5;fontColor=#333333;" vertex="1" parent="1">
                    <mxGeometry x="190" y="210" width="462" height="720" as="geometry"/>
                </mxCell>
                <mxCell id="8" value="" style="strokeWidth=1;html=1;shadow=0;dashed=0;shape=mxgraph.android.statusBar;align=center;fillColor=#000000;strokeColor=#ffffff;fontColor=#ffffff;fontSize=10;sketch=0;fontFamily=Tahoma;movable=0;resizable=0;rotatable=0;deletable=0;editable=0;connectable=0;" vertex="1" parent="1">
                    <mxGeometry x="191" y="110" width="459" height="30" as="geometry"/>
                </mxCell>
                <mxCell id="9" value="&lt;font style=&quot;font-size: 19px; font-weight: normal;&quot;&gt;&lt;br&gt;&lt;/font&gt;" style="text;html=1;strokeColor=none;fillColor=none;align=center;verticalAlign=middle;whiteSpace=wrap;rounded=0;fontFamily=Tahoma;fontStyle=1;fontSize=26;" vertex="1" parent="1">
                    <mxGeometry x="455" y="670" width="150" height="50" as="geometry"/>
                </mxCell>
                <mxCell id="52" value="" style="shape=image;verticalLabelPosition=bottom;labelBackgroundColor=default;verticalAlign=top;aspect=fixed;imageAspect=0;image=data:image/png,iVBORw0KGgoAAAANSUhEUgAAAhIAAALGCAYAAAAQkniGAAAAAXNSR0IArs4c6QAAAARnQU1BAACxjwv8YQUAAAAJcEhZcwAAFiUAABYlAUlSJPAAAMoESURBVHhe7P35l2NV+feN+6fcz1r3L4qCA4iifEBBFEQQEG1tBBkEFUFmFCcUBZpBBgdAFGnG7q7u6q7uqkrNc6WmpJJKVaUqNddJ0jPN4HTfz3c96/qe906f5CS1k8pwkpyk3qz1Wk1l7zPkJDn7da597b0/dCjUI7XCwanusjLk80l7YFBb5gZ6vC/IeuP5ElvoVERHfy+zTZdr67qFmbkFR2gLufdzKYTe6VEZmZnUlhWLd3ZSe836zGPp6rsB3e+7VtC9H+JedJ9hraB7P26kpkSi3PQHxqUnMKotcwP9w8+J0XSRxBe7FDHvwzLTfI22rlvomxmT2fnFggmEZ2V0NiD9M+MK3b5rkZFwQL0/XVmxZLvGuIa6+oQQ4iQUCRvdAa8MTk5oy9zA4OATYjRfmhKJoYck1PodbV03YTWeOupVGLJRDpEAmdfVot+UDF19QghxCoqEjfbgoHj9k9oyNzDc/4gYrV9PikR04F4Jem7U1nUbW00YsjE5N1uWBj5bVALXXFefEEKcgiJho2WqT8Z8U9Ic6tWWV5uRvl9KtO1bKZHo+7FMdtymrUvcSblEAmRKhIWuLiGEOAVFIoMRf0DagoPasmoz1v2ARDuuT4lE9/fF13mnti5xJ5ZIlCNSkK0Lid0bhJByQpHIYHDSJ10Br7as2vi6fmLKwy0pkei83pSL+7V1iTuxGvdyiAS7Nwgh1YAikUFfYEyhK6s2kx0/kGjf7SmRaN8mo32/0NYl7sTewOvKSyVbVKJ9ekhbnxBCSoUikQGiEYhK6MqqTaDtRokO3JMUCcNzlXj7H9HWJe6jw2zM7Y27rk6pMCpBCKk0FIkMPMEBGfW586Ybat0usaGfpkSi+asyOLhDW5e4j0yRKFfugv0YdnR1CSGkVCgSGWDEBkZutE71acuryUzzNyTm/XVKJJoulv7hZ7V1ifuolEgw6ZIQUkkoEhowl0SHC0duhA9+TWJjj6ZEYv/50jvygrYucR+Z3Q7l7G6wH6cSxyOEbF0oEhoGJiekOzCiLasmkaZLJDbxVEok9p0r3WOvaOsS91FJkcgWldDVJYSQUqBIaOgxJaJ/0n2zLy42Xihx/x9TItHwcemceENbl7gPXeOuq+cETLokhFQKioSGjuCQDPv92rJqsrTvsxIP/DUlErs+LO2+Bm1d4j4qKRIA05JnHq/cxySEbD0oEhpap/pVwqWurJqsNnxS4qGdCZGItCiR8AQOausS92HNammnnAmQ2aISTLokhDgJRSILY76geKYGtGXVYn33GRKf2ZUQiblGJRLNwXZtXeI+Ki0SIPN4YLPuDUROACexIoTkA0UiC0N+n3QGhrVl1aA52KHEIR5uTIjE7C4lFrq6xJ3oRKLcOQvFJF3azxPdI4hsUCoIIdmgSGQB02T3Bka1ZdXAEziUEIlIc0IkQjtlteET2rrEndgbcotyiwQEQHfcXJEQXX0AqcD+KBWEEDsUiSx0u2yq7Hbf3oRILHYmRCLwV1ne9xltXeI+MiejsqOr7yS6qASkQFc313nasaRCtw9SHihxxK1QJLLQHhwUr989Q+U6Jt4Uo+GshEQA/59ksfECbV3iPqopEoUkXWarmwtKRfnJ/P7gmkMQrW4nXn9STSgSWWiZ6lMjN5pdMlU2Jp4y9n06KRKxiafVBFW6usR95BKJSoyi0B1X162SLaciXygV5UGXX5MJrn2mYOj2RYjTUCRyMOIPSJtLpsruHXlRTYmdFImxRyV88HJtXeI+cj3pWw2A1QjowPaZWE+imRRy/Mx6+TRY+WC9n2znQ/In3+6mbNi/W7m+I4QUC0UiB8iRQK6ErqzS9A8/J0bTRSmR8D6sFvHS1SXuI1tDXm0yoyFOiQSiHf0z4wr7/knhOPWZ2Cl3ki/ZWlAkcoBRGxi9oSurNFgu3Gi+LCUSQz9Ty4rr6hL3gadB3Q292mQ2KLo6m0FpKB+lRiN08HMiTkORyAHmkRhyycgNb/8jYrRelRSJ6MA9Emy7UVuXuA+IBMLLuht7NbGHufNptCgNlcXJaAT2xW4NUg4oEjnAzJajvqC2rNKM9P1Com3bUiLRd7tMdvxAW5e4F6uPGg0xGmWr/1p34y83mY1KpkhQGqqP/fMohczIEyFOQpHIQbMJRm60umDkxlj3/RLtvD4lEt23iK/rJ9q6pDappGDonkyt42e+TqqDU90a/ExJuaFIbILXP6lWA9WVVRJf151KHpIiYUrFWPcD2rqkvkADbzXyTgiGTiKI+yi1W4NdGaRSUCQ2YWByXHoCI9qySjLZcZvqzkiKRPs2Gen7pbYu2RrYBcOKYugaFAs2LLVDqdEIfNa6/RJSDj6Em481Jl1XYavTbUoEZEJXVkmQWIkES0skkHiJBExdXbK10T3JUiJqC91nmC/MhyCV5kP2LyCkgjebdNCtge4NXVklCbV+Rw35TIpE82UyOPiEti7ZuuieZCkRtUUp0QjmQ5BqkCYSFoxSpECipZoqO9SrLa8UM83XqEmokiLRdJGapEpXl2xdMp9kKRG1R7HRCGyn2x8h5eZDm02UwyhFj4z6AmooqK6sUmA6bEyLnRSJ/eerabN1dcnWJHP2TDYstUcp0Qh+3qRafCjfqXu3cpQCk1JhcipdWaXAAl1YqCspEvs+rRby0tUlW4/MBoiNSm1SapKlbp+ElBs1akP3hczFVotSYJrsak+VjSXD4/4/pkSi4Sy1tLiuLtl62MPhlIjaxf45FoNun4SUGyUS+UYlMtkq2cFdAa9awEtXVimW931G4oG/nhaJTjF2fVjafXu1dcnWwv4US4moXUqNRgDdfgkpN8l5JHRfys3YKlEJLCWOJcV1ZZViteETEg/tTIhEpFmJhCdwSFuXbC2sp1gO+6ttSo1GAN1+CSk3SZEodHXCrfTk0xxKjNxoqeJU2eu7z5D47K6ESMw1KpFoDnZo65KtgxVNpETUNk5EIwBH6JBqkBQJfAF1X8xsbLUvrNcfkPbgoLas3DQH25U4QCCUSMzsUmKRWY9sLazGhxJR+zgRjQAUCVINkiIB8o1KbMV+2MHJCekOeLVl5cYTOJgQiUhLQiRCO2W14ZPaumTrgN8hJaL2cSoaASgSpBqkiUS+SZdb8cvaGxit2siNdl9DQiRUoqVJ4K+ytO+z2rpka4DGh7MY1gfFJrvr6Df3pTsGIeUkTSQAhnbqvqAWWzEaATqCwzLs92vLyk3nxBtiNHw8JRL+P8pC44XaumRrwCfP+sGpbg1AkSDVYINIbGbHW/UG5pnqlzFfUFtWbjDxlLHv3KRIxCaeUhNU6eoSQmoHJ7s1AEWCVIMNIgF0X1Cw1ftjIRIQCl1ZOen1vqCmxE6KxNijEj74NW1dQkjt4GQ0AjBnhlQDrUjoki63apeGHXRtYDVQXVk56R9+Voymi1Mi4f21zDR/Q1uXEFIbOB2NABQJUg20IgEyv6DskzUb9Mlx6QmMasvKyeDgDrVseFIkhn4qodbt2rqEkNoB91UAAdgsPy0fKBKkGmQVCXtUgtGIBBj+OTA5oS0rJ97+R8TwXJUUiejAPRJou1FblxBS20AsMCIHYlGoXFAkSDXIKhL2pEtGIxJgQiqvf1JbVk5Ge38h0fZtKZHou10mO36grUsIqS8KiVrwoY9Ug6wiARCV4BczBabIxlTZzaFebXm5GOu+X6Kd16dEovsW8XX9RFuXFA/6rCnNxO3kEgver0k1yCkSiErwxprOiC+gFvHSlZWLQPstpjx8PyUSHdebcvGAti4pHisKZ4WU+d0ntQK+qxQJUi1yigTZCJYTx7LiurJyMd/0ZYmN7UiJRN8dMuX5rrYuKR7dHCrscya1gvX91ZURUk4oEgWCabIrPVV25MBFEvP9wSYSt0vQc4O2Like3XA8PuGRWgKRNN3rhJQTikSBIBqBqISurFzMNF8rscH7kyJhtFyhRnLo6pLioUiQWgdRCd3rhJQTikSBtAUHZNRX2XB3qHWbxIZ/nhKJQ1+RwcGntHVJ8ehEgl0bpNbgNNmk0lAkCgQjNjByAyM4dOXlYLb5aomN/CYlEk1flD7v89q6pDQoEqTWYRSNVBqKRBFgLomOCo7cCB+8XGJjj6VEYv/npXfkRW1dUhoUCVLrQCT4vSWVhCJRBJjdsjswoi0rB1jpMzbxdEok9n1arQiqq0tKI1MkGCYmtYY1KzGHL5NKQZEogh5TIrDuhq6sHCw0Xihx/x9TItHwcemceENbl5QGRYLUOpZIcAQHqRQUiSLACqBYCVRXVg6W9p0n8cBLKZHY9RFp9zVo65LSQFiYIkFqGfs6Sfz+kkpAkSgCz1S/SrjUlZWD1YazJR76R0IkIq2mSHxYPJNN2rqkNDJFguFhUmvYRQLo6hDiJBSJIhnzBZVQ6MqcZm33xyQ+82ZCJOYPKJFoCXi0dUlpUCRIPWBfg4OJl6TcUCSKBF0bnYFhbZmTNE+hK+PDEp9tSIjE7B7196FQ94a6pHQyn+YoEqRWsX+X+T0m5YQiUSSYJrs3MKotc5LWQEtCJOabEiIx/Yas7jlLW5eUDkWC1BP2heh05YQ4AUWiSLrVVNkT2jIn8fj3J0RiwZMQialXZKXhHG1dUjrsXyb1hiUTTLwk5YIiUSTtwUHx+svf99jh2y3G7jMSEgECL8pS4+e0dUnpUCRIPYLIGr/PpFxQJIoEU2Rj5EZzmafK7hx/XYyGTyRFIuZ/Xhb2f1Fbl5RO5lLiujqE1CKQCUYlSDmgSJTAiD8gbWWeKrt77G9iNJ6bEomJp2S+6SvauqR07CLBNQtIvcGcH1IOKBIlgOXEkSuhK3OKPu9fxNh/fkokxh6V8KErtHVJ6VAkCCGkMCgSJdAbGFOjN3RlTtE//KwYTRelRML7sMw0X6utS0qHIkEIIYVBkSgBzCMxNOnTljnF4OAOMZovTYnE0EMSat2urUtKhyJBCCGFQZEoAc/UgIz6yjtyY7j/ETFar0yKRHTgPgm23aitS0qn43R2O0WCEELygyJRAs2hXjVyo7WMIzfGeh4Uo+3alEj03SlTnuu1dUnp2EWCUwsTQsjmUCRKxOufVKuB6sqcYKblWokNPpAUidjo72Wu6XJtXVI6FAlCCCkMikSJDEyOS3dgRFvmBNPN10rULhIjv5Hwwa9p6xJnoEgQQkj+UCRKBBIBmdCVOcF4930S7bguKRLR7ltlsuM2bV3iDJZIcPIeQgjZHIpEiaBbA90bujInQI5Epkj4Ou/Q1iXOQJEghJD8oUiUCBIt1VTZoV5tealQJCoPRYIQQvKHIuEAGAKKoaC6slKhSFQeDPuESHA6YUII2RyKhANgUipMTqUrKxWKROWhSBBCSP5QJBwA02RjumxdWalQJCoPRYIQQvKHIuEAWLgLC3jpykqFIlF5RsIBigQhhOQJRcIBsJQ4lhTXlZUKRaLyWCKhKyOEEJIORcIBmkOJkRstZZgqmyJReSgShBCSPxQJh/D6A9IeHNSWlQJFovJQJAghJH8oEg4xODmhciV0ZaVAkag8WEqcK38SQkh+UCQcojcwqkZv6MpKgSJReSgShBCSPxQJh8A8EsN+v7asFCgSlYciQeoRfK85EomUA4qEQ3im+mXMF9SWlQJFovJQJEg9gaXxrbwfTvtOygFF4jT4seGHFgjPqh9dMfaOkRsQCl1ZsQTab0kXid4fSKj129q6xBnwXeAS4qTWsQuEBSMSpBxQJE4DcbD/4OzkKxfo2sBqoLqyYpltvkpi3l8lRSI2tkPmmi7V1iXOQJEgtU6mQFhQJEg5oEicJpdI6NDJRf/kuPQERjfsuxSmW74p0f67UyLRd6dMt27T1iXOQJEgtcpm9zGKBCkHFInTFCoSOnxT0zIRCG0auSgE1bVhyoMlEobnWvH2/VpblzgH+5JJLYF7jrVGTC502xJSKhSJ0zghEqHZeZmYDKW9hsgFsOSiUMEIea6T2OCDKZFovlyGBh/T1iXOQZEgtQDuK9m6MXTo9kFIqVAkTuOESEyHF1TC5cycvtyiELmYaf6GxLy/TonEwYulf/hZbV3iHBQJ4mZ0iZSbwZFIpFxQJE5T6I8yG+P+kIRmI9qyXFhygfOwy8XcwcslNvZYSiT2f156R17ccP7EWQqNHBFSKYq9V2WKhP1+Y3+dkEKhSJzGKZHwBaYlOD2nLSsU/NCXm74sMd8zKZHYe7Z0je3UvgdCSP1SatTULhKIaNjLKBWkFCgSp3FKJCanZhW6smJYa/wfiQdeTInE7jOkw7db+x4IIdWjXI2wE92uwD4SKdf9jlJBCoUicRqnRALRCF9gRltWDOsNZ0s89GpCJCKtYuz6sHgmm7TvgRBSHazGHo0wyCf/aTOwj3xGYuSLPe8n3/1SKkg+UCRO45RIID8CeRK6smIwdp0h8dldCZEI71Mi0Rzs0L4HQkj1QKOr+w1nyoVuWzvFJFLmgyUSmd0a+YL3kHmuhACKxGmcMn+M2MDIDYzg0JUXQng2pMQhPt+UEInpN2Rt98e0508IqS6FdEFYT/qZclEOgbCwjlOsSABGJogOisRpnAwhYi4JzCmhKyuEcGgsIRKL7QmRCP5NVvaeoz1/Qkj10f2O3YIlAaXc6zLfLyGAInEaJ0XCH5yRQKj0kRtzwV4xGs5KSASY/JMsNp6vPX9CSPUpZ0ShVEoVCWyX+X4JARSJ0zgpEoFQ2JSJ0vc3728RY9+5SZGITTwlkaZLtOdfDnDjsYMw7GbgRroZVp9xLnTXA+Bz6p8Z154vIdUGvwHd99YN4PxK6dagSJBsUCRO46RITM3Mq/kkdGWFsOB9QYwDF6ZEwvcHWWz8H+35lwPdOVULCgSpFXTfXzeAc6NIkHJAkTiNkyJhTZWtKyuEpe4HJdp1Y1Ik4lOvyPK+z2jP32lKueE4CQWC1BqIuum+y9XEkoBS7nNcEZdkgyJxGidFAkAkQrOljdxYHNghRvOlqYjE2A5Z2P9F7fk7TbVFAjctCgSpRdANqPtOO4Ul14WCcyvlPsf1Z0g2KBKn0f1wSgFdG+ji0JXlS2TklXSRGPqZhFq3a8/faarV10uBIPVAOaMSxUYGSn04gCDp9ksIReI0uh9OKWCabCRd6srypZoiUenwLAWC1BPlFHGrm6JQSj0nigTJBkXiNLofTilg+GepU2UveF/MEImHZK7pMu35O43TXT3ZgEDwBkXqEd333QmKFYlSf9O6fRICKBKn0f1wSgETUmFiKl1Zvqhky87vJUUiHnxZlvadpz1/pym3SFAgSL1TrqhesSKh21e+FHtMsjWgSJxG9+MpBWuqbPyrK8+Hpd6HxfBckxIJ//Oy2HiB9vydRnc+TkCBIFuFcnZv6I6Xi1LzIygSJBcUCZNyjVDA4l1YxEtXlg+6HInp5mu178FJynE9ik0QI6SWyTW5WinojpWLUqMj/P2SXFAkTMolEsiRwLLiurJ80InETI2JBG9AZCtTrqiE7li5KLWrkr9jkouqiQQaK1iyW9D9eEolEJpVozd0Zfmg79oo/8yWTtz8OAKDkAS630ep6I6TDSceDDiHBMlFVUVC94WtJ4LTpU2VvWFmy9A/ZHnvudrr6SSliBUFgpB0yvGgUkiekRP3WuY1kVxQJMoI8iOQJ6Ery4fFvt9ItO1bKZGYflPWG87R1q02FAhC9JSje6OQht2JEVgUCZILikSZwcgNrL2hK9uMxcGnxGi+PCUSsw2yvufj2rrVADcoCgQhm6P7/ZRCpUVCt19CLCgSZQZzSRQ7VfbC8F/Ski3j801i7D5DW7eSUCAIKQynuzfyzVlw4j6L37tu34RYUCTKjD9Y/FTZmaM24gseMXZ9WMKz5UkO3QxkblMgCCkcRBB0v6liyVcknOhWoUiQzaBIlBlIBGRCV7YZG0TCxNhzpswF+7T1ywUFgpDSgUzgtwQwv0Qpc0zkKxJOdGvU69BPtEG610nhUCTKDLo1ip0qWysSjefJvO+Atr7TUCAIKQ+4/yFaYOU64F8L/OZALunIVyTs2xRLvYoEIy3OQZEoM0i0RMKlrmwztCJx6CsSGX1VW98pKBCElB/r92aJgl0scpFPHeDUPbYe55BAzgpFwjkoEhWg2KmytSLhuVYWBp/V1i8VCES+NylCSGnofoPAEgsrQqHbNh+cSvCst3uClTdCkXAOikQFwKRUmJxKV5aLyNjbYuw/P00kYuNPqpEbi/2PabcpBgoEIZUn3/yFYsXCifwIUE/3Bnu7Q5FwDopEBcA02ZguW1e2GasHvpS+lDgIvChG42fUzJe6bfIFP6RCb06EEGcoNmIAqcC2uX67Tt5fdfuvRXBN7HJVr7kf1YAiUQGwcBcW8NKV5cPq/osTa27MN6dkYuYtMQ5eIsvtt2m3KRbr6ce6WQGEAi2smxflg5DScKrrwS4W1r6dur/W01N7ZoSGIuEcFIkKgPyIYkduWCy33WqKw5eUQCRlYv6QKRhXy2rzNyU87dNuVwkoH4QUDn4but9TqeB3mNloFku9iIRO2uoxibRaUCQqwMxcYqps/Ksrzxd0ZRiN56qujaRMmKDrY/XAJRLxvijzvkYJTw3K7Fxxs2lWCsoH2eqUSyScpB6e2rNdZ4qEc1AkKgQiEqHZ0hv3xf7H1eyWsfEn0mWi707BuhxG4+fE2P0RVWdt3+dk9dDXZbntFlnqeUgWBp+RyNgbMhdol/CMX7t/NwPpYDiS1Au1cA+s9cY21zXmQ4pzUCQqBHIkAqE5bVmhRLwvJWRi+BdpMpHGbIPEA3+V2NgOiQ0+KNHuW9XQUaPpYjEaPqW2X2/4hIpkrHiul8j4Lu2x3EY99dkSovuOu4laFgm0Mbm6eCgSzkGRqBAYtYHRG7qyYohM7DFF4GwVidCKxGYgcTP0msR8zynRgFjM+5u1x3ITFAlST+i+426ilhvbzfJEKBLOQZGoEJgqG/NJ6MqKZS7QqSIKRuvXJdpzm8SGfiqx8R0SD74s8fBevUBkIdp/t6wevFx7HDfBrg1ST2zW2FWbWm1sdcmVmei2I8VBkaggEIliVwLNRnh2WuU+LHX/TOVCrB68Utb2naciDJi4ytj/eTFavibRzutNWbhLYiO/kZj/eYlPv54+nNTEaLmy5Lkpyg1FgtQT+TR41UR3zm4n3yRW3bakOCgSFQTDQDF6w4mky00Jz0l4akCN4sBojsW+R2Sp805ZafmOmuRqfc/HlWxEB+5OycT0G2Ls+WjZ1/IoBYoEqSfcLBK12I2Yb7vCLlJnoUhUGCRcYgRHqUNBnWDef0jJRNz/p6RMIGKxtvezEp5259A0igSpJ9w8BLTWGlu0Kfl2FVEknIUiUQX8wVmFrqzSLA7sEOPA/0g80pqUiWjnDbLsuUlbv9pQJEg94eb7YK391vKVCMD7iLNQJKoAohGISjg1HLRUVjzfk2iXbT2P+Wa1WNjC4FPa+tWENwBSb+i+526gloZ+FtpFxPuIs1AkqgTyJBL5EoUvL+404dCorO89V2IjjyRlAhNerTV+QVu/mnA2OlJv6L7nbqBWRmwU0z3E+4izUCSqCEZw+AKlrcHhFJHRf4ix52MSn92dlAnMkhkZ3amtXy14AyD1RiEh+UpSCyJRbDvC+4izUCSqDGa8dHKiqlJQXRz9qVEc0cH7ZKX1u9q61YI3AFJvuHXkhttFAm1IsRLGyaichSJRZabDCzLuD6mlxnXllQTrcBiNn02KBCa1wqiOuUC3tn41oEiQesOtIqE7VzdRSiSHIuEsFAkXgFkvE/kSC9rySrJ64GKJjT2Wikp0fFeWun+qrVsNKBKk3nDjEFC3D48sVb4oEs5CkXAJWIvD6Sm0i0ENB229MhWVmPyzWtPDLcuSUyRIvUGRKAwnrpduv6R4KBIuIjGFdnXzJcIzk4lJqqZeScqEcegSWRj+k7Z+paFIkHrDjfdCtw6PdOpa6fZNioci4SKsKbTR1aErrxRLHXeqZcctkYh5f63W8NDVrTQMSZJ6RPddryZuFHa0GU6McHF7t00tQpFwGUi6RPIlkjB15ZVg3ndQjD1nSjzSkpCJBY8YDR83X9+vrV9JKBKkHtF916uJG39nTkgEoEg4D0XChWA4KIaF6soqxeqhqyXm/WUyKhHt+YEsd9yurVtJKBKkHnGqkXQKN/7OcE6BMCMSboQi4VISU2g7u+R4ISx4XxCj6eKkSMRDO1XuRHh6Qlu/UlAkSD3itiGgunN0C6UKBafHdh6KhEup6JLjWcC02XH/H5MyYXiulsX+R7V1KwVFgtQjbhu5oTtHt1GsfFEknIci4WIQkajmkuNLPT+XaMf2pEjExnfI2v4vautWCooEqUfcJBK1FPovJjrBkV/OQ5FwOf7gTNWWHJ8L9iWGgs7uSUUlGs+TyNhr2vqVgCJB6hE33Q9rMYegEKGgSDgPRcLlIBpRzSm0N6y/MXBvVdff0H2XCKkHdN/3alDLof98ZIIPI85DkagBUlNoV37J8Q3rb8w2VHX9Dd13iZB6QPd9rwa1/sS+WXSCIuE8FIkaIbHkeHWm0E6sv/F4KirRcZ0sdf9MW7fc6L5LhNQDbhkCWi+hfwiD7v1RJJyHIlFDVGvJ8ezrb1Q+QqL7LhFSD7hpCGi9NLa66ISuHikNikQNgdkuqzGFtnb9jYNYf+PP2vrlRPddIqQecNtcEvU0TNI+KkZXTkqDIlFjBKfnqzKF9sb1N34lq4e+rq1bTnTfJULqATeuAoqned251hpWe8NZLcsDRaIGqcYU2hvW34hg/Y2zzNcPaOuXA94EiBuBADjRFeBGkQCQCTd2dRSSy0GRKC8UiRolseR4ZafQXm3OWH+j+zZZ6n5AW7cc8CZA3IiVJIkGF90TxTa6br8nukkmrGtViEygPu8h5YEiUaNUYwrthcGnJdq+LSUSfbebInGftm454E2AuBHdd7XYp3jdvtyEW0Z0WPIG8r3OqMvpscsDRaKGwSRVlZxCe7HvEYl23mCLSNwsS72/0tYtBxQJ4jY2u48VKhS6fbiNaudNZF7zfM8HdSkS5YEiUeNg+uxKTaG91P2QRHtuS4lEx3ZZ7H9cW7ccUCSI28g3ryFfoXDbyI1sFBtxcQJ7NMIiH0FAvXqZI8NtUCRqHEQjEkuOl38K7aXOuyTa/5OkSBiea2Rh6Hlt3XJAkSBuQ9eo5WKzBrhWRAJUQyZytRubSQI+K4pEeaBI1AHIk6jEFNrL7bdJbPDBlEg0Xy4R78vauuWAIkHcRqEiYYFGWDfaw60jN3JRycZ5M9HKJTb4rKoVRal3KBJ1QmIK7ZC2zCmwWFfM+3BKJJouUmtx6OqWA4rE1gMNq1ufIp26h9mf7GtRJEClcg82EzdcS912gCJRPigSdUS5p9Bebb5GYmOPpURi/+dl3teorVsOmCi1dbAaVDff/J2+h1lRCl1ZLVDuro58r3e2+0QpQ3NJbigSdQRmu0wsOV6eIaGrTZdKzPdMSiT2ni1zk23auuWAIlHfoBG1h67d/gRZS/kMlaKcMrFZNMKOLoqFzyvzNeIMFIk6I7XkuPNTaK81XijxwAspkdj9UQlPDWjrlgOKRP2RKQ923P70WEjDttVw+rMrpr3I3AdFonxQJOqQQAhTaDu/5Pj63k9LPPSPhEhgiuxdH5bw9IS2bjmod5Gwwtq6snoCv/3NnuZrIQStO2+SwsnfazHSlnl8jtgoHxSJOiUxhbazT0zG7o9JfObthEjMNSZEIly5p7J6FYnMhrUWGtFiyBV9sFML75/3r/zIlfyYL6Vca7s81Ovvyg1QJOoUawptp5YchzCopcTn9idEwhQKdG3o6paLehQJXXJdPT055SsPFv0z49r9uA3d50b0lJo3UWoXknVsikT5oEjUMZhC26klx8PTvoRILHgSIjH1iqw3fFpbt1zUUwObGYWop/dZqDxYlCoRLVN90hYclM7AsHQHRky85v97pSM4ZDKoyjxTA9Jq1kPd5lCvdj/5wPyIwimmIXeinXAiKkJyQ5Goc5xachxJlYhAKIkAgRdU8qWubjnBTcEOGiwLNGAWuGnZ0X0Hq8VmT7O1GnnZ7H3lIp/33Gw2/hABiAFEoS8wJoOTPvH6J2XMF1QRuBF/QIbM1/onx82yCVU+7PerOigb9QVUPTt4DWWog7rYBttiHzhGr0nPaTHpUnIyLL7pGTURHCJ/EHVQqTVvaplCJdkpYavXblG3QJHYAiSm0C5tyXEM88RwT0skMAwUw0F1dd1OpoxUSkhyRSHs4Oap296N4Brl855yYd3kESHwTPWr6AEabTTiA2aDjsbdEgDV6E8G1Poyvqlp8YWmZXTaFISZoIpo5Ps54ViISiA6ATlBtKLdBJKSiGh4laz0BkbVefQHxtW5QDK8k341+Rt+V4j4ZYoJwOsoRz3kK0Hmcc4Qe4DfI0DUEMO10QVpiYklJ06JiRXpsX+P8RrAtQf234JuH06CY2R+HjqcbiPqKaLpNigSWwArX6KUJccx8RQmoEqKxNhjstp8tbbuVsF+8wV2GQF2IQG6fWRD95txC6XIAxpIfA/RgKIhnQhOy5DfpyICiUY4qCIDaLDRgKNBR+OOxr451Jc8B92+dWR+Njj3fGUjG9nuXWj4rehEQggSggAS7zfxnpEEDZlQMmQKRkI0ppNiopMTS0wScmKJSUpOsM/EviEmcwkxMRkJBdW1g6AV2p1TTunAtpt9BsV+x3JRyudOskOR2CLgBoObULFPOZgK22i6OCUS3l/LSut12rqkdHS/mWqSrzykRGFeNWyJxnI6rXFMNIaJWVgRVUAEABEBNHS6Y+twspGxGsV8ZaMcDZwO/FYtObEiFZacJK7vRjGBXFhyMjE5ZUqZ1Z2T6PpJEUzrzkF3EORt4HR3DugJjKqojNWdA6FD1CaRa9KvojnoboKcWNcL5CsdeC3bNQblyEPBMXXHIvmj+8woElsI6wlGV7YZWJwLi3QlRWLwQVluu1Vbl5ROrhtsJckUCDRsaNDQmKERUzJgNlyQg3RRmD79pBxOPB2b26BBtL9Hi2JCzpVqzC2sxhDHrYVES133GBp8NPyJ7px+UwgG0rpzIAwQBwiEJRMQCwgGRCM912SjmEBYIC6ogyhTQkzsuSajKtekL2j+bdI7NSpDoQnpmRpRUZPWjKiJTj6cAIKTeW1IbtBeW785nYxRJLYQaATwZIjQp648F1gu3PB8IykS0b6fqGXFdXVLJRxZkvnFFVlcWZM1Iy5LK+sSMf/G67r69cjwnF+6573iXZ6U/oVx6QgPSct0/k/sxYLug4HpCRUSxxOvThTwHYIoQEohCvg+4Uk5myjkg+5ccgHB0e2HJKiUiKZyTfqVDCBagRyXjqAlJl4lD8lcE1sS7NBpMckWNYGsjPqD5vdtSn3fEuTuzklIa0pcgRWFRQMIiUDExC2i7nayRSIz5b9qIlELVl+P4IeGHyl+aLrybCz2Py7Rju0pkei5TZa6H9LW1QEJWFhalZW1qETjRxJysJSQA1W2vCqr6zGJHzkm69G4GLHDEjt8VE69+56qv7xqyNzCsnbftQDOHWKE9/TOqffk/Q/+KR/8818bePe99+X4yXdkOb4ugWhYVk5GZSo2JwOLE9I2O6D9LRUCbvz2hEaMSMBTIxIYx8ybdroozKibtSUKmHbduik7TTFPibr9kNrOA9gYNUkkwSJ60RscU8m1CXlIRMNAovssPddkzJQPXXdOKmriT4+aBFJRk3IPHa4F8unKtH/PqiISjEZUF/wI8YPTlWVjqfdXEu2+JSUSnTfIYt8j2ro65heXZWU9KkeOHZf33v8gKQfztgb21Lvvq7Kjx07IyXfelQnfpHz/1h9K/8CQHD563BSPVe2+awG8T7zfo8dPagXCDiTj+LvvSCAyLbf/5Cfy1r49MhNfkJ7IiPb3lAludrj54okQYWo8BSI0rUtoHA0mIg9W90O5RCEfdO8lF7p9bHXwtK27VvUEGjCr28MeZcj23q2oCcQEMrCxO8eKmiS6c5wcOoxjQIx05+VGIBD5PuTbuziqIhKMRlQfGDxsXlemY6n7Pon23Z4SibZtsjD4lLauDjSieNp+e9ce+fJXLpPQ9IyceOeUkguIAxrPXbsb5JOf+rT6F3+PjI7LhV+4WLq6e80G+ISKaOj2XQvg/UOOnnzqD/K//p//nRNcn+C0+eQ1F5KrvnGt/P2NnTJ3ZFl6I6Pq94ObIp6QcJNSfc7mDQs3MDxpWTc4/D9eQxnqoC62wbZu/R0WGpWodJ5ELtC42Ru4asC+/8qQ6s7ZfOgw5AK/R/wW8Tq20e2z2hTbVWh95youEm768W9l0HeIvkc8ierKM1nuuF2iA/clRcJovVIWvH/R1tUBYcDTtl0k8PfxE+8oadh/oEkuuPCL8tJf/6aE451T78pJE9Q5aQoHujoQkUAXCLo+jplP9ig/duKkKltYXlPdB1Z+BbpQEMXAthAWdJmoCIhZhnwLREEQFYkfOarKjpgyg/0ura4rsE/sWx3DPBbKIDKIrKguGvP9YDvD3AdECN0RAJEVdNtkdsPg3LGPycCU9PT0Jbn3vgfka1dcJYeaW5Kv9fcPymFzP/FTx+TEe6fk8MnjsrC+JjORBVk03yf2v7JuiHHksBhHj8hibE0Cy2EZW5ySwHpY5o+a7+/4mkzHIzK05JPOOfPmNj+iukeC0UQ3SdecV6Yic2ndTbg++H9L7nBt8C+iSHgNdcudp1JIWN4teRKZiY14D7jBVlIqMs+BuAfkj0AiIBOQCsgF5B4SoqtfSZz4DSFfoqIiwS4NdwGJQH94PklyK54bJTb885RIHPqKREZf1dbVsWbEtCIBenr75bzPnS/PPvdHJRHIi0CjjK4OlL9j/o1Ge/V0421tZwcigEYQjeG6KQHWtnZOnDwlq+Z5YD9oODPLkbuA/Z8wj51ZBiAJaFCRAIrz09UBiJ7gPOwykdm18f4HiS6MJ558Wr6z/buyZu73vfc+UO8fkQu8n6MnTsjJ90yROXVSlg+bchJblmPvn5SjCrM8D1ZORGVsdUp869MyFZtXryHnYnjZnxQiq7spbr6/I6Z8Qe4y3xOuCwSr3CJRyFO1k/eTUhr9XPJTiSgFJaJ2QCQDUQvkZVhdjOhSQURDV78S4Dtaivxim4qKBLs03IeVla8rs7PavE1io4+kROLAhRIZ362tqyObSASnptUT+YM//bn55H9CNaSIBqBsYHBIhfrxL/6GCCDCsHtPg9oGZfj373//h2r8EXlAo4gG2ueblLvuvlfO+vinFHjyX1hcUg2mytGIxWX7ddfLo4/tkL+/8qoSGXQ74Dg4j7/9/ZW0Y+xp2JuMlNjfx8DgsPz+0cfV9jgO/h/7xpM8oh9IVEwkhiWSw6x8hPjhY2p/lkisG1F13og2LJtCBKnxh4LypS9fKjvffkMJQMRYkm3br5PfPPp7eX3P2/LVK65U53fttm3SMdAja8ei8vwLf5YLvvBF+chHz5Sbb71VBsa9Sano6O9W9fFv7N2j6jrjHDI/E+u67z9wUF23Mz56lnoNEoQEWd3n6yS5GuZMdNsXAu5JVt+6rnwz8m3ErZu101KB4xdyvYh7QBcJukP6TZEYOZ1rga5IvKarXyms72ohYlExkWA0wr0g8RKNna7MYvXgFRIbfzIlEo2fkXn/IW1dHTqRWF1blxtvukWB/0c5npCX14y0Bs0SCTS0L7z4kmq00fijG8CSgF8//FslGaiHCAe6SR7+zSPS2dUtBw81q8b65ltuVQ026lgigZyMb1z7LSURzS0eJRGQmsu/dqU0NOxTx3j6D8+qepAJbAvwPs759GeUZPzhmeekq7tH/vTnF+Sz552v6iOqsLSyZhuqZp9PYVFFN7AfHBfngfOBPCCKgcb6lNnAZxOJT3zqHJWEebC9RSViXn3tN+XCiy6Wa775LbnnwQfSXv/ujTfK3OrCBpHA39Y5ZBMJXNcf/ugOFSmamQ2b4nFEyZHu83WSQqISpXSVZibnFbOvYhrxQm/SuaBE1A+ISkAkEKVAtAJRCzcka1pige9rtu9sxUSC0Qj3gsYNfXcY4qcrB6sHLpa4/48pkWj4uMwFurV1dWSKxOjYuGqw0YgiUoAyhM/RUCGEbm/QLJGIxQ/L9TfcKDueeEpJBV7Dv4geXPbVK2Q2PKdkAuWIDNi7KLwjo6rhb+/oUn9bImGXGDA+4TNfv0GGvSNq3wD7eejnv5Qf3/ETiR8+op7i33xrl/mkfqa89fZu9fd77/9Tdck88rtH1TniXJFbMbeg7wrIJRLockBZIDSlFYmf3HuvrB6NqtfAwNiwnH/BFza8DqFAZKJrqE/9nSkSiN7gONlEwupqwmuV6tqwyHeSqmIa/2yiUmh/cb7RiFxYN2jd/jeDElG/IH8CeRRuTNbUiUVFRILRCPeDEDzGX2cb/re27zyJB18+LRIdaknxcMirravDLhKIFtzy/dvkiiuvVv/fdLBZlaFhw9N4NpFAtOAnd92jsCILdpAYaUUlMkEjicYSx8fflkigIYcsoLsDjTvyA9B4WiBvAWWJLojrxYhmz/UAb771dlIMcC6ZSZcW+YgERm7oROLRJ59IygIYm/Kreq+8+VpCEN4/nva6JQ6FikTyup84mUwgrZRI5BuVKKTxxz43a3wLERMnG3L7zVl3rEy2wjBPksDNyZoA39uKiASjEbUBwvBAV7be8AmJh15PiMT8oYRIzAa1dXXYRQKNFPreIQPP//HPqnsAuRIoRz10b+gaNDA2PiFXXf0N1W9/083fl52vvS5r64muECuC8P4HH0h3T6/cetsPVd4C9mFhiQSEAN0dEAQIA5IvkayJ7bG/Z559Xr5y6eVp21oNPrbPbHwxQsR6PSUG75YkEth3LpGYP7qcJgxWvdDppMpcInH8g3fyFgkkiereQ7nJNyqh29YO7j/5Nrz5iokT0YhsWEKRTSrKeWzibtyYrAnKLhKMRtQOiEYgKoGEwLSyuYgSh/hsQ0IkzH/xN15Pq5cDu0h86ZJLZSqUEIcjR4/JnXferRp9dAegUbca2cwGLTmKw2yg0VWBRhgSAllArgQiBxAByAUiHf949TVZXFpWjfTIyJg6rtUVsbpmKJHAPrBPjLRQM0qurKrXkRuAY2BbgK6SXCJhnXO6SCTEQHc9nBCJ8JGlNGGw6mFGTPvr2UQCCaG695J53REh0r2HcoOGVHdPySTXg0oxT+66/djB8ZyMRuQiM0pBiSgcqw3CdYQoVuqzKzduStYsu0jk+pET94E8iUS+REoSwrOBhEjMH0qIROh1FaGwb7cZdpGwN1oA0Qi8ZvXJQwh0DRpyFRINbmLkBED3ARpjK0fCyqN46ulnkhEK7C8YDMklX75MiQRew37QgFsigREf+BcJlpnnB+wNPv6uB5HAMaxzdqNIgHyiErruiHy6MbKxWfdGNRoiHBNSVC+NYCXRPcxaER9cz3q5ptVM1iyrSDAaUZtghAFkAmstIHdidsqbEInFzoRIBF9WORO6bbORTSSQkIiG3ZrV0sqX0DVoSNBEwiQmr7LqACRQWvtEg4xchsd3PKkiGJaYdHb1qG1xfGyTTSRQbo+YAORmoCum1kVibMonF13yZVXPEglce4w2catI5BOVsHdH4MGl1PyBXN0bjAjUHvm0Q/ieQSDrRSoqnaxZNpGgRNQ2iEhYa3L4vS1iNJyVkAiVI9Eqq/sv0m6XDSvvwd4Aqy4G83XMD4Fow88e+kVavkRmg2bVwbTZ1vBPRBAwVBMJmOgmQbTi94/uUN0dyH/wtLWrbgkrVyKbSCBfABNfBYJT8sWLvqTK9jUekLfe3qX+H9taDX7m+8BQTczJgEbZLhJI3MwmEtZcGXaRsOoj4RSTUE2EJnOKBCaYWn8nvkEkJtam0163RAIjOjBsFK+9sWeXEjBcTwzzzCUSmAVU9x4qxWZRCete42QCIhqWzPMAjAjUHsW0RfUkFpVI1iybSLBLo34IB7rTRWJlVKLT+3MOF80ECXsQB3sDDDHAlNeWZMxHFlQi5fdv/aFqWDMbNDTY2AYTUEE4UAapwDwOmBkSczdgCCbqWPNNQCAQTUA0Y9u3tyeHjtpFAhELNOxr0YQkTPj8as4J7B/HwfwRyLuwRyoy3we2RUTBEgkkc2KWyGzDPxGhwXHtImHV985NysKx1Q2CYBcJTCjlX5/ZUM84dVhGVoJpr1sicQTysTArP77rLjUsFNcHkoV5NrKJBM4Rn5HuPVQS3T2mnOiiEoxG1Cb5JtDmAmJRD/kV5UrWLItIMBpRX8wFe9JFItImh82nf0y4hCm2MdIDky3lWjky2+qfybUxzDJ0c6AhgxBgyCHA34ePHFPTXiN6gdER2B5SYnVbQAywLRpngMRJbKcDUQecO7oWIB04BvaL7gSA9TCwX922AOePORWQqGh/H1hLY2XNUOcKocB54Ek+23BJRB1wXBwf54HjBhfD0jzdKy3TfdK/MK6mtYYwzBw2b2TRsEwas7L2TlyN1hha8qv1Muz1puML6vWO8JB6fXwtZIrFEfEbMzJqysXISkAJBqTi5AepPBMLXFvIDMDfeJ84x2xRlUqS7wgOJ8k8B0YjahMnRMIOpALg+1DL3wknkzU/1DkzJE4TMM09bD5dkvpgfiojIuH/k8TCrapBxuiHYAjTbIdO51VMm1IRNqUikraPuYVFWVxG42mYje9hs/FdM590l9XrKI8sLcvy2rrZwB9RrMdiZuMaM4+BRbDMBnluQc0QOTU9Z267bjbkx80G+F0VDUD9JXN/84uQkiWz/qo6xvGTJ+XEO++YjTVmcTxsNoxH1T5XzOMAIxY3G/yoOi9sh3PBeeAcIQxI5MQ+EuKB7Y+YwmMoVo3094HtF8z9WPtdNM8B+7JfAzuoj+Pi+MuxdZlaCkvf3Kj6/XTNDkv//Jh4FydlypiT8eUpGV0yf+jm31iUa2IlJIORCek169vrjZn18HpPeES9Przgl6BZH9sNRsbVa9hPOL4o8RNHzfdnXhtTuqKnrw2uP947wHXHe8E5Wp9Rtcm8z5Qb+30sMD+jrUPcz1h4Mu175DT4nuAYumPXEr2hERkMTsjoJFYRDspQwC/9wVHpmh7W1rdTFpEo9wdHKssGkZh6RdYbzpZ186kbjWxiZcyEFASnw+IPzCipQH4F/saQUqw0iuRNtc/5BBg+CuGYDs/bmJPQ7FxiP2Z9RDwS+wqZIjGjpCWAKadNjK4uOfzQ3XL4jlsk+uwTyeMdX0MkIP09uJWxcED7Gyo3A7Nj2vNxM5VuzO3XCP+vq0PcTzHfdchBQhDMRtUG9mWhO1a90GNKxUBw3JQKjACZkmElFWNZpaIsXRtOh5JIdVkcfFqMxvNSIjHfJOu7P6bK8PQNmcgET7ixOBaGiqvwOGZGxPLdyKsIzcyr0SBI5gycFgNEGwDkAdIAgQAq2dN8zVqzIrFuBcC2YfMp2pSZF56Xw397UaLm8SKLqxL/xX1y5OGfydGI/v24AfS3VzMsWqu/Ud17KSc4JnMjahtrOC8+RwwLBkjMtaj1Lopy41HJmiMydDpZE//ib7xu1aFIkE1Z6rxbop3fS4nEXKMYp0UCGNG4GPHDpjgcUQKBvnWdXBSD2t/hhJQgHwHHQWIkjolIyAf/+rf897//R/7zn/8j//7Pf+Vf//6PvBcMyIl7fyTH775N8lkivdI4ObqgWGr1N5rv1NlOUU9DArcqlkhUI8+m3kCyZpcaAYJkzanTyZqj5Ru1kXkDILXL6qGr05YQj008JasHvqStayccWVZRCLU09qohq2uJyIQFXgNIUkTUYnU9Jmsm60ZCEpSgmNKAXARIBBIkIRWQC0jG/x0blv96miTbf//fyROCoaUYyno0kP8aCuWilEmSnMa6udYi5biGbw3MSqPPqy0jtY31XacQOksiWXNY+ifHyycStXyjIukk1tnYmRSJaN+PZbn9B9q6leT4M4/L8V/eL8dPvmuCuSjelRPvvCcnT70n77z7vvyf//v/KqF41++T4xedI4d3v63dTyVwQxTCTi3/Pp2OSjT6vfK3tri8OcgujHqEIlF+KBJkUxKzWnYkRcI4+CVZGHpOW7eSHPvdL+XYYw/L0ePvaDl24lRSJk7ecbOs/fUvKtdCt69yUelQfL7U+u/TqUYBkQhIhMXOnuU0do9OarcjtQO+68xzKS9lEwnmSdQH4fBs+vTYEImGj8tcoFNbv5IcjR2Ro+tRrURYWDLx/5sPy78MQyVvIllTtz8nwY3LbVEIO7UuEk4IGroy7BKhY2f3sqqnQ7dPp9Adr1B0+92KUCTKT9lEAuhuAKS2SC7YlYxIdKi/IRi6+pUEk0Dp5CETyMT/NWUCeRXIv0CSkH1RMqdxaxTCDm6sunOvJUpJnrMiEboyO1a3h45ydIXgeIiE6I5XKNiP7hhbjYTUM9GynJRVJOrhZkUWEiIRaU2IhPkv/p6dy3967HJxrK9Xjs5HtPKQybtHj8r/9/57KnnTWkNEt89SwPfd7f2wiBTWS7djsdd6z8ik7B71591tgbqQhkxeNRtq7MtOoZEA3XbZjpcvOC+7TGz16EQt/C5rnbKKRL3csLY663vOVEuHK5GYP5SISJhP3bq6leT4dVfJsQP7tOKQyYlHfy3/fPZxWTXiattEF0d4wz6Lxc3dGADT1tfT7xGNg+59boYVYSikccW1y9YQWQ22HV09HZnRDl2dYnnTlvux1SMTFInyU1aRYJ5EfYAlw7F0eFrXRsirrVtJjl99iRzraNOKQyYn//CYfLDjYRWRwLbo2nCii8NNQzqzUY9CX8w1R3cGntgLTaC0IqvW+gr2MggJ9mdhFxREGnBMC528WNsXIjb5wshEgpFwUPs6cY6yigTIvAGQ2gNLhscn/3RaJJBseZZayEtXt5Ic87TI0aUVrThkcqqnQ/5PX2dSJECpXRxuj0LUa0SwmGhEMZEIC0skLHRCocPekKvGvLvykQFGJigSlaDsIpH5IyS1x2rT5RKbeDolEvs+LfP+Fm3dSrK0amilQcd7H/wzkWwZTXRtWBTTxeH2ZMp6jwTmG42wEhcBIhHFSESulYw3Ewocz46uTiVAZMQuE4VSzXN3gmKiV6Qwyi4SzJOofVabr5XY2KMpkdh/vkQm9mrrVoqjx07KUbVkuF4cMvnXv/4jJ945pWbatO8Ha3/k28UBKXZzFAICUe/iXkg0Ao2g1YAW2p1hka+U5RulqBaZ0ZFCqWWZoEiUn7KLBPMkap8Vz/US8/4qJRIHvySRsde1dSvF0elpNVvl0cGBlDDEDqfJg51/dXnk/Ycf0O4L80r4AjPaskzQYAAIMr7bbrhJbQWBsMjnepfSjZFJodfVzUJh7+YohlqVCYpE+Sm7SADdD47UDsvtt0ls8MGUSDRfLhHvX7V1K8XRUEiOX3+NHHvobtXFAY799iE5/qVz5fhVX5KjR09I7PAxOdbfJ8cf+YX866Xn5OQ3L9XuC2Cp80BoTluWD5ZgWHJRiZtXvY3E2Ix8ohEI41vDJ3XlhZCrW2Mz3CoU1hDRfMlM2NQNVyWEIkE2ZanzLon235USCc81sjD0vLZuNTm6sCRHR0bkWE9X6jWvV048+Tt5/3c/l/cf/3VafTtWF4fTq4VmRi+caFy2mkBYbHbtrEhEsd0YmZQiEhZujlDkiz3Hwi4Vurpka1IRkWCeRG2z1P1Tifb8ICkS0Y7tsjiwQ1vXjcwvLCeWJD98VFtuMTmVfxdHKVjRC/wuCpWLrfxbynWd1JNyAZNM5YNT3UX1MKsiIhA6mbAPby0ERjTqi4qIBPMkapulvt9ItOvGlEh03WS+9rC2rhuZX1hJiMSR3CIB0MURnC6+i6MULMHQRS+2+m9os24N1bA5PLzSKZEoRBTdjC4yUSyMaNQXFREJJ0KEpHosDjwh0Y7vpESi94ey1P2gtq4bsSISsfgRbbmdqZnydHGQ0shsjNGNgSdbNEjA6SdcJ+9Z9SISANcZOCEV1mdHqah9KiISQPcDI7XBwtAfxfBcnRKJ/rtlqeNObV03UohIAHRx+IPl7+Ig+aGLRqDxsRokJAVmlpeKk11I9SQSdkodUmqnHJ8hqRwVEwn8MK3QbaXAj1j3+lYk8+ZWCJGRv4nR/NWkSMSGfirLbd/X1nUjhYrEzNyiTPir18VRD7zdE002EgdGp0v6DtobYmuSKWvfTuZE2HGqWwPo9r/VYQJnfVExkagk6E+2bgT1+jRQCKWGaSNjb4rRdFFKJLwPy0rrddq6m9EzsVoQ46Fl7X4KoVCRAOjiGDdlYjqsLycbsT6zvUOLycYBT5r2bgf8HjEzaL5iYY9GQCKwL2toYrmeYp3uitUdg+gjGoxM1CZ1IxKQB104Uld3q1Hq09W8r1HNZpkUibFHZbX5Gm3dXBwcXt9w48gHNE66/eVLMSIB/EF0cTj3ZFrP6D7bzZIfIRUgV9TM/iCg+tMrsF6F04mtumOQBLpJsigTtUfNi4Q9+pCJ/Wlmq+LE09XcpEeMfeekRML3B1ltukxbNxeILlhPrTrs4XA7eL2UyESxIoEuDkQlgtPz2vKtDj4zCIRdItDQo7uhmC4HSAOmILekwvr9WomV2KfTSZU6nMyP4D1oc/CZ4rPNnPxKVzdf7ENNCwFDiHX7I7mpSZHIFn3IhD9iZ56u5qf6TXn4c1Ik4tNvyNrez2rrlko2mQDFykSxIgEgEZAJSIWufKuCz0L3GZWjocdTa6VXzrQiJbr3Xgi8BxWGXSaKjUzYc2iKoVx5N/VMTYlEvgJh4fZVGisBbmS6a5MvC0urqgFGQxxf7E6IxPwhMXZ9WMLTE9ptSgWNFNBJRTEyUYpIAHRvYCSHrmwrgWuP6EPm57JZpABRMfxu8fu1d1XUAqUKBUWiMPA9yoxMFIr9u2nH+p5mQ3dcvK47T5KO60XCugnpfqSbUQ8zypVCKd0ac2bju7YeUw0wiPpekpjvmWRUwmg8T+VO6LZ1Cp1M4G9d3Vwsrawn3kORIoE5JRCVQAKmrnyroBO7fG+0mb9hNM61JBfFCgUfZopDl4hZCvlEGTJlwoIysTmuFYlCow86au3px2mKjUZYDS9YM+JKKjDcM23hLs/VsjD4rHb7TCAE1o+yGBEA1j6K2R4CYb0XXXk+YCgoZr3cal0cOnkoJvSL36Ju/3ZqQS4KFQqKRG0Cecj83jNCkR3XiUSp8mBnq4uE7prkIrK4KkbssGp0Y/GjsrCcGi2x2PeIRDuvT4pEtPd2Weq6N237bGRm9Ovq5AOS+wrt2lhcXktJ0XpMWydfMElVvXZx4LpmYv/c8KQGSsmoL+a3bZcL3T6rRb5CsdWjorWMFaGwRyksmdjKQmF/yLfaWFeIhBPRBx26Y20VCunWCEeWZXU9mmxwV9YMCc8vpdWJjO4U4+AlSZGIjT4iq83XptXJhlMiUQxWNAJElkobRoouDkyfXW9dHPbPRoeTiY664+cLGm7dPqvJZkJBkagPtvIwVat9zvyeY4SVVafqImFNTpOP3RfCVk9yyrdbY2llTS1mhYbWiMYlsriirTcX7BFjz5lJkYgHX5b1vedq62ZSLZGwRyPQXaOrUyiBUKKLQ1dWq9g/G4tShnHmAjcl3Tnki1u7CrIJxVaPitYTiELg95AZoai3YaPZxMFOZvvquq4N/PBAqYKxlUUin2jEvCkM66Y4oJGFSOTT0Bq7z5D4zFsJkZhvPj1yY1xb1469n73YHIliwLLheH+ldmlkgqXG66WLA10Y1mdjp5yh21Kjj27OO8gUCopEfWKXCQunpbtSWOKQ7+9S17a6NtkyE0swEE7JRzLcfLMpN7m+EOiyWF41kk/q6NIIz+eXd7DadKmajMqKShiNn5PW9iYlB7mwfmj4f91+nWYughEnpyXJlInMbppSCc0mujhCs7XdxYGck8wbYSX6fvE71p1PIbi5y8D++6NI1C9WrkRmhMLtSZkQB0se7L+pfNF9p2tGJHJhSYZdMLaySGTr1rDPCWHEDxeUM4BrOt92k8QGH0iJhOca6Wj6U1pjlA1IBJ5+dft2CryfdSMhEBbZumpKpR66OOySV+kbX7E3MTtukwldt42uHqkvMmWiWr+pbKBtLEUc7NjzIuzUhUiQFLpujcw5IfLNF4CM4YtjrbjY3bRDoh22kRt9t8tw4/0bfkCZVCISETXFyHp/kAlIk66ek/gC06ZQ1G4XhyUS1brh6c6pUNzwxK8TCAtdfVK/4LeUef+rRoTCKXGwkytdgCJRZ2RGI3RzQtjL7VjiYO0LX36AJX9h3C2tr4lx8EtJkcDIjZnGa1WDlI1Dw+tlj0QAKxJRrgiEjtBspOa6OKyhnYPBOWkYWqxqv26uBrgQqiUT+Zy/bjtS3+CeiftlZpeHdT/VbeM0+E3k6vovlM1yDikSdYQ9GrFhTgjNE7olDrpwlX24kzX8r2PibTH2fCwpEoWM3Cg3EAhLlnTl5SIQCqvIhK7MbWQmVlbqppYLp56aKikTEIhs3Yd2Nrv5kvoHD2H23xyo5LBRSyhKlYrNfl8UiRrDtxiSyaVZLVPL8yqRMm1OCPNvK9nQyh3J1s9lB40MnlYzE/DWd39U4jNvJkTCGrkRcubJslSsqMTiypq2vFwkujjC2jK3oEustH/e1QI3KN35Fgq+2+WWiXwFwoIiQYB1L82MUFR62KglFbrvai7yaS8oEjXE2EIwKQibgaGdGOKZrzjkS2T/RRKbeDoZlTD2f04i47u1X8BKA4Gw3r9T80bkQ6qLI6ItdwN2iXBDJMKOU1EJ3CR1+y+VYvubKRIkE11SZqWlvhChyPc7TJGoEbpnR1QDaRw+LL3h0TTG54MyHVmQXn9UWkcTwHizUUpDEjlwicTHdyRFItp3hyy33aL9ElYDCERytVIM/YyUPz8DVKqL4+BwYvVNew6Krh66Mex18Zlb6D7XaqN7D8XgpEygq7AUyYHE6/ZLtjbW7zAzQlEoun0XAoQCD5nZpKIQEaZI1AhLRuJpe2jel3wtM9Rqt9xclNKYhA9dKTHvr5IiERvbIatNl6V9AasNunKMWKKbA9N96+qUg3J3cWR2T1jg9cy6kAervBam8s0ncTFfSpWJUgXCgiJBcpEpE4XiZCRDF6UopKuQIlEDBFfmVKMYWA6rv7Pd6OxfMifXR7AzPPB7tYS4JRLxyb/IesMnZTY8t+F8qsnC4qq6ZohO6MrLAUZvON3FkZkgWShuyYXIB6e6OEApjXixfcmZcJ0Nki+QCus3m++Dnm79j1J/79Z3v9DucIqEy/FGJlWDuGisqr+z3WzR4OApFIaLJ9BSog65aJ7qUAmW8dldp2WiU4zmS5VMLPX8XMJTg9rzqwbWGiKY6VJXXg4wr4QTXRz4PK3PtBDw+VvU2qJCuInprkWxlBoRKFUoKBKkEDDCo5D7thXRsAORwOt2dNs6DUXCxXTMDEnscKK/f3QuqL1ZATQgsNFKhVKX935a4qFXU1EJ4P+jRNu3KclYbr9N5n2N2nOtJNboFfyrKy8XmPESM1/qyjYjMwKBv3X1dDiZVFstnIxKACca82KFAtvp9kdIuajWcFOKhIuJrCfmRphbyt2YWCKB/9ftx2mQJxHt+7GKRqTJBJh+Q6K9PxSj4UxZbb5aIt6/bjjfSoIVTXENKztRldXFsaAtzwakAfkOdnT1MkGeTD01Wrr3WApORQYKFQqKBKkGiEIgMmHx5kBYDTUtJxQJlxJcTuRF5PM0bYkEGiLdvsrB8r7PiLHrIxLtvkXioX9sFIpIi8SGHhLjwAWy1vg/stj/qIRn/NrzLyfWRFUQCl15ucDqoFglVFeWDWuUha4sG/UQhcjEycRLCycb9XyFgiJB3II9QlEOKBIuZCQSUI0f1o/IZ+VKSyTwb8tkalRHuenzPi9Bz/dUd4bh+YbEfM9sFAqT2PiTYrR+3ax3hix13SNzgXbt+ygXVhfH4nJlJ6pCF0dwOnsXB8QP8qAry4d6HhXgdBcHcLph30wodNsQUg0y8ybsXSC6vIpCoUi4jO6ZETWldSHheEskQDUS7DyTB2S8+75ElKLpotPDQ9s3CAWm1I523ajEY6X1eomMval9P04Tjiyp61mOJcVzMTWT6OKYDuu7OCAS+OwKyYPIpF6fevG+dO+3VMpxvbIJha4uIW4Boz6cai8oEi5jed1QjV4hMzNWWyTsYHjofNOlYjR8SqJ9d9pGd9gI75Vo/91i7DtXVs26C0PPyexceRe+shYvwxTiuvJygS4OfzDVxYEIRLZJpIqBUYn8KXc3UKZQ6OoQUo9QJFwE1stAY4clv+03wFwgIc+SCIBGSrfvStPn/bOEWr+jog/Rju9KPPDiRqEwiY38VoxDX5b1hnNkqeeXEg6V50kURE/PeDm/ULnEy5m59C6OQpIo86VeoxJA934LpdJ5JPg86lnwCMmEIuEShub8qpGLFTCtc6ZEWCLhpoYFK4b6O26X1T1nidF8ucTGHtMKRdz/vG346A9k3ndA+55LIbKUmKSq0iuEootj3B/K2sVRKvXcaBWbeImRLPWYiEqIG6FIuIDmUK+sx08PU9Qs950Le7eGJRJunAinJeiR0d5fyELjhWqhr9jggxKfb9ooFNOvS7TnB2LswfDRb0jE+7L2fRcLJKKY61wq/iC6OPIfOlgo9Tz5USFdHBQIQioPRcIFzK4uqMat2P57u0xAJNz+hDo49JTMNl8lxu4zJNr9fYmHdm4UivlmiQ39TIwD/yNrpnws9j8mYfN96d5/IaBbA9caI2J05eUCXRyISgSny5MLgr553bWuBxBh071nO/jOUyAIqQ4UiSozsRhSDRuW/dbdIPMhMyqBv3XHchvdY69IoC0xisPwXCsx37MbhcIkNv6EGK1XKvFY6rpX5gId2uuQLxA2XPNKLjUOIBGQCUiFrrxUtmJUggJBSPWhSFSRrlmvatCwJkQp60FgJIBdJADGBuuO6Uba/I0y3n2vLO89V4yDF0vM+2tTIDo2CIUaPtqZmLdixXODRMbe1l6PzcAQUAwFxbXH0FBdnXJR7i4O3fWtF+zvEwJRz0mmhNQSFIkqYi0NvrBcen99ZuJlLYmEneH+R2S+6Sti7D379PDR3RuFYrbh9PDRc2S16auyMPS8zM4VlsiIyalw7Su9DgcSLhGVQAKmrrxU6jkqgcRLCgQh7oMiUSVCy/OqIVtZc25eg3oQCYs+758k1JIYxRHtuD7H8NHfiHHwElnfe64s9f5KwiGv9troqMY6HABDQTEktFxdHLrrSQgh5YIiUQWG5n2qATNizib82UXiwOiM9ti1RsfEm+Lv+KGs7TlTjJavSWzscb1Q+J6XaNu3EsNHO34k874m7TWyU611OAAmqcJkVbqyUnF7si0hpL6gSFSY9plBiR4+rBqweYefhK0plyES6OrQHb9WaQm0ymjvQ7LYeIEY+88/PXz04EapCL0m0Z7bxNjzMVltvlYiI3/XXiuLaq3DgS6OxAqhEW15qTD8TwipFBSJCmMtDV6uEQNWrkS9iYSdwcEn1VLmxu6PKmnQDx89JLGhnyrpWNv/BVkc2CHzvkYJT/vSrheSLePm51HpdThArnU4SoVRCUJIpaBIVBBLIlYLmAK7UOxJl9Ved6PcdI/+Lbn6aLTtmxLzPbdRKExiYzvE8FwtRuN5qu7avs/KavM3ZanrPrXOx+r8mPpcKr0ORzlFAtRz4iUhxD1QJCpE9+yIaqzw9FvOJ1979wbAEq+686kn2vz7ZKL7bllpOEclXsa8D5sC0blBKBToDgn8Va3xEe39UVIw4ssJmVjtuVdWTDlZbvu+LHfcLkudd8lS9wOy1PNzWep7WBb7H5XFwaeUgCx4/yKRkb9JZHSnGoo6P7FX5n0HZW7SI3OBbglPDUo4NCrhGb+EZ0MbFiaDSJQr4RIwKkEIqQQUiQqxtJ4YbliJqZntMrEVRCJFt3j7fyuRpkvU0NBo/11qqKhWKDKJeCS+4jVFwyOx4V+oHIzowL1qCCqEAzNwYgn0aMd1iTVBPNeI0XKlGM2XKXkxmr6gulGMxs+ooatGw1lqAi1EQNIwX1tv+ISs7/20rO/5uOqeWd/7WVNcblGLlkFQsLw6Jt1yYiZPRiUIIeWGIlEBfIvTp7s0KjdngTVJ1dYSiRR93udluiUxigOrj0IMYr5nJD7ztl4kysVCm5ruOz63PyE1M28lcjqm/m7+/5tmWZMa2hobvM+UlVsSgtL0RVNEPmGTj4/K2t5z1VThqwcukdWDV6hE0pXW7bLsuVmNUlnqvFuWun8qS72/VlGThcGnZWH4zzI7/IIMDD2jVmPtGX1ZusZelY6Jt6TNt1c8gYPSEmzTXj9CCMmXDzG7u7xYXRqx+JGKJvNtdZGw6Bx/Q8a775OQ2ehG9l9kNswfMRvpM8U4dIlEO6+3CcYuvQhUkwVPQkQgIMGXJT75ZzWNOKYMj43+Ts0AivVIkpGTnttSUZO2b4rRepUYzV8V4+CXxDhwYSJHBNESDKW1JOU0WJ0VXUNLjZ+Thf1fUFGd8MHLZbb5ajWfx5Tnegm036JWcp3oukvGuh+Qkb5fqAjQ0ODjpqz8wZSVP0rPyEtqLZU+7wvaz4MQUn98iKHP8rJW5KqeTlDrk1KVg+apbiUXg4NPqWm5IRgL+7+YaFDRHdFkysahL6slz43Wr6s1QKLt31aTYkW7b0o01n23q24TRBHQkMe8v1Q5F7GxR81G/smEmPj/lJhEC5EHRCAQiYAQIDKBCAUEQScPFaNT4pEW83wOmOe1R+LTb5jn+krinP3PS2ziabXkOyb8SnT1PKDec7TXfO/dtygJw3VJdPFcYV6zryQiKap7J5HUiinPBwd3aD8HQkj98CEmZJWPqZU5JRFGrPITHvFzLYzmqS4lGP3e582n66dVAzjc/zvx9v1azV+BJ3AkdPo675DJjh+op/Og5wYlItMt31RP7uGDX5P5pkslcuBiWWy8UD3dozFdbfhkYkItWwQgwUfE2He22QBfqKIHKpowcK/ERh+R+KQpImqeDLPBR2RCt/aIq+lU78M4cIEs7TtPRYU8kwe0154QUttQJMqEZ7pfooePqAW5Kr0wlP0zbfR7t3z3hnvoluZgu7QGmqXT3yy+0U6JjL0lkfFdsjD8J5XfgJEiGJq6Zja+SjTs4rHnY2Ls/ZT5xP9Ztbw6FjhTyZ5YGbXtWol2bE/IiIqa3GFKyT1qLo2Y91eqUY+N70hESyb/nOgqsSIl4b0JaVHCopOC0kB0w/B8Q70HRH+GB36vuTaEkFrlQ5Nz9T3XQLWYXkmspVHppartnyckYmfPssqVsJ8bqT5twUEZ8we1n6Gd8PSEGr0RDo3J3FS/Gs0x7z8kkYm9anRHZOQVWfC+IAuDz6hJt5b6fiNLPQ+pOTKWO36shrGueK435eRbsnTwCokcuEgWG8+X5b2fUZGS9d0fTZcVjDRBoue+c8XY//lEdwW6LVq+proxVDcPujXQvYFuDtXF84DEhn+e6AYZe0wSC61pht/O7knM6WEex9v/iPa6EEJqjw/hZqUrIMXTfXp5cCPu7Foam5EpERAIC/v5kerTnqdIOI0uubp5qlNaAy3i8e+XDt9u6Rx/XbrH/i69Iy9I//DzKp9kaOBR8fY9rLp50E3h67wz0cXTdpOEPNep7p3woa+bkvI/iW4ctXrrHaIbJYOoCEQm8zwIIbWJEgmO3HCW+bXliidYDgbnpGXSlzwHdGe82rOsqPcZLmuRaolEpboy1eqtrd9R0QfMuxEPvJQmE4h0QEp02xJCagslEhy54RzWnBFrRuUSLO0zWVIaaoOO4JCMTU5pP89yU8nfe4dvj/i67pL13WckkkiTUYnn1Gsdvl3a7QghtYMSCSZcOsPwvF9JBCjHyp5YR8MCf1tliERAIAATK2uDaopEIFx52ewdeVFFJ9Qw09MygTyLUOs2bX1CSO2gJqRiRKJ0IBHxo0cT0YgyLMpljzpYQCbYLVWbdAaGZTxQHZEA1fjNI6cC83JYIoGRIkjqRP6Frj4hpDZQU2SzMSodJFaWSyKAJRL2qAQ/t9qlK+A1RSKk/awrhe68ygmm48acEpi8y5KJ2Njv1VwbGBKr24YQ4n641oYDhE4P9Szn8uCWSFh/98+Ma8+F1AbdLhCJakQlBgefUCM61Ayfp2UCyZiY4EtXnxDifigSJTK2EFQSYUTLm1xpFwnmtNQ+EImJwPSGz7nS6M6t3GC4KCbOskQCQ0QxfwUWWtPVJ4S4G4pECfSFx5REgLmFVPKj0yAXAotwHTKhRNQH3YERV4hENb5P7b69aq6JmO8PSZmIDT0kKw1na+sTQtwNRaIE5tcT80WsrBnam7QTQCKsxErOQlo/9ARGxResvkiAauTajPT9Sq3DYZ8BM9p9m1pxVFefEOJeKBJFUom8CGAtBz4YnNeeB6lNek2RmJya1X7mlaZaUa7IgUskOvhgUiTi4UY1RBQRC119Qog7oUgUQfvMoJIIDPccC4fUjRhj8+3obtjFYOVGcH6I+qIvMCaBkDtEAlQj8RKzX6q5JdQqp6ejEh3XSaD9+9r6hBB3QpEoAisaMbm8eVcDwsZ2MNoCQD4ssgmIFY2gSNQfCZEIp33e1aRaUYlw81Vq5dJkVCL0mpKLrrGd2vqEEPdBkSiQ3tMJlovGmrbcKd4amE1KxM7uZYpEndEfGKdImGD+iNWGT0jM92wqKtFzm1qnQ1efEOI+KBIFEllfUSIxMF/YPA6Zq3HmCyRCtz9S2wxMukskqjm77VjPg2I0X5aKSoT3ibH7o9Ln/Yu2PiHEXVAkCmA4klhLY3at8PH3b9oiDNaqnBZ2cchk9+ikdn+kthma9JsiMadt1KtBtafJX2r8vMTGHk1FJQbukfChK7V1CSHugiJRAOvxuBKJztnCuxkskdB1UdglIxN2adQnw5OTEpx2j0hUYwioHW//I2IcuDAVlVhoE6PxXBkcfEpbnxDiHigSeWLNGTG3tqQt34xcIoHXrNU7M8msS+qDhEjMaxv1alBtkQCRpkskNvxQUiZi3l/Kwv4vausSQtwDRSIPvJFJJRGISLSE+rR1NiOXSJCth3fSL1MzFAk7A0NPJ9bhiLQmZcJo+qIE2m7U1ieEuAOKxCZ0zXolfiSxPHj37Ii2Tj5QJIidYb+7REJ3jtVgtvlqifbflRSJ+OweWd99hjQHO7T1CSHVhyKxCUvGmpII70Jpw+MoEsTOqC8gPVMj2ka90rhp6vXekRfF2PURUyI6UlEJz1Uy0XW3tj4hpPpQJHJgTTwVXAlrywuBIkEsOgPD4vUnRuOgS0HXuFcSt63hokZw2HIl4oGX1CRVHb492vqEkOpCkciCtTw45o3QlRcC5pDYeXqYJ0WCDE761Oqf1t/Vlgm3iUTHxNuJqbMDf03KBJYdD3q+p61PCHGOYtooioQGa3lw4/Bh6ZgpLQktcyIqisTWpnWqX8Z8U9IylZ60W02ZqNaslrnwdd4phufqVFRidreSi56Rl7T1CSGlYz306spyQZHIoHW6X1ZjUSUSg/M+bZ18sUciACeXIj2BERmcnNCWVUsm3CgSLQGPrDScI7HxJ1JRif67JXzo69r6hJDS2DMyWfQDL0Uig/DaopII39KMtjxfGIkgOpAb0RHMHuWqhkxUe1bLbIz0/UqMpotSUYnFdjEaPyuDgzu09QkhxVFqe0WRsOFbnFYSAZnQlW8GPgwstgX2jPpVBMJCV59sLTqCgzLi3/zpv9IygePpzsMNRA5kTFI18htZaLxQW5cQUhz2aARFogTQjQGJWI1HxTPdr62zGdbIDMDFtkgm/ZPj0hvI7+m/kjLhZpEYGHpGjIZPSnz+YFImjOZLZaznZ9r6hJDCsYtEMatNUyRMumaHJX40MelU31zhYV4rEoEprfEBsBuDZNI81aeSLD1TA9pyHZWSCTeLBJhuvlaivbenohK+52R1z8fFM9mkrU8IKQxLJAp9AO6bGVNQJEysvIhCuzQsaUAkwpIIXT1CugNeGZosPHkXjXwgPKsVAKfQHddNdI+9khgOGnotKRPR9m/LZMcPtPUJIYVhiUS2bnjchyAMI+GAIvMesuVFYmIxpCQCi3LpyrNhH43BxbXIZmBK7C5TJnRlxYIft47+mfENYGRGJhAUoNu32wi03yrRju1JkYiHdiq56Brbqa1PCMkfu0hYUQYIQ74PMVtaJNpnBpVEgM7Z4dTr5s3YXk8Hog+vnpYJigTJBbozxnxBaQ71asvJ5nj8+2Vt98ck7n8+FZXo/aGEWrZp6xNC8gPS4BmPqLasZ2JVKwqbsaVFwurSmF6JqL87TIHALH94WsusqwMyQZEgm+EJDuQ1WoPkZqz7ATGaL0tFJeabxGj4hPQPP6etTwjZHIgABIIiUQTWFNhWXgSszH5hMutnAzKBsBCSLXXlhLTlOeyTbM5i4/kSG3kkKROxoZ/JfNNXtHUJIZuDLoxiRCI8vyRzkWWJLK5sTZFANwZGaUQPH1HdG7rkkUIm6bEiE0y2JDogEl6KhCMMDTwqRuN5pkTYVgdt+oJ4+x7W1ieE5AYP0ZkiETYFYd4UhMjSqiyurMny6rqsrkdl3YiLET8s8cOJUY4WW1IkIuvL6s2PL4RUV0amRIB8uzcI2Yx2ioSjhA9eIdGBe1JRibEdsrz3XGkOdmjrE0JyA4FoHzclIXokTRB0QCIgE5AKyAUkY8uJRHKUxtqyViDs6LYnpFASIsHZTZ2i1/uCGLvPkPhsQyoq0XqVTHTdra1PCMmNb25BtYsxSEIUghCTlTVDllbWZWFpVXVfoBsD3Rm6tnJLiUT37Ii6WNH4EQlH9BfETqFrEFiLdOnKyNYFU2NTJJxlynO9RLtvSopEPPCiGg7a4dutrU8I0eNdCCQiDUeOKmHQtYWbsaVEYtlYVxcM/T66i5FJod0byJHACI43B8LMlyBJEiLh15aR4uiYeDsxSVXg5aRMRLtulKDne9r6hJCNWBIRK0EiwJYRibnlJXXBVtai2guRDd2+NsOa6VJXRrYeWO0TE1Lpykjx+DrvFMNzdSoqMbtbyUXPyEva+oSQFJjXJn5aIrA0hG7QQb7UvUhgboiZhUT/jxE7nLWPJxvFLLGMaAQjEsSCIlEeWgIeWWk4R2LjT6SiEv13S/jQ17X1CSEpesKjql0MrsypvzOnQMgXzH5Z1yJhXZj1WFxdsIH5iYKti6M3SKl0BIdlyF/4Ohtkc7x9vxKj6aJUVGKxXYzGz8rg4A5tfUJIAmsuJW8klb+lawMtIAxoD61p9+37qkuRsGaoxJtfXjXUxQosp7oaMAV2vnOIA/u+CwGTVDEyQToDpkgUsWAXyY/IgUskNvxQUiZiI7+RxcYLtXUJIQmmVyOqbbQvD2Gtr2EXhnyWjKg7kbCHZyKLq+pCLUXXN9QrRCaK6t7wc/pskgAiMUiRKBsDQ8+I0fApic8fTMqE0XypjPX8VFufENIjqzFDjMOHtWWFUlciYe+2QC6E1aXRF84uAhAKuzToKKZ7gyJBLLDqJ0WivEy3fFOivbenohK+52R1z1nimWzS1idkK+OZGVBtY6GrXmejLkTC3pVhEVldURfKvzSj3cZOPtEJ3Xa5sESCU2cTikT56R77R2I4aOi1pExE27fJZMcPtPUJ2cogXzDf9jEfal4ktJmmi4vqIi0Yq9ptspEra7WYyakskQBY511Xj9Q/FInKEOi4VaId25MiEQ/tVHLRNbZTW58Qt4EH4mK60gvFZwoE2sjBeWfuSzUrErooBAjOz6l5wHGRMJOlbttcZItOFDw5VYZIAEYmtibdSiQmtGXEOTz+/bK250yJ+59PRSV6fyihlm3a+oS4CbRpVnuTT4JjKaBLA21k28ygtrxQalIkckUOwquJaATW1NBtmy+6YaK6erl4tWeZMkGUSAxQJCrCWM+DYjRflopKzDeJ0fAJ6R9+TlufELdgFwk8zOrqOAWSLFfjUW1ZMdScSNgvdiZYzRMS4VQCSWZ0ouDuDVMaMmWCIrH1oEhUlsXG8yU28khSJmJDP5P5pq9o6xLiFjIj7OWawwjDPdFOzpoP3bryYqg5kcg2odRw2C/Rw0ckfvRo2rjYUrHLRFGjNzJkgiKx9egOjEj/ZPoELqR8DA0+KkbjeaZEdCRlwmj6gnj7HtbWJ6TaZHtALke+BCaggkiMlxi1t1NzIqHLi8Br4bVElwZm69JtVyoQChxLV1YIWB2UQ0K3Fj0UiYoTPnSFRAfuSUUlxnbI8t5zpTnYrq1PSDXRtWsWmfkS+DsX9rp22mcGVZc/ujXQVhrxuLZeMdScSGReZHwA1lSfkAndNk6x2QeVD1aEYs/IpIIRivpHiUSg/JnYJEXvyAti7D5D4rMNqahE61Uy0XWXtj4h1SJXdz3IzJfQ1bHQRc0xMsN60LZYi8dk6vQaG05QUyKRecEhEf3hcdWdgW4NGJduOzdiz5vg0NDaAwm/utd19ARGpY8iUXGmPNdLtPumpEjEAy+q4aAdvt3a+oRUg1zRCAu7IORaLwr7Qp2uWa9aFmI9npiUESwaq+qhu3W6L7kvp6gpkcgcrYHogDWMxRspT2JKuWDuRG2B7x5+wPYfsa6ejl6KRFXo8O1KTFIVeDkpE9GuGyXo+Z62PiGVZrNohB0rXyLbqEXM5ry4vCaR9cRkjADdGIHlcFFTIRRCTYmE3dwgEejvwcWaWV3Q1nc7bw7MJkViZ/cyZcJF4MdqyYP9x2on326uXlMiKBLVwdd1pxieq1NRidndSi56R17U1iekkuQTjbCwog3A/npkcUWi8SMSP3I0KRBz60syPO9PO1Y5qUmRQJgHhoULhtCNZ7pfW79aIPcBSZWbYZcI3X5I5YAUbCYOmeSbUQ2JoEhUh5agR1b2flpi40+kohL9d0v40JXa+oRUikKiEcD+4DIxNy1LK+tKICx5gEjgteFw5bvKa0YkrItuWRmmv8bFG3Joik+n0M1ouRnMkagOhYpDJhSJ2sDb92sxmi5KRSUW2sVo/KwMDu7Q1iekEhQajWgO9amhm1Z3viUPq+tRFZWw6pZjyOhm1JRIWBKBhUZwEUMr8xvqVZNiJAJQJCpPKQJhke+8IpAI5EnoykhliDRdIrHhh5IyERt5WBYbL9DWJaTcFBqN6J0dVYMKLIFAHsT0YkTlRWTWLWa+o1KpGZGAZanwc3hMXcjVWFQZmq5utbDnPAB0WWDOiM3Q7YuUl2wJS4VAkagdBoafEaPhUxKfP5SUCaP5Uhnr+am2PiHlpNBoxNzpKAQEwppwMds9jCKRB0vRdXVBsQyqrryaZCZP6uoQd1DoE4EOK0K2GRAJDAHVlZHKMd3yTYn23p6KSvifl/VdZ0i7r0Fbn5ByUOi9J7gcVm2eblCBrj7IrFduakokFk4Pa8FwFl15taFI1Ba6H2Ch6PabSX9gXE1KpSsjlaN77B+J4aCh11MyMfgg1+EgFaWQaMTCSqLNW40Z0qKJwGfros2sV25qRiSsURqxI0e15W6AIlFbOJEnodtvJpgeG+tt6MpIZZltvlpifT9JikQ8vFfJhcffqK1PiNPkKxJLq4noO8DslLp9ZeveyHdoulPUjEjMrS2pC+qNVG5sbKFQJGoLJ0Qinx/sAEXCNXSOv56IStimzo62b1OzYOrqE+Ik+XZrYBinJRHBTaay1m3v5MgNTNENYcG9Ltv9riZEAjaGCxo2ZUJX7hYwf0QtiAS+zPhyoCHN9eWod5xIuMznB4slxLGUuK6MVJ6QZ7tE276VikrMYgbMj6i5JfqHn9NuQ4gT5BONwEiMWDwxQmMziQC6ByInRSLzPom2I7P9qAmRsBIsyz3NpxNgdspaiEjYvxiZX5DN7LOe0F2HQsjnBztIkXAVnskDShwgEEmZmD8k0YF7xdh3rhoqOjzwO+22hBRLvtGI1fWYau98SzPa/WSieyByeuTGZtFb14vE6EJAXVS3zRmRCzVzpctFIt+wvs4+dfurVXTvuRDy+cFSJNzHXNNXVaJlUiRsxLwPqwmslvadJ2M9D0proFm7D0IKIZ9oxMpaVLV3mOJat49sZO4n3xFlhYB2IPM4Fq4WieZQr5oCGxNx1NLKntb017oyN6H7QuRLvUQv8hWqbOQnEj7poki4CqwAurbnTIl2fCdt+uw0oZh4SozWr8va7o+Jv+NH5jZva/dFyGbkE42ILCVma8ZslW0Ftne6+5iuXingHp95DAtXi4Q1g6VvcVpb7lYskcC/bl6Iq9RGNJNajF6UmieRj/lTJNxJ81S3BNpvUZEHo/FziQjFfPNGqQi8ZArHd1WSprfvYe2+CMnFZtEIe14EFqPU7SMXukZeV69Ust0vXSsS7bOD6qKuxeMqMqGr41bsC3K5eebKUhvRfMATuzUrqe4cqo0T10C3XzsQic5AYjY64k4GB5+U8KErxECUApNWzdjyJ04T8z0r67s/Km2+vdp9EKIjn2jEuhFX7Z1/qfj2IvPBsFz3XN0DqGtFAjkRuLAjkcpP91kqtSISIPMLUQqIRiTEYbwmohEWuvdSCLp92hmiSNQMWF481LpdRR+inddLPPhymkxEO2+QoOcG7baE6NgsGrG8aqi2bnltXbt9vmQ+FDk5ciMT3Ovtx3KlSPSER9WFXTLWtOVup5ZEopQncksagG7ftUI+SVC50O3TDkXCXUBy8b0HeLqysEQYdTon3pDJjtvU6I70oaINYuz5mPR5n9+wX0Iy2Swasbi8pto6I3bYrFv6PcK+73KKRGZXiitFAhmruLhuXE8jH2pJJID9C5EN3GAtcdDto5bRheoKYbPoy7DfLx3B2onQ1Cq5BEH3uWXDfgP2TDbJSsPZEhvbkZSJ2NBP1RBR+7EJ0ZHrIWV+MTH9NZIrQxFnRiXa72WWFJcL+0Oo60QiNflUeZJFKkGtiURmQ1qrXRTFYv9BFMNm5k+RKC946is1qpSJ/Xvv7fuNGAfOT0UlTIyDl8hY70Np50GInVzRCCRXRuOHVVu3sLTq2H3Wfi/Db0JXx0mstsN1IpGafKp2s9xrTSTwJa6HLopSKPSp1Q5FonqUQyIAvg/24yARM9p/Vyoq4XtODQtl4iXJRq7vpTXp1PLquuMNvv04unKnwW/FVSIxthBUF3eqhiaf0lFrIkESQKjwoyhUKlA/1xOF1z9pikTtzINSK+STDV8K9tBwz+jLKgEzHnotKRNIxgx6vpd2ToSAXN9Nax2NNSOm/nYqGmFhjzDryp0G5+8akWgO9YmByaeKmIzDbVAkah9LKqwf5GbkkgmIRDtFwlFK7Y7KF3u0CcmX6YmXe8TY81Hp8/4x7dwIyfb9tCadisaPSDiyVJbuB/uxnZaUbBQtEogaLBirjoH5InCBa23yKTuNfm+aRFAk6oNCpEInFBQJZ8nM6Sk31ueJqbJV4uW4LfFykImXZCO6bo25hWX1oIx2LrK4kvbdchrrmOUcuWGnKJGw5njA1NVOofZnXmTd8WoF+zLiFm6e2ZIUBn70+UqFXSi8/gBFwiEqLREAn6V1/ETi5f+kohImSLwcZeIlOU22bg0jmnhYxpBP/F2OaISF9Tsp98gNi4JFYmZ1QV2M+fXlmptx0kne0kjD7tFJbV1Sf0ASkJy6mVTgiWDEFIk2ikRJlCupMl/sN+SsiZf+fWnnTLYmmd/TpdV1iR9OPCxjUS7r9XJFIyxwDFeKBIZk4mLU8tBMp0Ck4dWe5STswti6WFGKbFIx5p+Snin3L4HvVqotERZWmDhX4mVLsG3D+ZOtgz0agXkiMNEU2kwQix9JlpUzGmGBqEQljgPyEglEHqxJomZXKRGEZEPX9THuD0loNqJeL/dTSL1RqaTKfLE+P23i5e6PKsEAq3vOkpW9n5alxs9LZP9FMt90qYQPXSnTzddKyHOdBNpuEn/HD8XX9RMZ635ARvp+Id7+R2RwcIda9wNzVKC7ZLT359IxwVVHawU03OHIsqysJaa9tgTC6s7I/B6VE+u3oytzmk1FoiXUJ5H1xAxc06sRbR1CyEYsqbBEwrqJUCjyw20SAfDZ4dx0iZfxBY/E55uUVMSn35D41N8lHnhBLfaFpcpjo7+TmPeXapXRaP/danGwaPctEu24XqLt28TwXCVG81fFOHixRFuvlGgL+JoSkzVTUiAk0y3bZMpzvckNMjTw6IZrRqoHohEY2mklVCIagVEamd+hSkUJAI6ne91pcoqEZ7pfjajARUGCpa4OISQ3Y76gdIe8aZEKykRuqpFUmS9Wv7Mu8bI8dCgxifmekdjwQ6Z8fF+ifXeolUqX954r4933Suf4GxuuIckPfNdKIyhzK8sSO50HgXwICIXuuwMq+bvH+VVi5EZWkcBcDlg0CxcmuDKnrUMI2RyIhGeqX/0/biL2JE0KxUbckA+xGdbNWSVedt8i8cCLEp96JRGJmG1IRCYQodCKgVN0Smzs8UQ0Y9eHVfcJukPafQ0brilJB9EuNLK6zzZf5hdWVBeGFYEAq+tRNf21rj6o9OzBeJ9VE4kOUyKWT09VHVhmEiEhpWAXCTsQCIiExVYXCrckVQLrM0H0wcKaRh6fk/VZYYrsUOt3VC7ESsM5srbnzGSehGL3GWI0fFKMxs+IceACMQ5+SYzmy8XwXK0EAEmaiQjD7RIduEctCBabeMqUkV2n2SPxGVNOIs0akbBhikts5DditF6ljhs+9HUVMfEEDm64zlsVfL9KlQeA7gprFAaIxY+qqa7nTLHQ1beoZJeGnUqM3NggEp2zw7Iai6oL5F+aSSsjhBTOmG9KWqf6tGUWllRU4unBjdiz3ctBLjGw5EB3XsXQHOqWloBHPJMHpMO3WzrHX5fu0b9Jn/fPMjD8jEqo9Pb/ViVSjnXfL76uO1XyZrDtRlNKtsti4wWyaspHgk+k5AQy0vI1ifXfk4h+zB/QS8Vsg+oCMZovU9tNt3xLHbM52KE933rHiegDQMKkcXqhrYRAHNHmQGSjWg8KlThumkhgoay1eGIxkVqeYZIQN5GPSGxlSpWIbGJQrRt3OYCU9Iz+VYYHfi+zzVer3AglF55rJDb6iCkVWSIW029IdPA+MZouUnNdIFGz35QZ3THqCaeiD+imQL4Dog6WQKD7YrPoQybVikaAiopET3hErXWBCzW+GNpQkRBSHBCJFopEVkoZnQGB0O1zK4BciLGen8l801dMqfiIRDu+o0aHIHdCKxVTrySSNPefr0acBNq/L73eF7T7rlWcij5gHYzl1VT+A/7F33hdV38z6j3SqESiLzwm0cNH1AUbW5jSViwnnEaa1CuYg4UisTm6m2++bNXuIDvoPpnovkcW9l8oRsMnJNp1o5pxUysUIPCCRLtvFWPfp2Vp32dlpvkbKqdCt2+345Q8AKyHsbqW6NoHiEQgIpErgTIf6l14P9Q/N560rpFI5d8sFrrimhSkXrFEopkikRPdzTdftnJUQgfyMfwdt5uCcJ4YjedKtOe2xKgSnVCYYJ6L6OD9Yuw9W5Yaz5OBoae1+3UbTgsEVuS0BAK5EJmTSJWK7j3UCx+yLpw3Uvl1IrBexc7uZW0ZIfVAUiRCFIlclNogMCqhBwmegfZbVOIm5ryI9t2ZSNTUCAXmq8BkWUbjZ9WKpsjH0O2zmjgpDxYLpjBYD9OQiUISKAuhnr+jSiSG5v3awnKyZ2RSRSK4RgWpZxCJSIjE1l3gLh9KyZMAGJGh2y9JMTD0BzU99zqGpB682JSG+yU+/aZGKLok5n1YjKYvyFLj+TLS90vze9yl3WelKIdAoMvCPgoDq3Pq6jmJ7r3VAx8anPdpC8qJfeXMQkQC21E8SC2B+SMwj4SujKSju/EWAqMS+YGFxYYGH1XrfiRGflybNUqBCa+M5kvVHBnj3feJJ3BIu89yUA55SCZR2uaBwCgMTC6lq+809fod1U5IVU6sSARAt4Y9N2KzPAlrO+ZTkFqhMzAsQ/7Ky3ot4kSjodsvyY5nskmtWrracLYY+85NRCk0Q0mRR4FJtNax5kfXA2WdPRMC4fTEZOi+gDBY8gCRwCRSWGBLV79c1Gs+T0VFYmfPcppE2MveRL6EWW5/LRNrW7B7tPI5HYQUSm9gVPoCfFLOh1K7NwATL4unf/hZmW2+Sq3hEe37cWKq7wyhQNImhpkikhFou1m6xl/T7qtQyhF9AIk5IGxJlDHnkygLRff+a52KiYS9OwNkigSiDJvJgX17dnGQWmBw0ifdAUbQ8kV34y0U3X5J/vSMvKSm/YYsRLtvlnho50ahMF+Ldt+k6vg679DuJx+ckEc76LqAKKyux9K6LzZbSKuS1GP3RkVEwh6JsChmtIZ9e0YkSC0w4g9IW3BQW0Y2orvxFgqjEqVhdS3MBTpkqePOhFB0bJd44KWNQhHxSHx5XHwz+SdjOhl9wPwOkcUVlShpjzwAjMBYW4/L0qo7BMKO7rrUMgWJBOZ8QGRBV5aNzEgEyBVNQA5FthwIa3tKBKkFMAkVh34WhlMNTD1Nj10Jck0pHQ4Ny1L3z8TYfabKk0C+hF0mDscTCzxiZuT++eyrWzq1ngoSI5HvYI84WKwbpjisYAGtyuY+FEq9RSUKEgnkMRTakL+aEY3YLBKRq04+2xPiFtqDg+L18+m4EJwKdddqVMIz0y+dc8MyuOSToSW/+n+8pqvrBIVEB8LmNV3qvFutWJoUicDLYvQ/IKunV4sGc+tL0je3saEsJYESUQcs2W2fNAog5wGjMBaWV0uefbKS1FvUrCiRyIYuWdK6MeT7hKD2Q5EgdQByIwYnJ7RlJDuZN91icdNTH+YRaZsdkL6FMQlEw7J4fE3W3onLwrE18a/PSG9kVDxmOcRhyJSI8JElmT+6omSiy3ytWbPPUrC6L3TXTUd4dkqWuu5T3Rzx0KtJkUCEYrz7XrVPRCMgEclG/nBcgitzgikGQpGIdr/ZgBQsLK1uiDxg4ijkP6Cs0iMunCbzM6llChIJiAIiDNmwd1kgjGV9UfGvfT+5sKRE171BkSC1RH9gXHoCo9oykh2nujfcMklV83SvEoSRlYAsnzDk6PsnNrB0fF2VT6xNy7QxL08+94w8/PtHZGp9TrzLk2ofun0XQrErYi4M/0XW9n1WjLZrTYl4LRWN8P9RLXPeGmhJOw6iEejmsGaLtBMzpQBRBHRBQBIQTUBXBMQAUYfFlTVVZt8GUQhEI1CuO79qgK4TDCldM88V4P8L7U6pp+6NvETCWg8j3y6NzPBkIWEcSyR0x6NIkFpi2O+XjiD76gvFqe4N4IabNSIRkIHD7x2XqYVZ+dmvfikXfOGL8r/+n/+t/n3imadlbm1RYu8elbmjyxI5vCIP/fpX8pN775Xp9XkZXQmWJBKFdF/YmZtsk5XW7WI0niexsUdTAnEaezQiG8NzfiUMSIREQiSkQCcYmSS6LNZl3kXyYAddKWtGTE68c0qB/8drurq50F2zWuRD+U7ulG893Re2kMQnHAfRDUiDPcJhJW1SJEitgERLzGypKyO5ybyHFIsbohK9kTFZPRmT0eCEfPWKK2Xb9uvkH2++Lq3d7fL3N3bKZZd/Ta646mrxzQRUdGLh2GoyUjEdj8j4WkgRMMISjM5JxCxHBAPdHxPm6+gKQSQDf+P12cOLSly88wGZXoyo4ZBowK38guMn31GN35Gjx2XFbOTRWGPYJMD/r6wacjxyUD6Y+5t8sN4u7x6dluPGqBxZ6TcZkGMzO+WE77cSn3hcgsa06oJZTB43IB3hIWmZ7pOumWG1bgUa2aPHTqhj4tiISoC1aEIWMKoC5wHBOHHylJw89W6yHqIVOCc00strhhwx94PXjx0/qeqeMOvFjxyTVfMY4LD5/3jdvn1kydzePI/EMRIRDmv7YyfeUX/jGlkRBSvaAJk5duKkOh/UXzdFCPtDFOW99z9Qx77n/vsVx06ckFPvvqciKoUsNV4vUYkPoXHWFRSKvSsjk0IzqDPX4cg1kRUhboRTY5eG7j5SLNW8WSM3AhJw+N1j8tvHHpVrvvkts3EPJ0VByYL5N15HOeoZpw4nyyJmIw1BiL93LG2bXBz/4B3V0KEhRNgdDeUH//yXlnff+8BsIBOTNIHYfKf8c7VZ/nNsXP77/rr8918nFP88tSon1gfkuO8xOTH0E3n3RPp7sIi+e0TGVqekZ35EZpcX1bHf/+Cf2mO/c+o9UybQxRFT9XDOmXXQgEMQ8F6Omv+fWb4ZEBiIDCQAcqGrA44eP6FERQmLKQoQFl29w6Z8WdcT8nD3/fcposcPy7vvv58YMVKASNRL0uWH0H2AhtoiM/KQazimRa5QZCH5ERZWV0qmSOQaNkqIm+DU2KXhVJ4E6J/JPiSx3KBLAsmU68djyUYH/49Gd/Wk+YRsCgLkATkRKFuKr22oa/2Nro69hw7Itdu2qW4RRDd2NTZI9OQReX3P2+pvvH7ttm9LV3dPsgGPxuKy/brr5bnn/yR7GvbK1664StW7+ZZbZcLnV3XixpwcC74k/473S2DUI/fcfZec9fFPKu6//15ZCQ/Kv9db5L34sCyuzamoyu+f2CHNnW3J8/n6Nd9Qfx8x39v64bh6+sc54Fyuvuabqs63tm2X5pZWufe+B+TJp/6gjo0n+fc/+EC6e3rlppu/L2d89Cw573Pny+8ffVyduyUYA4NDah8HDzWrMtQ56+Ofkgce/JmsrK7LwuKS2i9es29vXYe3d+2Rr191jfT29afVe+HFl1R0AaJhxBLRimOmWPzt768krxX+xbV797331b5w7njdzs633xDDFIpCuzh035taQ+VIWF0JQJeXkC03IlcUwqIY47JEAgKBvy2RyKxHiFvh1NilUWqeBO471RQIC7WMvPmEbkUkLrzoYukc7E17ij98OtqAURzIk8gmEp/41Dny3RtvlIaDjbKvuUluvvVWOfucz8i2665T/4/XrNe//JXLJDQ9oxo9SyQ++alPy0/uukfaO7pkX6MpJN/cJl+86EsyOdoh/4n3yH+O+2Wg1yMXXPgF+e1vfiW93a3S0vS2bN92ldzyvW+JsTytzjNiLCmR+NKXL5WbzGPZzwevTYam1HFBT2+/aqzvvPPu5HEhEzgXSyTQ0O/a3SDnfPoz8syzz0tPT59qtPEefvbQL1Qjj3qWSHz+/AuT9f78lxfV/iEqkAT8bX/9D888lxQRiAQk5UuXXCp/f+VV6ezqlscef0K9BumwJAES8eBPfy6Xf+1KaWjYp/b39B+eVeeM80KdtaMxFUn68V13KfD/+Jz6F8ala3ZE+53MRj10b2xItswc4plZbpHvD72YiWEskchEV5cQN8KpsUtHdz/ZDDfIQyYI82O4Z3g1ItffdJOcaT7lP/iLn0vPcL+KJlhCsXIyaj7NH88qEtuvv0FmVyLJ+qGFWRUFyHx9yDci/3PBF1UjiEbPEgk8haORxGsgMuuXq668THY8cp/8+50lef9UXJ584jF57NFH5N2ThvznZEgJxkj/QdXIt3V0qP1bIoH3gvdkP+75F3wheVwcC+ICiThy9FjyuEvLK/LNb307KRKHjxyV+x/4qfzlhZeS0QOw/0CTKTVfFJ8/oP62ROKtt3cn6+FfRA4yX4c8/O73j8n1N9wosfhh9RpEAu8DERL8bW2PiASEKhBMCND4hM+8XjfIsHckWe/kO6fk57/4ldxx511y+OhR9X4zPye8hmG8rTN9qt1Dfo7uO6pD972pJTaIhD3ZMVvjXUjYsRiRANaQUgt2a5BaglNjl06+9xm3RB+ygfkhkBCJ3IfVo1H5y99ekosu+bJq/CypwGgOq0HObKB0DRawGvTf7XhMdSfYX/+2+ToaTjSClkhYDfcH778j/zoWlH/HeuTJx34pN9xwvRw7vJzMh/jvuwvyn8OD8u9jk/LP946ryAaiA2/t2p123EeffCJ5TPX62rJs+/b25HGt7d58623196l3E0/8iDBAHJLnkwVLHPCv7m8LHA9RhqnQ9IbX8b7x/q2/7ZEaJFHiX2yH7S0BygbOF/tbNFbU+838XOaOLCuJsH/2+cpErUclsg7/tGTC/lo+XRl2ismPIKTW4dTYzrBZ1NPN8mCBHAmMYhhe8qeNxsBQUH94Sp589g9qCCi6BHq8A9oGKvNvRDfW3zm8oUHHqIn1d+LJ13Ui8c9Ta3Jy4tfyztQf5b8fxGXP7jfkqquukuWFafnv+1H519Fx6W1+WW77/s0qhwANt8Wbu3ap4+iOGzt1VNajUXUc67iZDT8SPzEKQicSeOJv3H/A3P4G1dVgP242kbASIjMFAQmR1uu5RAKjOBC5sK4PukPwOlg3oqr75CuXXp52Lt/Z/l31/nWfU/jwkhqtkvkdwMO07vtrp9aTLrOKBCIT9tyIYvos6yUjlZBC4NTYzqG7p7hVIHTRVzQsCHdjmGb01BHV0K+ciEr83dQoDHRRoHsimzhk/g0hQT5FZoMeikVUAqf1+htmw49GMSUST8l/4r1yaqVVTh0JqeiDJRJLpvAgQvHa35+VCy74ovzj1ddkcWlZbTsyMqae2F9/+y11nI3HnZfjp95JHqdQkUBuwuM7nlSNPLozVtfW1b48be1p228UiZQw2AUBwz6t14sRieWVVSUMP/zRHeIdGVXlAHkUeN+FigTIp6tDt12tkFUkLAqNQtgptluDkFqGU2M7h3UvcXv0AfdJ3T0Pk1FNxeZMsRxTiZJ7mhpVI4QZLhEKx/8DNMpWI5XZQGX+nV0k5nOKxFM7fiv/OTom//nnMfnPB0fNf4/Lk48/LDdsv0aOLPZJ3FhQOQVPPf1MWq4CGl40wK+9/aY6TuZxV45E1VBO6ziWSMyG5+Syr16R/BujM/Bvpkhk1rPIFAenReLkO/quDfxrr2fxxFNP5xQJfKb4vHNNHpZLJmq5eyOnSJSaOU2RIFsRjNbAqA1dGSmMWrmHWA9bmRNgtc70q7U15lYXlEhgCCfyJNAQWSwfXpMf3XmH/PCOO8xGeX1DA5X5d74igQgCGkCrgb/vrlvlVHwqmQuxNtsl37rmcnn8979OezLf8cRTaSKB5EQkKWJ4I45jP+7JD95VXQk6kcg32dISFSuXAuD4SJ50WiR0yZaIvtiTLVEvM+fiyPFjctd99+UUCbw2sDihcmLs34FMcrWruvq1QFaRKHUcN/MjyFaFIrG1sKIRFnaZQKh7eHlSJUN6ejtVPgQaI2tmy13796phk5857/Pi6UmMishsoDL/Rk4CFvvKFIlJY1ZNYGW9joYfjaBq4LdvV43wz356v3R3tkjLob3yve1Xy9euuFKCU4kGEzKB4ZDIjXjiyadV1wLC+VauRKZIPGYeF9uh4T6OGSIzRALkM/zTEo4Lv3Cx6l5obvGouSGsXIlsImEXBkskTr33vpq8CoKgEwlsj7qvvf6mGtaJPAi8v2ef+2Ny+CeEAmKBbXG+b729S71fbIt/LZGwhvSq+TzMzxEzl2LyMeTE2L8fOrJ1ddRqVGKDSJTSlWGH+RFkq0KR2Fro7pfW/Q/zSKBhGV+dUo1PMDIjjz31hFxy6WWqYYJA3HnP3TI4MaJkI9c8EmDtWFRFOGZMmbCLBLbDMTCl9tz6YlIkTv3zdKTg29fKo7+5X/bueVOuuDIxcdUt3/t2ckIqRBUwIRO6HTAcEo0/GlgMGR0dG1ejMazRIdZxEeqHfKDhxnTbRjSWJhLvnHpXNeibTUgFcI6WtODY+P/+gUEVGbAiFXaRsI6Lxt8uEjh/zJaJCIlOJFAPgqSbkApTZltRDlwXTNiF433tiq+rCb/++uorarTN2JQv8Tm9E5eJ6Un53s03q3qYVGzpxLpa4TXzO5KNTJmo1XYzTSRK7cqww24NslWhSGwdMqMRdqynS7XuxNywmpgKXQ8QikwwNBQJmVgjA4t0Ye0KrJsBaQD4f7yG8u75EZXAOboaVF0c80eX1XLjWGEUr2O9C8xJgcgFuh7QkF637evyhycfSXZr/OfoqPzrnRU1JDO5hsSaoaaUthp3O6c+eM8895hMxebVmh8n3sU6FSfVglxYTwNrTGAqajTgWO8C+7QiBplgXgfkYlgiAYHJNX011ujA9NjWuam1NczjWutnoPFXXTPxI2p6a5wPVgvFeeB8IAnYzi4c9v0D7APvH9cB525FJwCmHLd/Voj8YBQOrjnWGbFeR84LJqTarGsjk8x2V1fH7SiRwI8BXRmwI6egSJCtCkVi67BZ9NaSCUQm0MBgAS+/2RAhzwFPtBAE5DYMLk5Ie3hQ2mcHTVHwqiXFARomYP2NMiT0oS4mukIUAl0nEBXPTH9ye0iLteJobGXaFImr5A9P70iIxPuGvD/3shw5ElcNsbVoFxarshb4wmJWeEJHA46/52PL6vjIAQitzKtoANbIwHTQ2C6xsNaaaoTRIGO/EIm+/oFkV4QFRkIgVwFTXeNvCAgacNVFcloqIA04bnJBLnN/AH9ba2KoxbWUNERVXewDC3ThdcgE6uF8sA2OkykSkIXMRbuSC5dBUI4el6MnT6juInxGvvUZJVGIOEDaEGkaXPSphdQSC6hNq88EeTGZ35PNsHd11Er3BmactuZ3yplsSQgpHIrE1iBXNMJOtR6qIBZoBOML/XLdd76ZFImT0y/Icsft2nPNhvUe8o1ao1HHmhU7X3tdzU5pTV2NERGYehrdBpirAbkVaPR1+3AKSEGmSCCXAtKhq2+nkp+dJRNAV+42MEWEtQ4XRYIQh6FIbA3yzSWrVsOAJ+O5db8cDh+S67Z/R4nEfz44IscHfiiRiQbtuWYDjVy+4gTmzad7RBrQ5WBfjAsJlUhwRHcLcigQTShktcxiQHeHLpcCkQddfYtqDRhA70CtJV1SJAhxGIpE/VNIowqqIROYzyA08ric8D0q/34vJh+cXJLjs2+I4fmm9hyzgQYV7zdfcQJzC0sqbyJ2WL88OCIRVreKbnsnmV9cTnRVZORSoBtDVx9USyJqFYoEIQ5Dkah/CmlULSqdkd9sstJ8uRwN/U3eORyUEzGfxHt/IMuDT2rPLxt4r8W8XzTU6D5ALgUacUyDrYaJIifBlAzkJOi2cxqchy6XIpdIVKs7qlahSBDiMBSJ+qbQaIRFpUVieOQFMRrPlfhiV4LZXWLs+rCEQ8Pa8yMJGI0oHIoEIQ5DkahvCn06R/1KP+EiKXKp616J9t6eFIno4H2y4rl+w3lZowVIAkYjCociQYjDUCTql0KjEdWYYMialXi5/TaJDT6QFAmj5WsS8b6YPDf7kzcaT+v1rQyjEcVBkSDEYSgS9Ush0YhKLzSGKIT9/FZavysx769SInHwSxIZey1Znik5jE4wGlEsFAlCHIYiUZ/kG42oZhTCzmrzNRIbezQlEvvPl8jE3mR5tkZzqwqF21eYdTMUCUIchiJRn+QTjah0Y5RrWOZq06US8z2TEol958j8ZGuyfLOnb5Tb91fPsEujNCgShDgMRaL+2Gw1ZDRElQ6LbzbL5FrjhRIPvJASiT0fk7lgnyrLt+GsdnQC5zkSDmrLnKTSn129QZEgxGEoEvXFZl0abunKyGS94dMSD72SEIkFT2Lo53RCPgp9Aq+WUFgNfL5TcxcDoxGlQ5EgxGEoEvUFGppsDZDbohB2jN0flfjM2wmRmNufEInZaVVWrPzg/WYep1xkdhOV69iV/gzrEYoEIQ5DkagP0MBka7jdGoWwgDBAHCAQSiRMoTB2n5EsL6XxxLbljk5ku75OH5vRCGegSBDiMPUgEmi06vVJDV0VEAS8Rws0Tvk2UG5KqMwGujCUSCx4EiIR+oesN5yTLHfisy2XUGzWuDt53Hr9jlcaigQhDlPLImE99dbzDRbvLbNByYdqRCGKzQ1AUqWx58yERIDAC7LWeIEqc/opvNjrqSPf7iLUKVUm6vk7XmkoEoQ4TC2KhCUQW+UGa3+/+VDpEDiiEIWeox0M88RwT0skMAwUw0FRVo734kTDDgr97hV7zEp/nvUORYIQh6klkchsrLbSU5r9fW9GJa+LEyMUMPEUJqBKisTYo7LafLUqK2dkpRShKLbLqBjh2krf80pAkSDEYWpBJHQ33602s18hDVClGp5SohB2MBW2cfCSlEh4fy3zLd+q2PvAcXTnlY1S5aaQ68ZohPNQJAhxGDeLRLYb7laTCAvdtcikEg1PMQmVAE//aIQBPkOARnxo4FExWq5IicTggxLyXKc9drnAeeQTnXDq+uYbyamUTG0lKBKEOIwbRSLXE9tWlQiQz5NsuUViswZQJwq6/dgZ6fulRNu+mRSJaN+dEmi/RVu33OQSClxbJxt27Et3HItKSOFWhCJBiMO4SSQ2ayi3skRY6K6LnX6zoddtVyr5JFQW0/CNdd+v5oyI+59PiUT3reLrvENbv1LoGnknJcIim0w4LS0kBUWCEIdxg0jk86RNiUiwWUSgHI0PJEJ3rEwKlZiQZ3tCIgIvJiUiPt8kRtMXZHjg99ptKgmupRWdKOf3z34cC0pE+aBIEOIw1RSJ/BsoSoQd3TWyKFcDlI/sFXLsgaGnT89meSBdIpovlSnPDdptqkUlGnW7TLBLo7xQJAhxmGqKBG6YmY1RJqVmyNcj2aIS5WyANouEFHLs7rF/yNqeMyU28puURCy2u1IiKg1kgtGI8kKRIMRhqiUS+UQjKBHZ0SUElvtJNldUIt/GzzN5QBYb/0ei/XfbJAJ5EbfIwv4LtdsQ4iQUCUIcploisVk0ghKRG12EoFyJlhZORELCh66UaNeN6RLRsV3Jha4+IU5DkSDEYaolEroGyYISkR/VSNDTRSXyPe6U53oxPFenS0Tf7RI5cJG0Blq02xDiNBQJQhymGiKRq1uDEpE/mRECXR2nyTxmvtEIX9edYjR9USVUWhIRG/65rDScLZ0Tb2i3IaQcUCQIcZhqiES2bo1y9/HXI1aEoJLXzh6VyKc7xdv3azEaPinx0M6URIw/pUZt9Hn/rN2GkHJBkSDEYSotEtmiEZSI4rAiBJWM5NijEpt1awwMPaOEIeZLTTgVD74sxu6PumKuCLL1oEgQ4jCVFgldNIISURqIEFR6yCCOudnn1j32yulhnr9NScRsgxj7Py9j3fdptyGk3FAkCHGYSosEJcJ5ECGotEhsdkyPv1EWG8+X6MA9KYlY7BSj+fKqraNBCKBIEOIwlRSJzG4NSkT9Ej54hUS7brJJRGKY50zztdr6hFSKiotEpS2fkEpTSZGwd2tQIuqXhf1fyDLM80vSGmjVbkNIpai4SOCGh7HaVh8kxYLUG5USCXs0ghJRv8w1XSrRtm+Z8tCRlAhrmGfHxFvabQipJBUViWzZ5Xax0G1HSC1RKZGwohH4l7+deqRbQq3bVA5EPNKalAis7MlhnsRNuEIkMoFYVCPZiRAnKEYk8H3XvZ4L/FYoEfVJa6BZTX1teK6V+EJbSiLmD6llwie679ZuR0g1cKVI2IFU8EZJaolCRMKaiKjQrgn8ligR9Um7b69Emi6RaMd3UwJhEvM9K8aej8lM8zXa7QipFhUVCfukK/nCGyWpNTYTCfwOLIGwKHTyo5FwkL+NOqRz/PXESp7dt6ZLxNhjqjvD2/ewdjtCqklFRSLz5rkZvFGSWiSbSOT6/hf6Xedvo/7oGf2rrDScI9G+n6RLhPdXSiIGB3dotyOk2lRUJKzksHzgjZLUKnaR0EUfdGTug2wt+oefk/XdH5XY4IPpEjH4gKzt/pgq121HiBtwpUhQIkgtA5EYCwa1320dheZHkPpicPDxxNoZ3ofTJCLad4es7P20ilTotiPELVRUJHQ30Uz6Z8a12xJSKyREIv9uPIrz1kWt4gmJGNuRLhHdt6hcCeRM6LYjxE1UTCTyGbFBiSD1gNW1gRFHuu95JhSJrclY9wNiNJwpMb9tFU9IRMd2mW/6srT59mq3I8RtuEYkKBGkXrBEIp9RSuzW2Jr4Ou8Uo/Fctfx3UiIirWoa7PChr0troEW7HSFupGIikeumWsl1/wkpN/Zky80SLfnd33pgpU6j6UKJT7+RkojwPjGaL5VQ67e12xDiZiomEtluqLyRknrDLhLottB97y3YrVG/4LMFeIiymG+7UQlDPLw3JRGmUBhNX5BA203a/RDidqoqEpQIUo/YRQLkikrYtyO1QaYc4PMFyInJlhcTnp2WlZbtiRU8Iy0piQi+LEbjZ8TXcbv2WITUAhUTicyhn+wbJvVKpkgAXQPD30DtUcw0/+HQmKwe+rpEO76TEgjgf16MhrNkvPs+7bEIqRWqIhK8gZJ6RicSeHK1Ny6A3Rq1hbW+SebnmIu5YI+sHviSRLtvTpOI2PgTatjnSN8vtccipJaomEhYPyxKBKl3dCIBMrs4KBK1RaESMe9vlrV950m078fpEjHyGyURQwOPao9DSK1REZGwwoGUCLIVyCYSEAerkeFvobbQRZRyERnfLet7Pi6xwfvSJWLop7K+6wwZGH5GexxCapGKiQRvnGSrkE0kgBWVYKJx7VBoXkRk5JXTU17/Mk0iov13yWrD2dI78qL2OITUKhURCTyJMYxLtgq5RAIg8ZK/h9qhkC6NheE/np7y+tF0iei5TZYaPy9dYzu1xyCklqlYjgQhW4XNRAJhct3rxH3kGrqbyeLADjF2nyEx3zPpEtF5vUQOfEnafXu0xyCk1qFIEOIwm4kEqQ0K6dJY6v2VGHvPlnjgxZRELLSL4blWwoeuEE/gkPYYhNQDFAlCHIYiUfsUMtQz0nW3GPvPl3hoZ0oi5g6I0Xy5TLd8S5qnurTHIKReoEgQ4jAUidonX4kIt90sxsFLJD67OyURM2+L0XSRBD3f0+6bkHqDIkGIw1Akapt8hnpOzk5JuOVbYrRcKfH5gymJmHpFjMbPib/jh9p9E1KPUCQIcRiKRO2ST17E2FS/hA9eLtG2baY8dKYkYvLPYjR8Uia679Hum5B6hSJBiMNQJGqXzbo0hicPSuTARRLt+l5KIExiE0+pYZ+jvT/X7peQeoYiQYjDUCRqk1xDPSEYA+NvyBKmvO79YbpEjP5OScRw/++0+yWk3qFIEOIwFInaI1eXRv/MuPR6/yKrDZ+Q6MA96RIx/HMlEQNDT2n3S8hWgCJBiMNQJGoL7VDPuQWZntgj/p4HJXzo64nZKocfSpMISAXkos/7Z+1+CdkqUCQIcRiKRG1hScS8r0kW+x6RlZZtsr77o2LsO1eiHdsl5v2VxEOvpUtE749UN0f32CvafRKylaBIEOIwFInaQQ31DM/JUufdYuz5mE0cbJNLZRDtulEi+y+SDt8u7T4J2WpQJAhxGIpEbYAuDSz3vWpKgeH5hppISicOSQIvSrR9m8wdvFw8k03afRKyFaFIEOIwFInaINL9s0Tuw1B67oNdHGKD95uScbUYe86Ulb2flkDbTdIc7NDuj5CtCkWCEIehSLib7tG/yfLBr6q1MOKhf6TJQ8z3bJo4hFq/IyN9v5Ku8de0+yKEUCQIcRyKhHsZ635ARSGiA3enCQRAAiXKRvp+SXEgpAAoEoQ4DEXCfXSOvyHhQ1eK0XSxxAMvpEuE+bdx8GJVjnq67Qkh2aFIEOIwFAl3ga4JFYXo/VG6QJggMoEyRCp02xJCNociQYjDUCTcQZt/n4Ratomx//MS8z2TLhFYpbP5cplv+orKmdBtTwjJD4oEIQ5Dkag+QwOPJqa07rpR4pGWNImIDSVGa/i67tRuSwgpDIoEIQ5DkageLQGPBD3fE2Pv2RIbeyxNIOIzb4nhuUYW9l/Iaa0JcRCKBCEOQ5GoHrPNV0m04zsSD+9Lk4iY92E1pHOy4zZpnurUbksIKQ6KBCEOQ5GoDoODT6n1MeILnpREhBvVtNdYF2Ng6GntdoSQ0qBIEOIwFInqEDlwscS8v0xFIcYeF2PvOaqrozXQrN2GEFI6FAlCHGZgckK6A15tGSkP3r6HxWi6KBWJiHjE2PdplXSpq08IcQ6KBCEOMzTpk87AsLaMOE/zVJcs7fuMxMZ2JEUi2n+3ypfQ1SeEOAtFghCH8foD0h4c1JYR5xnvvk+MlitS0YjZBjF2nyG9Iy9q6xNCnIUiQYjDjPmC4pnq15YRZ/FMHpC13R+TuP9PqWhE9y0y5fmutj4hxHkoEoQ4SPNUnykSU9Ic6tWWE2fxd/xQou3fTkUjMGPlrg9zzQxCKghFghAHQSQCEQldGXGWzok3lDTYlwKPtm9TcqGrTwgpDxQJQhwEuRFe/6S2jDgLui/QjZGMRvifl7U9Z4pnsklbnxBSHigShDgIRmtg1IaujDhH9xi6MD6iEistkcAiXGPd92vrE0LKB0WCEAfpDozIwOS4tow4x/DA78RovTIpEVhXA7NXNk91a+sTQsoHRYIQB8GslkBXRpwDkYdox/VJkYj23Ca+zh9r6xJCygtFghAH4ayWlQGLb0X7fpwSifZtMtr7kLYuIaS8UCQIcRDOalkZplu2SWz450mRMJovlcHBHdq6hJDyQpEgxEE4q2VlmG+6VGLjqSmxjcbPcSZLQqoERYIQB+GslpUBiZXxwIspkdjzMemYeFtblxBSXigShDgEZ7WsHOu7z5D4zNsJkZg7oCamagm0ausSQsoLRYIQh+CslpUBE06pGS0jLQmRCO2U1YZPaOsSQsoPRYIQh+CslpWha3ynGA2fTHZrYEbLxcYLtHUJIeWHIkGIQ3BWy8rQ5/2jGE0XJkUiNvo7CR+6QluXEFJ+KBKEOARntawMG2a1HHyAy4YTUkUoEoQ4BGe1rAz6WS1v19YlhJQfigQhDsFZLSsDZ7UkxF1QJAhxCM5qWRk2zmp5GWe1JKSKUCQIcQjOalkZOKslIe6CIkGIQ3BWS2fomB6SdhNdGeCsloS4C4oEIQ7AWS2dY3JuVmbnF6V/ZmPiasfEW9pZLVs5qyUhVYMiQYgDcFZLZ0A0AhJhEQjPJqMT3r6HlUREe36YjEYkZrX8+Ib9EEIqB0WCEAdoOR2RwL+6cpIfVjTCTnh6XGY83xWj8TyJ+f6QkgiT2NhjEjlwkXZfhJDKQJEgxCGG/By1UQqZ0QgQGfm7rO89V6KdN0h8/lC6RAz9VHVrYIIq3f4IIZWBIkGIQ/QERjmzZQnYoxHh8Kwsdd4lRsMn1BTYdoFAfoThuUYW9l8ofd6/aPdFCKkcFAlCHKItOCijvoC2jOTGHo2IjO+S1f0XSbTtWonP7kmTiNjIb8XYc6ZEOu+W5qku7b4IIZWFIkGIg0AkIBS6MifpmxlLS0SsdaxoxFLPz1V3hX3CKcV8k0Q7vitr+86TyOirqm49vX9CahmKBCEO0j85rro4dGVOApGwnuDRoOrq1AqIRsz7m2X14BViNF8u8dCraRIRm3hKjMZzZbn9NgnP+JPvG0BAdPskhFQOigQhDoJky2G/X1vmJHaRALX8dD416RFj10ckOnB3mkDEFzsk2n2rrO85UxaG/5T2fi0YkSCk+lAkCHGQSg0DzRQJi1oTipFwQJZ6f626LdIkYvLPYjR9QVZat8vcVL/2vVIiCHEHFAlCHGbI7y/7MNBsIgFqRSasBMvVg1dKbOz3SYmI9t+l8iQWB3ZseG8Wo7NMaiXELVAkCHEY5EggV0JX5hS5RMLC7UKB/Ibw9JiShni4MSES883q7/nJVu17AsyLIMRdUCQIcZhKDAPNRyQs3CgTVjQi4n1JjENfSUYjkFi5euCSDe/BghJBiPugSBBSBso9DLQQkQBui05Ywz2X23+oujKS3Rrdt8hS94Mbzt+CeRGEuA+KBCFloNzTZRcqEha6FTUrjX3yqfXdZ6YN9zT2f14iY2+nnbMFJYIQd0KRIKQMYCVQrAiqK3OC4kWi+lN4W9GIpd5fiHHokqRExOf2q2Ggs3PzG86byZWEuBeKBCEO0xYccFWOBBphNwgEsKIRYfOc1hvOltjE0ymRCL4sa/s+u+H8mRdBiLuhSBDiMN0BrwxO+rRlTpGPSLjxKT4Zjei6T6Jt30pJxHyTGHs+Kot9v017D5QIQtwPRYIQh6nENNnZRMJN0YdMrGjEvM+UBgz5DL2WFIlo5/Wy4rl+w/thXgQh7ociQYjDeP2T0hEsbwOYKRJuFggLKxqx2nxt2kiNmO85lXQZDnnT3hMlgpDagCJBiIM0V3CKbDTMbpcHCysasTD0RzEOnJ+UCGAcvGTDLJZMriSkdqBIEOIgHcFBFZHQlTlJrT2tQ3rCs1OyvvdciY3tSEUjhn4qq02Xp0kE8yIIqS0oEoQ4SE9gRAbKPD12rWFFI1Zav5ueYDnbIMaej0lkfBclgpAahiJBiINgtAZGbejKtiqQg4Wh5xMJlvMHkiIR7bxBljtuT0oEYF4EIbUHRYIQBxkp89TYtYYVjVg9dJXERh9JRSNCr4qx+4y0BEu7RGB5cUoFIbUBRYIQh2id6leJls2hXm35VgTRCEjC2v6LJOZ7JhWN6LpJVjy3JCXCSq60kkgzxYIQ4l4oEoQ4BNbWGPb7tWVbESsaAdb3fFzioZ1JkUBuxFygW5VBHFAXUQirPtDtkxDiPigShOQJnpYt8LSc+cTcFzDLTOyvbXUgB3OTHjEaPpGUCEyFvd5wTlIiMgXCel23P0KI+6BIEJInVshdB5bpHp+ckpGpqZyysRVZGHxWDM/VSZGIDf9CVlqv015HC84jQUjtQJEgJA/sYfpsID9iOrygLdvKT9jhtpsl2n93UiSiHdfJYt8j2utkQQEjpHagSBCSB7rwu53QbETG/SFt2VYP0y/t+6yaBtsSCWP/5yUysUd7rSwoEoTUDhQJQvIgV7cGCE7PiS8ws+H1rR6ib/ftScwfseBJiES4Uf2NWS4zr5UF8yMIqS0oEoRsQj7dGv7grARC4bTX2M/fI/6en0m0NZUfEZ/dLesNn0i7TplQJAipLSgShGxCPiIxMRmSqZn55N+UiER30FLPLyXa9s2kSMQmnpLVA19Ku3aZ9M9w5AshtQRFgpBN2KxbY2YukWiJf/F3razIWS4wYsW6Nksdd0q07ydJkYi2f1sW+36TLNfB/AhCaguKBCGboGvs7IRm51VEAv+/lSUCkZtM6Vo9eKXExh5LioTRdKFExt5Kq5OJbt+EEPdCkSAkB/l0ayA3AjkSW/lJWjeqZaVluxi7PiLxmbdPi0R7ItEylP2aMj+CkNqDIkFIDjbr1gAYrdEX3Jr9+vZuDDurBy+XaMd2NUrDikbE5w+ZInGGtr4FRYKQ2oMiQUgONhMJlI/6g1tuxU8IRLZrszD4jBh7z5Z45PSQT4vQ67Le8EntNhZMtCSk9qBIEJKFzbo10JD2To2K17+1RmjkmpwrMr5LdV/YJ6CKL7RJbOxR9fpS90+121kw0ZKQ2oMiQUgWcjWYkAg0egOTE9ITGNVuX29k68awmJvql/W950rM+8uURIT3idH4GVnb/0WJjL2m3c4C11R3XEKIu6FIEJKFbKF7q8FrnepTwz5bzQY0c9t6Ilc3hp3VQ1+XaM8PUhJhYjRfLsvtt2nrW2DfW33ILCG1DEWCEA3ZujXsT809gREZnJxI266ewDXYbI0Ri+WOH4nhuSZNIqJdN8pKyzZtfQsKBCG1D0WCEA26MH7mbJXIjegI1m+ffr4SgZU8jQMXSHy+KSkRscEHZK3xQglP67tDOPMnIfUDRYIQDZmh/MyGDwKxFZIskQdivw6ZRLwvJ+aKCL6ckojxJ1Ri5byvaUN9XEcmVBJSX1AkCMkgs1tD9/S8lZIs0fAHwhtzJOb9zWpeCPvMlfHQP8TYc6YpGC+m1cU1ZDcGIfUJRYKQDOwioWv8tkqSpZ1MmUC0Aat4RgfuSUnEvCkWTV+Upd5fJesxkZKQ+ociQUgGVrdGtgaw3pMsc4G8icX+xJwQmBsiKREm0bZvyXLb95MSQYEgZGtAkSAkg80awXpPssxGz+hfZa7pUjEOXSLxyT+nS8TAvbJ64GIJh8MUCEK2GBQJQmygWyNXMiAEYmSLzWTZHOoWX+cdKgoBYbALhAJ5Ebs+Ij7fAe32hJD6hiJBSAFspSRL0D/8jCw2XihG69eVMGwQCPP1tT1niq/nIe32hJD6hyJBSJ5spSRLT+CQBNpuUiMw0qa8Pg0iE4hQ+Dp/LM1TXdp9EEK2BhQJQvJkqyRZDg88KisN50i04zsSn92dLhGTfxbj4CUy33Sp9Iy8pN2eELK1oEgQkif1nmTZ4dsloZZtYjSeu2FERnzBo9bRQBRirPsB7faEkK0JRYKQPKj3JMvR3p/L+u4zJNp9i8TnD6VJRGz8STH2f15mmq+RzvHXtdsTQrYuFAlC8qBekyy7x16R8KErxGj6gsR8z6YJRDzcKNHO62W14ePi7XtYuz0hhFAkCMmDMV+w7pIsJ7rvTgzp7LszXSBMYiO/EaPhkzLl+a60+Ru12xNCCKBIEJIHo6ZIeOpEJPq8f5bIgYvFaL48bbEtxfQbYniulaV958ng4BPa7QkhxA5FgpA8GPEFTJEY0JbVCi1Bj0x23KaiELHBn6YLhEls8EFVhjqoq9sHIYRkQpEgJA+QaNkWHNSW1QKILiDKgGgDog5pEhH4qxjNX1VRCkQrdNsTQkg2KBKE5IHXPyntNSYS3aMvy3j3fRI+eLkYDZ+S2Mhv0wXCBPkRiEIgX0K3D0II2QyKBCF5AJHocLlItPv2ynD/7yTkuU5WG84RY+/ZEu3YnhCIucY0gcAIDYzUCB+6Uo3c0O2PEELygSJBSB4M+/2um4wKU1P3ef+kpqlWyZO7Pqy6KKID90g88FKaOCSZP6TmisCcEaO9v9DulxBCwJ6RSWn0ebVldigShOTBkN9nisSwtqySdI6/ISN9v5CZ5m+YMvBRMRo/J9GumyQ2vsOUhCa9PIAFj5qtErNWhlq3SYdvt3b/hBACGv1e+VtbXN4cnNWW26FIEJIHg5M+6QxURyTQ9RBov0WWGj8vxu4zxPBcLbGhhyQe2qmXBovQq2a9n5n1rxIs873Y+D8yNPCo9hiEEGKHIkGIw0AkugKbh/icxuvbK+t7zpRo7w8l5ntO4gvtemkAcwckNrZDol03itF4ntou0rpdRvp+KR0Tb2r3Twgh2Xi1Z5kiQYhTYNXP7gqLxOTcrKwe/JpE++7QiwMIvCjR/rvFaL5U5UisNn1VlnoekshEg7n9jHa/hBCSL8iTQGQiV64ERYKQPBiYHDdFYkRbVg46podkqeNO1Y2RJg6zuyQ28rBE27+tprBe3/sZWW6/TSLeFyQcGpHZ+UUFJES3X0IIKQRLJHaPTmrLAUWCkDzoD4xLTwVFIjzwpEqMjIf3JiVCRR4QdWi+Vhb7fifz/uakONiBRLSbIqLbLyGEFAIjEoQ4RF9gTHortPrn5PibShhUTsRpiYhNPKVem59s1cqDHUoEIcRJNhsCSpEgJA8SIjGmLXOSrmC7rO3/olr3wpKI+MzbambKheE/a8XBDiWCEFJpKBKE5AEkAjKhK3OSJc/3JNpxXUoiTIyWr8lS9/1acbDTPzOu3SchhJQKhoPuGfVryygShORBT2C07CLh73lQTVsdj7QkJSLa8wOVE6ETBzujswHtPgkhxAneHJjNmitBkSAkD5Bo2T9Zvif+gaFnVA5EPPhyUiJio4/IesPZEp7q18qDBUdoEELKDUWCkBLBHBIDkxPaslLp8O2RVVMYYt6HkxIRn3pFiUVkdKdWHiwoEYSQSgCByDY5FUWCkDyASGBSKl1ZqUSaLpNo9/dTErHQLsbBi2W+95daebDgME9CiBugSBCSB5geG9Nk68pKIdJ0iVqxMykRJtHOG2S65VuqHKIQCM9qRYISQQhxAxQJQvIAC3Y5LRLj3feq2SnjC21JicBiXEuNnxPP5MEN9e1SQYkghLgFigQheYAlxLGUuK6sGHpGXkokV/qfT0UjwnvVa73ev2i3saBEEELcBEWCkDzoCA7JsF8/hrpQPJNNstR4vsQGH0hJRKRVjENfkVDLNu02hBDiVigShORBR3BQvP7si9YUwqIpEdHO61MSYWJ4rpK5psu09QkhxM1QJAjJg3aHRGKx8QKJdkAiOpMSEe39oUSaLtfWJ4QQt0ORICQP2kyRGPGXNnvkXNOlpkRsN+WhIykRsbHHZL3hE9Lh26XdhhBC3A5FgpA88EwNyKiveJGYaf6GGAcvSZv+Oj5/UCVXjg08qt2GEEJqAYoEIXngmeo3RSKoLctNtyw1XihGyxWmODTZJKJJjIazZcVzPUdhEEJqGooEIXnQaorEWIEi0THxpiwf+JIYnm+a8pDqzohP/kWMPWfKsud7nOKaEFLzUCQIyYPWqT5TJKa0ZTqC3hdV7kO07/aUQIDZvUoiFgee5MRShJC6gCJBSB70BsZkKI+ZLUfCAVnse0TlPmD1zjSJmH5DjL1ny3Lb95VEMBpBCKkHKBKEbAImo0I0AgmXunLQNzMm4dlpUxJuEaPpCxIP/i1NIqID9yq5WOq8K7lWRr+5jW5fhBBSS1AkCMlBc6hXvP6AWv1TVw6BgBTMT7bKatOXJdr+bYnPN6ckItKqhnyuHrhY5v2HkhIB2K1BCKkHKBKE5KA/MC4DmuXDLYEAEe+LYuz6iEQH7k6LQsSnXhGj6SJZ8dwo4dlgmkSwW4MQUi9QJAjJQmfAq+aOaJnqS74GgYAEWEKw1PNzMRrOktj4E2kSERv7vRi7z5Cl3ofTBMKC0QhCSL1AkSA1BZIZda87TWKURlAtH46/MwUiPO2TldbvinHoyxIPvZYmEdG+O2R9z5kSGfl7mjxYMBpBCKknKBKkJugwn+CthrwSSYqDkz7pC4xtEAgw72uUtcYLJdp5gykOtvkh5g6I4blWVpsul7lAR9o2dkZnKyNDhBBSCSgSxPXY8xEq0RB3B0Zk1B+UQIZAgIWh5xJDOwcfTAkECLwgxv7Py3LHj2R2bn7DdnbYrUEIqScoEsTVoCtD1xjr6jrBYGhCDfUMzW6UgaWue8XYd47EfM+mSUTM+2slF4v9j23YJhN2axBC6g2KBHEl9q4MHU50b2DFze6xVxUD42+K37dPgiNNEho7JHOTnjRWm68Vo+VrEp/dlSYR0e7bZH3vuRIZe1N7npkwGkEIqTcoEsR1ZHZl6Ci1eyPQdrOKImCmyXyIdn8/TSDis7vVQlyrzd+Q8NSg9hwzYTSCEFIN9oxMKhp9+vlwSoUiQVwDohDZujJ06PaRD6HW7WI0Xyrx8L50OciTmO85MfZ9Wpa67tGeVzYoEoSQStPo98rf2uJJdo9OauuVAkWCuIJ8ohCZFNq90RJsk9nmq8XwXK1mnNRJwmbEhn6mIhnhgackEJ5NgghJJv0z42mwW4MQUkkQhbBLhMXOnmV5a2C2oAgFhGTPqF9bRpEgVaeQKIQdNNa6/enwTB6QuabLJNr+nXQx8D1n8kxeRLu+J0uNn5PekRe0xyCEELeQGYnQsbN7WbutDkhJtvoUCVI1NkuozAfdfjNBUmVk/0WmCNyYLhFjO1R0YXn/V2S16VKTy5IsHviyRA58KY2g53tKSHTHIIQQt5ApEdkiD1a9zO4ORCveHMy/K5YiQapCMV0ZOjbr3uge+4cs7TtPor0/SpeIkd8oiQj1/VmmZtKHerILghBSq0AO0HVhScRmORFvaro4EH0oJJeCIkEqTrFdGTpydW+gC2K14ZMS7U9fTCs29JBaByM0+KpMTqUiIoiOUCIIIbVKvpEIp6FIkIqhm27aCXTHGhh6RrAiJ6TBLhFYoXO94RyZHmmQiclQch+F5FsQQojbSEQR/KpLApRjdEY2KBKkIjgZhcgks3tjaOBR1W2B7os0iej9kaw1XiChsWYlEaHZiNqeEkEIqWWsSEQheQ1OQpEgZcWJhMrNsIvASN+vEhIxviNdIrpulNWmr0jI150mERiWaT9fQgipJRCJwLDMSkYgMqFIkLLhVEJlPuB4Y90PiLHnTMGQzjSJ6PiOrB66WoKT3jSJYD4EIaTWQbJktSIRFhQJUjbK2Z0BEImwJnsKH7pCLagVD7yUkoiIR00+tdK6XQLBYFIimFRJCCHOQZEgZcXJqIRdHOzHmMGCWs2XS3z+YEoi5hrN1y6TRc/NEgiF0yTCvi0hhJDSoEiQkkEeRK75HPD0rxODzcgmDnYGBxOTSsXDjSmJmN0jRtNFstDx4zSJYFIlIaQeseaOYLIlqUkgEWj0N5sYCjKBNSkyZcFOPuJgp3vsFVnffYbExh5NSQS6Mxo/J3Nt30+TiHz3SQghtQZHbZCaxZIIkM8CWpkyUag42PFMNsli4wUSHbjHJhGtYhy8WBYOXpEmEcyHIITUOxQJUnPYJSJfkbBwIjoQOXCRRDtvSEmESbR9m4Sbv5WUCP/MDCWCELIlqNQsljooEqRgMiWiUJEolYX9F0q047p0iei7XRaaviy+wGRSInTbEkIIcRaKBCkInURUSiSap7pl2hqhsdiRlIiY91dqTY3geJtM+EMyMh3Ubk8IIfUMciWwcmeloxMUCZI32SQClFskPIFDEj50pRieayW+0JaUCDXME6t4Dr2qJKJ/2qfdnhBC6h3McolciUrPckmRIHmRSyJAOUWiw7dHIgcukWjn9SmBAKF/iNFwpiy03CDjpkR0h0a02xNCyFbAEglGJIjr2EwiQLlEomvsVVlq/LxEe25Lk4jY2GMqEjHTdqeM+acoEYQQYlKNkRsUCZKTfCQClEMker0vyGrDpyTaf3e6RHgTC3NN9j+nJMIzNaDdnhBCSPmhSJCs5CsRwGmRGBh6OrGK59BD6RIxeL+s7f6YTAz91ZSIICWCEEIyQNJlJbs3KBJESyESAZwUieGB3yUkYvSRNImI9t0hK3s/LSPe12SUEkEIIVqwImglcyUoEmQDhUoEcEokRnsfSkjExFPpEtF9i5rJcnh0r4z4A5QIQgjJAkWCVJViJAI4IRIT3XeL0fBJiU/+OV0iOrbLfNOlMjjeSokghJAcWAt4VXIYKEWCJClWIkCpIjE08KgYjZ+R+NQrKYmINIvhuVpmm6+WPl8fJYIQQnJgLd5lpxKjOCgSRFGKRIBSRSLQdmP66IzZBjGaL5VQ63bpDYxSIgghJAf2SIQlEKAS3RsUCVKyRACs6tlnygQWybLQHSsbYz0PSrTtm0mRiHkflvDByykRhBCyCZmRCE5IRSqKExKxGZAMMBIOKCAcdunAeXSN7RRjz8dMiWg/HZHYo5IuJ8b6KRGEEJKFzEhEpafHBhSJLUwlJKIQVhsvkJjv2WRUwjh0iYR6n9eeOyGEkJ6qSwSgSGxR3CYRYKnrXol235oUiWj/XRJpuVl7/oQQspWxIhGQB3RlVLo7ww5FYgtiSUQ4siQLy6uyvGZI/Mgx9S/+xuuZjXyx6I6xtLquXltZj6q/I0srMrewLJGxN8XYf35SJOKBl2St4Wzte7BoNmmfHZSe+REZX52S4eVJ6YmMqr8HFsfFa/7dNeeVttkBs26vdh+EEFJrVHquiFxQJGoMNIZoFPsWxiQQDcvi8TVZeycuC8fWxL8+I71mI+qZ6c/aaNojEWi8V83GHA38B//8l/oXf+N1uwyUQuYxDh89JrHDR2U9GpfjJ96Ro8dOyMpaVMnE7Ny8GLs/JvHQq0mZMPadK70jL2jfC2ie7lXveXQ1qK7D/NFlGV8LKamYjkdk6fi6jKwElFigrm4fhBBSa1AkSFGgIeycG1YN4/IJQ46+f2IDaDjxFN4RHtrQcGZ2ZyAq8N77H8jA4JD8r//nf6t/8Tdet9crBd0xIBRHTKH4/aOPy0t//VsyUoH6K57vSWzwwaRIRDtvEF/nnWnvw06rKU0QhoixJNu2XyePPvmEug5HTP7+xk656777xBeZUnLROtOn3QchhNQaEAg1xHMgXHWZoEjUEIhEQBIOv3dcphZm5We/+qVc8IUvqgYa/z7xzNMyt7YosXePyvCyX9W3bz86G1BYoyjCS4uqUc9s5BdX1jYIQbFgX7pjHD5yVO648y4lE3Hz/9HNgfoLQ8+L0fK1pEjExnZI5MBFae/DDqIvkaMrWpF47oU/y7brrhP/QkhFaygShJB6A3kS1Vg63A5FoobojYzJ6smYjAYn5KtXXKkazn+8+bq0drerp+/LLv+aXHHV1eKbCUj03SOJEL8J8ga65oaVWCBSgf341qclGJ1TjW5Hf7dq5Dv7e+X4B+/I1Oq8+BanZSG6KmFTTGYXFyQUmZeZhYisrsfkyLETcvKdd+X4yXdUN8XSynqyOwT/Li6vSTR+RI6deEfe/+CfWpE4cfKU+hegLvImIosrsro4JacmHpZ/nlyQf55ak3ePBOVI29elN9CoumtapvvUe/AuB2T28KK6HngPmSIB2Yq/d0z9/1RsXoaWfGpb3XUlhJBaBSKxs3tZW1YpKBI1AhpRSMHhd4/Jbx97VK755rdkejGsGkoL/I3XUY566OZYP503MLTkV0mH/QvjSiIQtUBOAbazRAL/4u9QLCJzR5bVtlOxObXtwOKEeqrHdqgD4bBYORoV//KsTC7MSGh5XmJHj8h7//xAYclCpkhARKwydG2sxw6LYXLq3ffl30fH5L/vLsh//3VC8f5Sg8xM/k116yDXAedvSYJFpkjYQdcH3kMLcyQIIXUGRYLkDfId0JCvH4/J3fffp8D/o6FcPRlVDSvk4cnnnlFlS/G1tMYVAoDtF46tytiUX7705Utl59tvqO0zRQJYUY8df3halo6a+zK3w1N+S1e73HDTzfKRj54pnznv8/Lwo7+TheiykhbsH/VwXuhWQPmZH/+k/OTee9Wx0iMS78j9D/xUgf9/9733VfTC55uUu+/8oZx11sflLHPb+++/V1bCA3LK6JKJtWmVYIpui+bONvn6Nd9Q+7x22zZ5Y8/bcu23v50mEvh/vH9cB8gE8il015YQQmoVigTJG0QkxlankhGJCy+6WDoHe5ONJjh8+indOHVY/Zv5lI4QP6IMm4lEeDUi1990k9z70wdl9WhUSQL2uXPXm3L2OZ9RuRjoTnndbLyxn/t/9tOk1MRPHZUnn/2DEgir3jN//qOSChyjZ6BfKxJ4rae3Xy648Ivy8K9/KT0HX5SW5kbZvn273HLzjRKbPWjuP/H+PD0dan8/uvMOOdjeIm/t2yNXX/tNtf9sIoE8CuRT6K4tIYTUKhi9AZHgPBIkLxDWx3BPq6FHY/3gL34uPcP9Ej15JNmAQhbwb6ZIhI8sqX9ziYS1b4D/x9P/3NFlmTMWVaTj2b/8Sb2G7cCuxgY5/4IvyJBvRP09MO5VjfxL//hbWr39rQeTxzj1z/c2iMTJd07JjieeUsmX+Ps/hwflv++tyvhIv5zz6XOl6+BLZp1lWT68Jrf84AdKIvD/1v5DC7MqQpFNJBC1oUgQQuoRa60NzmxJNsUzO6CSBhEdQKTgL397SS665MuqgbakAqM5rIa0UJHA0z2iC5AIK/8C8zMMmsdE3gT+zsQuIfj7lTdfU/vGMfB3tjyMYydObIhI2Pn38ZD85+S0hGd88pWvXCp73nxR/nnEa+7Xp96zde7Zoi+AIkEI2QpYIlGt0RsUiRoBORIYrTC85Fd5DlZjibwFf3hKdSdgCCga8R7vgLZx3UwkfvDjH6vch8eeekJ1URx5/7hKUsQxEQmJnjwsbzfuUUMqUQ/bWFiCYG+8kZcxshJMO4ZVD10h9z3wYJpIvP/BB9Ld0yu33oYciU+k7X/Prp3yn7h5DTL2g+4ejNygSBBCtjIUCbIpGLqIGRwn1kISPXVEdV+snIhK/N3U6AWE97dff0MyETOzccXoDfybTSQQiWg42Ki6KpraWlTZpBGWmcMLSiweefwxtR26M9Dtgf0f8BxKa9gLEQmcJ2QCIoFEy52vva5yJP7x6muyuDAvh8OHZHykVy655MuyZ/cb8p/DA6ZoNG0QiTWKBCFkC/HWwKzCnhfBHAmyKZgDAkMxvf4x+e6NN8qepkbVWGKGSwzV1DWeusYVZBMJT2+nymvAiAuM2JiYnkxug7kpvvLVy5PbWGQKAro2UA/18ffaO4kkzMx6lkjcc//9qpsjFj8s199wozz19DPJuSf+c8Qr4cmuRNeGKRL/PbUgodF9qmsDozTUft5h1wYhZOtgdWOAaidZWlAkagQMXcTQx7nVBSUSGFKJPAmr0QRIPkQS4g/vuENWjqzL2rGo3HnvPckIhVUPyZkYfZEpElYjj9kxv3fzzclRG3jNkg+IgrUfSMerb72etq13clyNKMHrmUmZOpEA0eOHJRqLy/brrlcJl5ZI/Ov4tPS2vq6SLZVIvG/IyZUuuf0nP9nw/ifDISU/FAlCSL2CKIQlD24QCAuKRI2Arg3MUInGGZED5EOgkbRmtty1f6/cfOutasQEhkdajelfX31F5TM8/vSTyaGYeKLHa9lEwnoN+7KEAI02GnAcF/vY19wk9zxwfzJXwto22/BPbIe6OpHA/x9594Q89vgTctbHPyVPPPm0eNra5fe/+62cddZZav9KJN5bk38fHtAO/8RcEp/41DlZRYLDPwkhtYwVicC8EW6SCECRqBEwjwSSLbGqJRrJYGRGJUVecullqqFFw3rnPXfL4MSIavjVQlYZk0OhIYdsHOpoVQ1sNpHAvBGYr+Kp559V23UP9anXMfHUw79/REkCXsdkVO19XUpMrEgFpua2HxN1ET1Ag4+IRjaRwGvxE0flhRdfkvM+d74Sinvve0Amev4h3/72t+TJJx6T/3xwRD6ImMd57+iGCan2HjqgjpNNJDghFSGklrF3aQBGJEhRICqBNTMSIxXSuzUsMBwSU2n3RcbUtNah2Ly2HkB+BUZyWKM5kIOBlUWxHaahxr4wfBOvTxqzsngsNW9DJvPmEz+GiiJqMhNf0NYB1oiTTJFArgPO4+QHqamzwb+PeOW/7y3Lv9415GR8Uo723iwLiwMbpsi2wHXxrc+o80dyKc4f54VEVS4jTgipZaylw0G15ozQQZGoMRCZwHwSWHjLbzbuaJgxggNRBEjDoCkB7bODal0JPIF3n16bAqF91EGDj+2Qb4EVQjEvBYZ4YgEvCATW40BiJ7aDVASMsNonGmKs0wGhQKQDx8WiWdg3tsU+sG17eDB5TBwLw0YxoRWmz0Z9SAkafCt/49e/e0RFP/B6j3kMJTDHDwsW9Tp6/KQcC/xFTi3skZMxvxxdHZJY5/WyMP7X5KJdeE84H7wfnJvXFBnsB9cHUoMIDibywjVp1lxPQgipJfaMTFIkyNalMzxkisKMWsfjhb+/rLo+kMMBsYAA2OuOhE1RmDdFofdhiXZ+L7mseLT3h7LU/YD0z4yl1SeEkK0ARYJsafoWxlQEAQuBIV/jgYd+pvIuEFnAyp6Z9QPhWYmM/F2MQ19JikRs5Dey0rJNRmcDG+oTQki9Q5EgWxp0maB7xJoYCyAJEq9lS4Sc8reI0XBWUiTigZdkbd95KlrBqAQhZCuCREsIRbVmssyEIkEqhpWzgWRQJGQibwJRCgiGrj7oCPWLsevDEp/dlRCJ+Sb1d3jGz6gEIWTLgsRLigQhebK4/wsS8z2TjEoYjZ+Ved8BFZXQ1SeEkHql2it96qBIENcTav22xAYfTImE5yqJDD6nRKJ9eki7DSH///bu7TeOqw7g+N9TkApCSNCgoEqIwgtXAUqfKCkPoPJCQMBTRSuB1DYPVIKSFFpaSKvESZ3b2o6v2d3xbe31zq5Tp7mSsrb/joN/m57NePY39u56duec2e/DR2p2Zuy8RPvtOWfOAfJGIuLC6oYzIxEWIQHnrc+fMtuzP22HhLy5cXfmlKl94tY/JgAYFDsS4VpECEICzguC103z+rfaISFvbjy49mNGIwCMBImIsdUNp6YzoggJOG927T+xNzfeNo8uPWMWGivq/QCQJ7KwUg7r0q65gJCA8wqNudibG9dafy5XZ9T7AQDDQ0jACw8ufyP25sYxU108p94LABgeQgJOK35cab2d8d+J583OyqtPQuLqs6Zefl99BgDywB7S5dqx4XGEBJx2WEgUGkX1OQDwHSEBpOSgkJgkJADkFCEBpET2i9BCIiy/Z6YaydtrA4DPCAkgJXKkuBYSteBfZroeqM8AgO8ICSAlsk5CC4mN4F0zU2dTKgD5REgAKZm5taiGRHUvJGbDJfUZAPCZ7Gb5/sJDQgJIixYS68E7Zj50+x8YAPTKnqthERJACu4VftIREmvBP8xCuKreDwC+GlupERJA2u4UftQREpW9kCiGFfV+APAVIQEMgBYSq8HbphSuqfcDgK9sSMhBXa6e+BlFSMALW4UfdITEyuJZE9TW1fsBwFc2JFwfibAICXhBC4nlxTNmsVZV7wcAH31YdvvIcA0hAS9oIbG0dMYsbWyo9wOAj95beOjNSIRFSMALWkgsLv3dLG+E6v0AkDW7F4R2zermHtcREvCCFhLB8ltmtUpIAHDXB8HWvj/LaEOURET8Ht8QEvCCHhJ/M5VqQ70fAFxjd6qM8m0aQ0NIwAtaSJSW/9oKicImR4kDcJ9Eg6yBsBHhw6ud3SAk4AUtJIqfhcRkg5AA4AeJCYkI36czoggJeCEpJGSNxFSjrD4DAC7Kw3RGFCEBLySFhLy1MV0P1GcAAINHSMALSSEh+0jM1BfVZwAAg0dIwAtJIRHUqmY2XFKfAQAMHiEBLySFRLm2bubDfM03AoBPCAl4ISkkSmHFLIQr6jMA3CMHUmmGtQBR+929yNtCyTQQEvBCUkgU90JCaM8AcI/dQ0Ez6C9pbUOoXvl2oNYwEBLwQlJIyGhEKVxTn8mblduhmb7FwlL4yZ4pIbEQ1/6S3rtuyefaz+mW/X1R0SCIk0CQDaLif7c47XeNOkICXkgKCVkfEdTW1WfyRkJi6859E97eIijgHfkiT9qE6YPyVscX+1F3fTwsHOKIhP4REvBCUkjIGxuLtar6TB5JSFgEBXwgIwP9fFFH46KfXSBtSORlG2qXERLwQlJIyB4SspeE9kwe2VEJggI+sNMLRw0Jod2TRBZF9vMc+kNIwAtJIXGjHrR2t9SeyaPix5WOkLAICrjEjkRYwwqJ+O/V7kG6CAk4b371n+bB+HE1JOScDTlvQ3sur7SIiCIo4IroyEA/axCiJ2Vq1zU2QOziSe0epIuQgNOC4DXTPP85s13+bTsioiEhJ3/KCaDas3mlTW9oCAq4wMZEv4sZ7dSIdk3T71QK+kdIwFmV+d/tRcRTZqfy530RsbP8svl07GkzGRZMYfNmKyQKm6NzlPhB0xua1a3RGrGBe+RL/cPyVl8jBL2EhPwOuZeQGC5CAk4Kb7xomuNfM7vh2X0RsV18yTy6+CVTWnqzfa+EhIxMRJ/Pu25HJQSjEnBBryMLVrfPHXVNBvpHSMApU7Ur5vb175vmxHfN7tbFJxFxd8psT58wd69808yundv3jKyRkLUS0c/yrpdRCUICLiAk8ouQgDPmK++Y++PHzfbcC/tGIXZvnTPNa8+ZzYkTZiKc6nhO3tqYrgcdn+edFg1xtU96f/8eSFt00WWv0xsSBN3sI0FIZIeQgBOC4HXzv/OfN9vl3+yLiJ3qm6Z56cumOvOS+pyQfSRkPwntWp51M73BaASyFv+CF/1sMHUYQiI7hAQyV1n4feKiSvl8pfiy+pwV1KqtHS61a3l22PQGoxHIWnQkQl7HlIAQ/XzJSygc9Fw0JHjtc7gICWQqnP65aY4fM7vhmX0RoS2qTFKurbfO3NCu5Z0WEFZpLzS0Z4BhSHuEQPaUOGgkw/6+QYx24GCEBDIxVbva2q2yOfGdrhdVJimFldYpoNq1vDtoeoNpDWTJjkbISEQa0wzaz5B4kFc+7YJMQiIbhASGbr7yrrk//nWzPdvbosokxb2QENq1UaBFBNMayJoNiUFOM2inhqYRLegNIYGhai2qvCCLKk/ti4huFlUmkfURKxtha3Mq7XreaaMSjEYga8MICbiBkMDQPFlU+af9EdHlosqDyILLm+Gqei3v4osuGY2ACwiJ0UFIYCiC4A3TvPhFZVHlr7peVHmQqXq5tcPlqG1MZREScA0hMToICQycnInx8KOv7ju9c/eeLKp83ty98lzXiyoPI+skgtq6ei3votMbTGvAFRdWN9TPkS+EBAYuvPGz1psY7Yi4UzDN670vqjyMrJGQ7bJn6qO7pwSjEQCGjZDAQLWnNLbG2iGxPXfSbE6eUO8/qrlw2SxvjOZQqoxKMBoB18grmmOMTOQaIYGBkSmNBx89Y3ZWXmlHxM7aG+bR2BfMdPWi+kwaFmvVkdxXQkYltM+BLNk9HngtM78ICQxMeONk55TG+DGzXHpVvT8tcoDX46PFS+p1ALr4bpRpIiTyi5DAQATB6c4pjfmTrXUR2v1pk4WX5dqaeg2ALrrBk2xJHRWNgl6x22S+ERJI3WQ4kcmURtREo2gq1fpIngoK9MuGhDZ6oO0i2Q3ZIjv+s5AvhARSl9WURpwc5CVHjGvXAHQ6KCTkMxlZSBIdtYie9Bn/OcgfQgKpynpKI05CYlRPBgV6dVBIdEOeZwRi9BASSI0+pXF6qFMacTOthZf11lSHdh3AE0cNCXGUZ+EnQgKpSZ7SeEW9f1hKtbWRPh0U6FYaIYHRQ0ggFfqUxouZTWlETbYWXjZar4Vq1wE8RkigH4QEjqzQmOuc0lg/bT4dezqzKY042aBKNqrSrgF4jJBAPwgJHNnN5bdM8/LxdkS4MqURJ1tns/ASrrCbP7n0pU1IoB+EBI5sbu3fj6c1bEiEZ83DS19R782S7Ckhh3oVNll4iezZY7ZlC2n5b5H1FzghgX4QEjiyQmPGNM8/ZXa3zn82InG19eep2lX1/izJMeMsvIQLbEhEZb3vAiGBfhASSMW9y8+anepf2qMSMrVxc+WMem+Wphql1sJLOXJcuw4MSzwksooIF0ZC4DdCAqmQY8F3Fv/wJCSmfmiWi39U782aTG/cqJfVa8CwREMiy02cZEdKQgJHQUggFevzvzbbcy+0Q2L75i9NbeYX6r1ZC2pVM8eiS2TMhsSwI0IWecq6DO0a0A9CAqkIgtdM8/q32yEhr4Levv499d6syRoJ1kmgF/J/7N3Qnk1iQ+LCak29Pgg2IuT39vr3BXQL5v/WzuvReKyCFQAAAABJRU5ErkJggg==;rotation=0;" vertex="1" parent="1">
                    <mxGeometry x="190" y="210" width="463" height="725" as="geometry"/>
                </mxCell>
                <mxCell id="53" value="" style="rounded=1;whiteSpace=wrap;html=1;fillColor=#eeeeee;strokeColor=#36393d;" vertex="1" parent="1">
                    <mxGeometry x="223" y="650" width="404" height="260" as="geometry"/>
                </mxCell>
                <mxCell id="54" value="&lt;font style=&quot;font-size: 16px;&quot; color=&quot;#b3b3b3&quot;&gt;Current Location&lt;/font&gt;" style="text;html=1;strokeColor=none;fillColor=none;align=center;verticalAlign=middle;whiteSpace=wrap;rounded=0;" vertex="1" parent="1">
                    <mxGeometry x="250" y="670" width="150" height="50" as="geometry"/>
                </mxCell>
                <mxCell id="56" value="&lt;h1&gt;&lt;font style=&quot;font-size: 22px;&quot; color=&quot;#000000&quot;&gt;Simpangampat&lt;/font&gt;&lt;/h1&gt;" style="text;html=1;strokeColor=none;fillColor=none;spacing=5;spacingTop=-20;whiteSpace=wrap;overflow=hidden;rounded=0;labelBackgroundColor=none;strokeWidth=2;fontSize=16;fontColor=#E6E6E6;opacity=70;" vertex="1" parent="1">
                    <mxGeometry x="442" y="662" width="202" height="48" as="geometry"/>
                </mxCell>
                <mxCell id="57" value="" style="shape=image;verticalLabelPosition=bottom;labelBackgroundColor=default;verticalAlign=top;aspect=fixed;imageAspect=0;image=data:image/png,iVBORw0KGgoAAAANSUhEUgAAAgAAAAIACAYAAAD0eNT6AAAABHNCSVQICAgIfAhkiAAAAAlwSFlzAAAOxAAADsQBlSsOGwAAABl0RVh0U29mdHdhcmUAd3d3Lmlua3NjYXBlLm9yZ5vuPBoAACAASURBVHic7d15gF0Ffff/z/fcOyEJ4AJN5s4kESLl1ypVWyNSyCSdWqzNhvbR2PZ5Wu3zuIDWBVxw17hr60bdxVrBuo4anCURRBkydxJZogKiFcEgkJlJ2CX73Hu+vz9AK5CQ7d75nuX9+qdWS+ZtGe753HPPPUcCAAAAAAAAAAAAAAAAAAAAAAAAAAAAAAAAAAAAAAAAAAAAAAAAAAAAAAAAAAAAAAAAAAAAAAAAAAAAAAAAAAAAAAAAAAAAAAAAAAAAAAAAAAAAAAAAAAAAAAAAAAAAAGD/LDoAwOG77W+ffqx2Tzu2I0mPdUuO9dSPdbNjzewxkk+TJJMeK0nu6pDpqAf9Aa5tZpq8/1/q7vv/Tdvj7veY+52W2J3m6Z2TaXKnjthz59zVV945pf8FAbQcAwDIuK0re49Kt6fzlaTHyzRfqR8vs+MlzXdpjqRjJSVTnJVKulPy20x2s9xvVmI3y7VJnm5KZk67eXbf8LYpbgJwEBgAQEaMrVgwU83pT0wqekrq9iSTP0myJ0maFd12iG6X/DqXXZeYX5c2dY0qu37WPbBxR3QYAAYAEOLWlafOqOxInpYkttBdCyQ9WdIJkirBae3WlHSTpGtN/qM0rYw2j5y8al7fhp3RYUDZMACAKbDljFM6Pe14upsWWqoeNy2QND26KyMact1gieruGvU0vbx7zfpfR0cBRccAANpg4q//+khN2/EMNy2R2zMl/8PopnyxG2X+PXOt1Z6ZP6hdcsn26CKgaBgAQItsWdbz+KZ0uplWSHqmpCOimwqiYa4rXBpw6dKuofqPTPLoKCDvGADAIXLJti5bfGrT0ueb9BxJx0U3lcSvXbqo4sk3Zg+t28AYAA4NAwA4SOMrFp4kt5Uy/aNcJ0T3lNxtLn1bpr6ugfooYwA4cAwA4ABMLDvtTzxJ/lGu50uaH92Dvdok0zcsTf+rNrT+p9ExQNYxAIB92NTbO336kY0VbnqpSadH9+CgbHTX56ozq1/hhkTA3jEAgIcYX7HwJMn+Sa6XSDomugeH5T4zfTWVvtQ9UK9HxwBZwgAAJP1yyZIjjq7+5h/d7WWSFkT3oB38x2bJp+5rHPWlE9eu3R1dA0RjAKDU7jr99Efvmb7rnyW9/oH76qP4tkr6tFv1E90Dw3dExwBRGAAopS3Leh7fNL3apBdJOjK6ByF2S/qGW/N93QMb/js6BphqDACUytiyngWW6M1yPUdT/wQ9ZFNq0ndS13u7h+obo2OAqcIAQCk8cGHfO+R6nvi9xz64dKnM3tA9MPKj6Bag3XghRKGNLVv8BLP0TZL+t4r/pD20hksaSqS3dg7Wr4mOAdqFAYBC2nrGqX/YTCtvFwd+HLqmpK9Ukua7ZvdvuDE6Bmg1BgAKZdNzeh8zvdl4o1xni4fxoBVMkyb9Z6rqW/jWAIqEAYBC8FVKJq7u+UdJ/yZpdnQPCukuk97Vua36SRsebkTHAIeLAYDcG1+28C9l9jFJT45uQSn8t8xf0zUwujY6BDgcDADk1sSKxfPl6Uf8/kfxAlPKpItkyWtqA+s2RbcAh4IBgNzxVUrGr+p5sZk+LOmo6B6U2k653lmb2fUh6+trRscAB4MBgFyZWLr4SV5Jz5frlOgW4LdM+knqejE3EkKeMACQC75gQcdEbcZrZHqXpGnRPcBeNFz6lGznm7oHNu6IjgH2hwGAzBtb0dNjrs9L+qPoFuAA/MJNL+bxw8g6BgAyy3t7qxNHNd4q6a3iZj7IF3fp43fPuPv1J/Vdvyc6BtgbBgAyafw5vcfbZOO/3LQwugU4ZK6rm67/M3dN/YboFOCheBoaMmd8ec8L1Ghcx8EfuWd6WiXRTyaW97w6OgV4KM4AIDPuOv30R+86YtenzfQP0S1Aq5m0utGx5yVzV195Z3QLIDEAkBGbz1j8Z0mz+W2ZHR/dArTRbZbqebU19SuiQwA+AkC48eU9L0jSdJSDP0pgrie6fGxZz0ujQwDOACDML5csOeLIyn3/atKroluAAF9qzGieOa9vw87oEJQTAwAhblvSO7dSafRJ+vPoFiDQj1StPrfrouGbo0NQPgwATLnxFYv+Qu59kmZFtwAZcLuk53cN1oejQ1AuXAOAKTW+YuHz5f5dcfAHfmuWpIvHl/e8IDoE5cIAwJSZWN7zarl9TdL06BYgY6ZJ+uL48p5VzplZTBF+0dB23ttb3XJ045Pu4spnYP8uvGvG3S/hFsJoNwYA2ur2MxYe3XD7hlx/E90C5If/YFe147nzLxq+J7oExcUAQNvcuvzUOVVVLpZ0UnQLkEPXN9R81rzBDZujQ1BMDAC0xdjS046zSvJ9uU6IbgFy7NeVpHn67P4NN0aHoHgYAGi5zWcs/KMktUslzY1uAQpgwjx9Zm1o/U+jQ1AsfAsALTX+7EVPTNwuEwd/oFVqbsn3b1t62p9Gh6BYGABombFlPQvU1Dq5uqJbgIKZXU2Sy7YsP+3U6BAUBwMALbH5jEULzfQDyY+NbgGKyKXHpEouHlu2cFF0C4qBawBw2G5betqfVpLkB5IeG90ClMBvZOnpXQPrr4oOQb4xAHBYJpYufpInfhnv/IGpY9I9zSR5xpz+dT+ObkF+MQBwyLYuX3xi09LL+cwfCHG7e/IX3UPrfh4dgnxiAOCQbH724nlJMx2RdFx0C1Bit5kli2sD6zZFhyB/uAgQB+3W5afOSdL0MnHwB6LNdaXfu/2Mhd3RIcgfBgAOyu1nLDy6osoQd/gDMsJ1QiO1S+46/fRHR6cgXxgAOGDe21ttpNZn0lOiWwA8yEm7p+/6uvf2VqNDkB8MABywiaMb/y7pWdEdAPbqWeNHNj4THYH8YADggEwsX/gmuV4W3QFg38z0ovFlPW+I7kA+8C0A7Nf4sp6VMn1NDEYgD9zl/9Q9OPrl6BBkGwMAj2jLssWnpZZ+X9L06BYAB2xXovQZnYPrN0SHILsYANinLWec0ulpx0aX5kS3ADhoE9XEF8zqHx2LDkE2cUoXe+ULFnSkXv0GB38gt2qTqfVdv/KkadEhyCYGAPZqonv6h+W2OLoDwKEz6bRjdx3zwegOZBMfAeBhJlb0/G93cQERUBwv7BqsXxgdgWxhAOBBtpyx6Mlp6hskzYxuAdAyO9MkWcjTA/H7+AgAv3PnklMelab6ljj4A0Uzw9L061tX9h4VHYLsYADgd/ZUOj4u+R9GdwBoPZNObO5snBfdgezgIwBIksZWLHquuX8zugNAe5n872uDo1+P7kA8BgB025LeuZVK4xpJx0S3AGgvk+5JTU/pHqjfEt2CWHwEUHK+SkmlMnmBOPgDpeDSY8z1X75yZSW6BbEYACW35eqFb5DsGdEdAKbUookd46+LjkAsPgIosc1nLP6zxNMr5OqIbgEw5fY00/SUuWvW/yQ6BDE4A1BS3ttbTdL0fA7+QGlNS5Lki75gAa8BJcUAKKmJIxuvlbQgugNAHJOeMtE9/dXRHYjBRwAlNLFi8Xz39DpJR0a3AAi3I2mmT+5cu/6m6BBMLc4AlIxLlnr6OXHwB3C/mWk1Od95Q1g6DICS2bJi0YtMOj26A0CGuP5yYsWiF0ZnYGqx+Epk69LeWjNp/EzSY6NbAGTOXdaRPqG2ev3W6BBMDc4AlEjTJt8vDv4A9u6YdNLeGx2BqcMZgJLYfMbiP0vS9Gox+gDsW+qpn9K9ZvTq6BC0HweDkkjS9Dzx9xvAI0uU2HlcEFgOHBBKYGLZor+XtCi6A0D2mXTaxLKe50V3oP1YeQV368pTZ1R3Vn4u6bjoFgC5cavbzj/uHti4IzoE7VONDkB7VXdVXy85B/+yMN0rt59JfqPMbpb7JplPSH6HKtNu3zPZuHfbzLu3n9R3/Z7f/8uuX3nStKN2PPbIaR3VR6u5Z5Zkf2CpdXlix5vS+e7JCZKfJOlRQf/NMLXmSTPOkcRFgQXGGYAC23LGKZ1p2nGTuOlPUW2XdJVJdblfpaRyXW1g3aZ2/sCJFYvnK20+SWYnu9Qj6emSZrbzZyLMNutIT+BrgcXFGYACc5/2Rsk5+BdHKtlGmb6beHPt7G3TrrLh4cZUBjwwMDZJ6pfuf6jU1qP2nJxaZYlSXyLTU8W1RUVxlDeScyXx2OCC4gxAQd26/NQ5VVVulDQ9ugWHJZV5XbKvJzb5rc7+K7ZEBz2SB2429VyZP19uPWIM5N3O6qSdMOvikfHoELQeA6Cgxpf1fFKml0d34JBtMrfPT1rjgnmDGzZHxxyKW5efOqdilX8214skzY/uwSEy/3jXwOirojPQegyAAhpbetpxliQ3SJoW3YKD4pKtdWue17Vg/aW2Sml0UCv4KiXjG0873ZS8Sq6l4nUnb3anleTEOd9Zd2t0CFqLfxALaGz5wvNN9uLoDhywPe76klXtI13fGflZdEw7jT970RO94a8x0z+JgZob5vpsbah+VnQHWosBUDBblpx2QlpNfi5XR3QL9qvhrgvk6bu716z/dXTMVBp/Tu/xajTeJukF4mLk7DNNmpI/ave3TDC1uECnYNJK5XUc/HPA9O1K0nxC91D9xWU7+EtS10XDN3cN1l9USZpPkOnb0T3YD1eHe/ra6Ay0FmcACmR8yaJZqvivJc2IbsE+/dxTvaZ7Tf270SFZMr68p9elj5n0lOgW7NMOt+px3QPDd0SHoDU4A1AkFX+5OPhn1U653lib0fUkDv4P1zVYH+56Wv2p7jpT0rboHuzVTEsnXxYdgdbhDEBBbOrtnT79qMavJc2ObsFD+Q+Spr+0c+36m6JL8mDLsp7Hp6bPSfqr6BY8zJZd26rHzx8e3hUdgsPHGYCCOOLIxgvEwT9bTJOS3ll72ugzOfgfuM6h+q9qg/VnPnA2gIfRZEvnEUc1/yk6Aq3BACgAl8xM50R34EH+O3Gd3DVYX1WU7/NPJZO8e6j+uUQ6TdLPo3vwP0x+jnP2uBAYAAUwsWzRUkl/HN2B3/JvVRN/eudg/ZrokrzrHKxfU038FEnfjG7B7zzhgdcc5BwDoAgS58KcbGhK9oba4OjKWf2j90XHFMWs/tH7aoP150t2rqRmdA8kmXNToALgNE7O3bakd26l0rhZUiW6peS2m9n/qQ2MfCc6pMjGli16lpn3STo6uqXkmm56fPdA/ZboEBw6zgDkXKXSeJE4+EebkKV/ycG//bqHRi721J8haSK6peQqlvoLoyNweBgAOearlEj6v9EdJXdLRcniroH1V0WHlEX3mtGrVa2eKhPfrIhk9hJfuZI3HznGAMixiasX/o2k46I7Ssv95sT1l7MH1/0yOqVsui4avrm6xxZJuj66pcTmje+YOD06AoeOAZBjPPEvkt1YrWhh51D9V9ElZTXr4pHxSlo9XdIN0S1lZZa+JLoBh46LAHNq69LeWrPSuIUH/4S4xdN0cRkf4pNFm5+9eF7SaK6T2fHRLaVjmrRqOre2ev3W6BQcPM4A5FRqzZUc/ENMVJLmX3Hwz44531l3a5L66TKNR7eUjqvDG8nzojNwaBgAOZWa/310QwntNPO/nd2/4cboEDxY59r1N7lsuXiQUAD/u+gCHBo+AsihB777f4v4+zeVUpee1z1YXx0dgn0bX75wqWTfkVSNbimRtKHm4+YNbtgcHYKDwxmAHEqqzZXi4D/F7E0c/LOva3B0jczfFN1RMkmHVZ4bHYGDxwDIIXNO/08lky6qDY78W3QHDkxtYPTDcn0juqNMUhcfA+QQAyBnxp/Te7ykk6M7SuS/K4m/wCSPDsGBMckrM6svkutn0S1lYdKpm5+9eF50Bw4OAyBvGpz+n0K7m2n6DzzYJ39m9w1vSyr2D5J2R7eUhFkzXRkdgYPDAMgZc392dENpuN4yd836n0Rn4NB09o9c62ZcDzBFTFoR3YCDwwDIkU3P6X2Mm06J7igF02W1k+sfjc7A4ekaGPmYS5dGd5SCaeGdS055VHQGDhwDIEemTzaeKb7eNBV2Vqz5UlulNDoEh8ckt2r1JeL+AO3n6thd6fir6AwcOAZAnpiWRCeUgvnbudlPcXRdNHyzXKuiO8ogEa9RecIAyAm//8K/Z0V3FJ1L19Tu6/hYdAdaqzaz62MmcT1Hm7n0N9ENOHAMgJzYvPS0p0jqju4oukrir7fh4UZ0B1rL+vqazcReIb7O2W7zxlcsPCk6AgeGAZAT1cQ4tdZ2/q3O/tHvRVegPeb0j4zK9M3ojhLgtSonGAA54TIurmmvRkUVvjJWcEmqN8o0Gd1RZObJM6MbcGAYADngvb1Via//tZO7Lpg9uO6X0R1or86h+q/M9cXojiJz+Z/7ypWV6A7sHwMgB8ZnTv6ppKOiOwrLNJkkyXujMzA1UtN7xB0C2+lRm7dvflJ0BPaPAZADScVOi24oMk91YW1g3aboDkyN7oH6LZwFaK9KkiyMbsD+MQBywFPxD1P7uFXtI9ERmFoN10ckbvTULu68ZuUBAyAPTJwBaJ+hru+M8NS4kpm7pn6DSf3RHUVlxgDIAwZAxo2t6HmcpLnRHUXlln48ugExXDovuqHAHsfjgbOPAZBxScrn/220qWvBeh4UU1K1wfrlkm6I7iiqSrPJa1fGMQAyzi19anRDUZnb53ngT3nZ/XfY/o/ojqJysz+LbsAjYwBknRlfp2mPdNIaF0RHIFaS7LlAUjO6o5Cc166sYwBk31OiAwpq3bzBDZujIxCrs/+KLZKGozuKyZ8cXYBHxgDIsLEVvX8gV1d0RyG5fSM6Adngsq9HNxTU3Nv+9unHRkdg3xgAGWbpJKfQ2iNNKnu+HR2BjLDKavExQFtUGkf8SXQD9o0BkGHO6f92ufqBU7+AugeG73DpiuiOQvKUNzEZxgDIMOMCwHZZGx2AzOF3og14Dcs2BkC2PTE6oIjM/LvRDcgYZwC0RaqTohOwbwyAbHt8dEABbe+8r+Pq6AhkS9fJ9R/LdG90R9G4aX50A/aNAZBRt648dYakWdEdxeNX2PBwI7oC2WKrlMr1w+iOAura1Ns7PToCe8cAyKjqnup8SRbdUTiWjEYnIKPc+d1oPeuY2XhcdAT2jgGQVc30+OiEIjL3q6IbkE2u5MrohiJKzPgYIKMYAJnFPzTtkJquiW5ANnU0dG10QyElvJnJKgZAVrkdH51QNCbd0zVQvzW6A9k06+KRcUm3R3cUjfFmJrMYAFllfnx0QuG4rr//CXDAPl0fHVA4Kd8EyCoGQEa51B3dUDRuuim6Adnmzu9IyxmvZVnFAMguvgLYepuiA5BxppujEwroD6IDsHcMgIwyiadotZrZzdEJyDpnJLYer2UZxQDIIF+5siLpMdEdRZNYujm6AdlmMn5HWu8YX8WxJov4m5JB47tuf6z4e9NyTU/ujG5AtlnK70gbVG65qufR0RF4OA4ymbSbz8zawu+ILkC2VZr8jrTDDEt4TcsgBkAGVdKOY6IbiqjD/O7oBmTbPclRd0U3FFFqTa4DyCAGQAa5pfzD0gZbj7hnd3QDsu3EtWt3i3tFtJynCa9pGcQAyCLTUdEJBeQn9V2/JzoCucDvSasl6ZHRCXg4BkAGueyI6IYC4kUdB4ozRS3Ga1o2MQAyyFOfFt0AAK2SMAAyiQGQQWYMgDbg/6c4UBysWszFa1oWMQCyyFnLbWC+YEFHdARygYNVi/ERQDYxADKIMwDtccec6dOjG5Btv1yy5AhJFt1RNImcAZBBDIAMYi23x6TbY6MbkG2PSbdxD442cBlvajKIAZBBbs6p6rYw7kaGR9SscsOadnClvKnJIAZABiVuaXRDMTUZAHhELuMx3G1gSprRDXg4BkAGpaZd0Q1FZKl1RTcg2yyxWnRDEbk79+HIIAZABpmcG5G0g9n86ARkXMrvSDuYOW9qMogBkEGWGg8kaQez46MTkG2p/PHRDUXkntwb3YCHYwBkken26IRCcj8hOgHZZokYAO3g6Z3RCXg4BkAWmTMA2sCkP4luQMY5vyPtYEnCAMggBkAGmTU2RTcUkUuPGVvR87joDmTT1qW9NUl8C6ANKtbYHN2Ah2MAZFBn/xVbTLonuqOIEunJ0Q3IpkZlD78b7WCanPWbI26OzsDDMQAyymW/jG4oIk/95OgGZJOldkp0QxG562YbHm5Ed+DhGAAZZZb+IrqhkMwWRicgo/jdaAvjzUxmMQAyylPdEN1QUH/uvb3V6Ahki69SItOfR3cUkctvjG7A3jEAsioRZwDa48gtMxsLoiOQLeMbF/2pXI+O7iiixI0BkFEMgOy6PjqgqDzRkugGZI3zO9EmqTsfAWQUAyCjagOjP5N0d3RHIZn+JjoB2ZKkjMJ2qar6k+gG7B0DIKNMcpmuiO4oJNfJE3972uzoDGTDrc869Rg38Q2A9vj17DXDE9ER2DsGQKbZhuiCgkrSSftf0RHIhkpH9bmSuDC0PXgNyzAGQIYlqa+Pbigqk/1ddAOyweT8LrSJu3MWM8MYABmWVPwKSc3ojoJadPuzFnVFRyDWljNO6ZT0F9EdRVVR5croBuwbAyDDZvWP3ufST6M7CqrSnOYvjI5ArNSr/yRO/7fLnh3bkx9FR2DfGAAZZ7KR6IaicunFLll0B2K4ZHJ7UXRHcdk184eHd0VXYN8YAJmXro0uKCzXCVuWL3pGdAZijC9b2CPpj6M7ist585JxDICMa8xIL5O0I7qjqFx6VXQDYlhiZ0c3FFmS+HejG/DIGAAZN69vw05Jl0d3FJevGFu2+AnRFZhaW5b1PF6uZ0d3FNjOPUek9egIPDIGQA6YGx8DtI8llp4THYGplSZ6naRKdEdhmS5/4M0LMowBkAMmH4puKDKXXjixYvH86A5MjdvPWNgt1z9HdxSZp35xdAP2jwGQA51D9V9JPB64jabJ0zdFR2BqNJv2dkkzojuKrcIAyAEGQE6Y2ZrohiJz0z9vWXLaCdEdaK+JFYvnu+n/RncU3C3dQ+t+Hh2B/WMA5ETatNXRDYXm6kgryQeiM9Be7v5+SdOiO4rMJN795wQDICe6nr6ubtLm6I6Ce9748p7e6Ai0x5Zli0+T/PnRHUXn5rxZyQkGQE7YKqWp9M3ojqIz6aO+ciVXhxeMr1xZSS39uLjzY1uZdM9d0+/5fnQHDgwDIEcqnnwjuqHoXPrT8Z3jr47uQGuN75p4laSnRncUnZt956S+6/dEd+DAMAByZPbQug2Sfh3dUXQmvZsLAotjbOlpx5n7u6I7SiFVX3QCDhwDIEdMchkfA0yBmc1K8hkeFJR/LlmSVD4n6ajolsIz3bstPerS6AwcOAZA3rjxMcAUMOn08WUL+Sgg57as6Hmly/86uqMUXP0nrl27OzoDB44BkDO1wZGrJG2K7igDM/vAljMWPTm6A4dmYuniJ7nrg9EdZWHunJ3MGQZAzpjkcv9SdEdJHJGm/rWtK3s5fZwzW1f2HuVJ+lVJ06NbSuI3O7d3XBIdgYPDAMijjo7/lJRGZ5TEE9KdjS9xPUC+NHc0/kPSSdEdJfKt+cPDu6IjcHAYADnUddHwzZIPR3eUhUvPmVix8LXRHTgwY8t7XiMTN/yZSmYXRCfg4DEAcsrNvhjdUCpuH5hYsYjnx2fc+IqFS0x87j+l3G+uDYysi87AwWMA5FRzevObJt0T3VEiFXf/ysTSnlOiQ7B3m89Y/GcPfEumGt1SKmYXmOTRGTh4DICcmte3YadcX4/uKJmZXtHqLct6Hh8dggebWLF4fpKmg+L7/lPNE9eF0RE4NAyAPHP9Z3RC6bi6UtNlY0tPOy46Bfe7dfmpc9zTSyV1R7eU0LrOofqvoiNwaBgAOVZbU79C0vXRHSX0OEuSi7cu7a1Fh5TdxN+eNruqyvckcVYmBhf/5RgDIOfc7D+iG0rqj5pJY/i2Jb1zo0PK6tblp87xyWRY0hOiW0pqezXh5j95xgDIucnUvyhpR3RHSf1RJZkc4ZqAqTexYvH8qirrxME/jtk3Z/WP3hedgUPHAMi544bqd7v8K9EdpWV2fJqoPrasZ0F0SlmMrVj0VPe0Lk77hzKln4luwOFhABRARfaJ6IZSc3WZ6fKJZQvPiE4purEVp/21uV8mLvgLZdJPagOjP4zuwOFhABRA52D9GnONRneU3JFu9u3xZT2v5bbB7TG2vOc15skaSY+Kbim7VPap6AYcPgZAUST6ZHQCVJHpQ+PLFq6+6/TTHx0dUxRbV/YeNb580ddM+rCkSnRP6ZnuTfbM4GPHAmAAFMSd0+/+lqQt0R2QzOzZu4/YtZ5HCR++iaWLn9Tc0bhC8r+LbsH93HVB7ZJLtkd34PAxAAripL7r95h0fnQHHmB6Ypr6lePLet7gq/jn7GC5ZGPLel7qSfpDmZ4Y3YP/Yeafi25Aa/BZZYHctqR3bqXS2CTuhZ4p7vpekiRn1gbWbYpuyYOJFYvny/0zLv/r6BY8zHDXYP0voyPQGrwzKZC5a4dvk+vb0R14MDM90z29bmzFonN85Uo+w94HX7myMrZi0Tnu6XUc/DPK/NPRCWgdBkDBmOsj0Q3YqyPN/SMTO8euGlu6eHF0TNaMr1j0F1t2jl9t7h+RdGR0Dx7OpM21sV2rozvQOnwEUEDjy3tGJPVEd+ARmPqSVG8s+4NUtizreXya6ANyrYxuwSMz+Ztrg6Pvj+5A6zAACmhsxaLnmDtLPetMk3J9LXGtKtsQ2PzsxfOsmb7OpDMlHRHdg/3a0ezY87i5q6+8MzoErcMAKCBfpWT86p7/NunE6BYckN1muqDR1IfnrqnfEB3TTrct7fn/qhW91l0vFAf+/HB9qmuo/i/RGWgtBkBBja/oebmcmwPlTOruAyadVxsaHTbJo4NawSWbWLaw18xe5dIZ4tqjvEmbqZ5Q9HFaRgyAghpbsWCm+cxbJD82ugWHwm6U++erDbtw1sUj49E1h+L2Zy3qalT9BW56EWejcm2ga7DOcy4KiAFQYBPLet7jprdEd+CwaWmCAAAAFwxJREFUNGVa5/KvSx3f6h4YviM66JGMrej9A2nyuSb7O7kWi1v35p/7M7qGRi+LzkDrMQAKbOvS3lozadwsPmstiqZkV8rTtUr8u7Xpc35kfX3NyCBfubIysWvzU6XKErkvkXSyOOgXiP+4a3D0qdEVaA8GQMGNLV94vsleHN2BtrjPXT8006jMr2w2Oq6bu3b4tnb+wNuW9M6tVCefJLenu2uhmf5c0tHt/JkI9cKuwfqF0RFoDwZAwW1dvvjEptKfi3dlZXGXzH+qVL9Skmxy+aZEyWbz9M49at6hGbprXt+GnXv7C29deeoM7dQx01T5A7fk2FTpHJPNV5rOV6LHy+1PJB0zxf99EMSkzXfOuPvxJ/Vdvye6Be3BACiB8eWLvsbT1PBQJt0jSS49JroF2ePSa7sH69xZtMD4Ok4JJPL3qyBfKUPruPQYDv7Yh7uqM6o89a/gGAAl0DlYv0amNdEdAHLj32f3DW+LjkB7MQBKwuTviW4AkAvb3arcRKwEGAAlURsY/aHM10V3AMg402eyfr8JtAYDoES8aTzJC8Aj2d3w5kejIzA1GAAl0r2m/l25ro7uAJBNJl04b3DD5ugOTA0GQMl4Yh+IbgCQSc0kaf5rdASmDgOgZLoWjKyW6broDgBZY9+c3b/hxugKTB0GQMnYKqVK9e7oDgCZ4kmi90VHYGoxAEqoNlT/pqRrozsAZITpm539I7wmlAwDoIRMcrm4LwAASfLEjNeDEmIAlBRnAQA84Fu8+y8nBkBJcRYAgCRPxOtAWTEASoyzAEDZ+bc7B+vXRFcgBgOgxDgLAJSaJzK+EVRiDICS4ywAUFKm1bz7LzcGQMmZ5G72rugOAFPKm82Ud/8lxwCAugZGvi3pR9EdAKaGSRfNXbP+J9EdiMUAwP3XAsjfFt0BYEqkJr0zOgLxGACQJHUNjq6RdHl0B4D2MtlX+ewfEgMAv8dNb41uANBWzWbCZ/+4HwMAv9M9UK+763vRHQDaw6QvzOkf/UV0B7KBAYAHc3+zJI/OANByu5uVhHf/+B0GAB6ke83o1e7eH90BoLVc+syc76y7NboD2cEAwMMk8rdKSqM7ALTM9koy+f7oCGQLAwAPUxta/1OXvhbdAaA13Py8zv4rtkR3IFsYANiratJ8h0yT0R0ADo9J90ym9qHoDmQPAwB7Nbt/w41KdX50B4DDk5o+dNxQ/e7oDmQPAwD7ZNPSd0q6L7oDwCEyjSe7Z34sOgPZxADAPtVWr98q949GdwA4NC5/Z+2SS7ZHdyCbGAB4RJWZHf8miYuHgPy5oWts1xeiI5BdDAA8otl9w9vM9L7oDgAHx83ebBs3ciEv9okBgP3qHNv5aZluiu4AcKDsqgce8w3sEwMA+2UbN06a9PboDgAHxszeaNzSG/th0QHIB5dsYnnPVZIWRLcAeCS2pmtwZFl0BbKPMwA4ICa5W/rm6A4AjyhNE+Ox3jggDAAcsO6B9Ze4dGl0B4C9M/OvzOlf9+PoDuQDAwAHJU3T14sHBQFZtMsrHW+LjkB+MABwUOauWf8TSV+M7gDwYC59rOui4ZujO5AfDAActCSZfLO4RTCQJbdP3zX9A9ERyBcGAA5aZ/8VW2Q8XQzICjd/2zGXXnpvdAfyhQGAQ9KY3vg3SbdEdwDQz7vu6/iP6AjkDwMAh2Re34adcufmQEAwdzvHhocb0R3IHwYADlnt5NEvyXV1dAdQYmu7h0Yujo5APjEAcMhslVIl9rroDqCkmubpudERyC8GAA5L18DI5SZdFN0BlI7rs7Wh9T+NzkB+MQBw2KyZvk7S7ugOoETuSyqT74qOQL4xAHDYOteuv8mlz0R3AOVh7+7sv2JLdAXyjQGAlph0vVOyO6M7gBLYtK151L9HRyD/GABoieOG6ne76b3RHUDx2bknrl3LR244bAwAtEzX2I5PSLohugMoLttQGxz5VnQFioEBgJaxjRsnXXpjdAdQUC7pbLv/fwKHjQGAluoerK+W9P3oDqBozPzLXYMjV0Z3oDgYAGi5NEleLymN7gAKZGcqe0t0BIqFAYCWm9O/7seSvhzdARSG2Ye6B+o8fAstxQBAWzTUfJOk7dEdQAFsmdbYw+O30XIMALTFvMENm2X2kegOIO/M9eZj117xm+gOFA8DAG1TmV75V0lj0R1AXrl0TefMrguiO1BMDAC0zey+4W1ufC0QOFQmnW19fc3oDhSTRQeg2FyyieU9l0taFN0C5It9vWtw5O+jK1BcnAFAW5nkaZK8WnwtEDgYOzxtviE6AsXGAEDbzelf92OXfyG6A8gLN72ve836X0d3oNgYAJgSSYe/xaR7ojuAHPjV7vuqH46OQPExADAlaqvXb03d3xndAWSdSWfPHx7eFd2B4mMAYMp0be/4hEzXRXcAWeWu79UG6wPRHSgHBgCmjA0PN0zJ2dEdQEbt8Yq/MjoC5cEAwJSqDaz7gUmrozuAzDF9dE7/6C+iM1AeDABMudR0tqQd0R1AhkxMa0y+LzoC5cIAwJTrHqjfIjOucgYe4PLXcb9/TDUGAEI0pjfeL4nvOaP0XFrfNTj6legOlA8DACHm9W3YaXLudIayS5X6q03y6BCUDwMAYWqDo1+XNBzdAYQxfbZ7zejV0RkoJwYAYpm/QlIjOgMIcLer+vboCJQXAwChugZGr5frc9EdwJRze0v3wPAd0RkoLwYAwu2R3iqJF0KUyU9r2yvnR0eg3BgACHfcUP1umd4R3QFMEZfZK2x4mI++EIoBgEyoTe/6rEvXRHcA7Wayr3QNjFwe3QEwAJAJ1tfXlOkV4utQKLZtk2rw9VdkAgMAmdE9UK9L9o3oDqBtXO+ZN7hhc3QGIDEAkDHVSZ0jiVuionBc+uW29OiPRXcAv8UAQKbMunhkXLL3RHcArZbIXnbi2rW7ozuA32IAIHNq2yoflXRtdAfQKib7cm1w5PvRHcDvYwAgc2x4uOHuXBCIovhNJUnPjY4AHooBgEzqHhodcemr0R3A4TK3t87qHx2L7gAeigGAzKokk6+R6d7oDuAwXNu5vfLp6AhgbxgAyKzO/iu2eOqrojuAQ5QmSs/ijn/IKgYAMq1rZvfHuUMg8shc53cOrt8Q3QHsCwMAmWZ9fU1P7F/EBYHIFbszTapvja4AHgkDAJk3p39kVGYXRncAB8z0Oh71i6xjACAXrNo8V9Ld0R3AAajXBkYuiI4A9ocBgFyorV6/VfK3R3cA+9FIpFcYH1khBxgAyI3a00Y/JenK6A5gn9w+1jlY56JV5AIDALlhq5TK0ldISqNbgL24rTKz8s7oCOBAMQCQK10D669y139GdwAPZ+fM7hveFl0BHCgGAHKn2WieK4krrJEZJruka3Dkm9EdwMFgACB35l284S435zvWyIrdzSR9VXQEcLAYAMilrgWj58t0RXQHIOn9c/pHfxEdARwsBgByyVYp9VT/IqkZ3YIysxt3bat+MLoCOBQMAORW91B9o2TnR3egzNJXzx8e3hVdARwKBgBybY/7myXdHt2BEjL1dQ2OronOAA4VAwC5dtxQ/W5Jb4juQOn8puHNc6IjgMPBAEDu1QbrX5TpsugOlIe5vXXe4IbN0R3A4WAAIPfuv++6v1KmyegWlIDr6s6ZtU9FZwCHiwGAQugaGL3eXR+O7kDhNT2xM62vj2+fIPcYACiM5ozmuyT9KroDxWXu/949MPKj6A6gFRgAKIx5fRt2PnBvAKD1TOPTds/gYT8oDAYACqV7Tf27Jq2O7kDxuOzlx1x66b3RHUCrMABQOM1K8mpJPJUNLWRrugdGLoquAFqJAYDCmfOddbfKtSq6A4WxQ9UKHy2hcBgAKKTa9up5kv84ugP559Lbui4avjm6A2g1BgAKyYaHGzI/U1Ia3YJcu7ZrfOfHoyOAdmAAoLC6BtZfZabPR3cgt9JE6Vm2cSM3mEIhMQBQaLtTvVHS1ugO5JF9qnNw/YboCqBdGAAotAceFvT66A7kzsSuauVt0RFAOzEAUHhdg/ULJf9BdAfyxF45/6Lhe6IrgHZiAKAUmqm9TNLu6A7kgOm7XYMj34zOANqNAYBSmLumfoO5PhTdgczbkXA7aZQEAwClMTmz+V6ZboruQJbZOzuH6jxQCqXAAEBp3P+wIOPdHfblp7XxHR+NjgCmCgMApdI9NHKxTH3RHcicNPHkTL7zjzJhAKB0quZnS/pNdAeyxD7XObRufXQFMJUYACidWf2jY2biO964n2l8V7XypugMYKoxAFBKnQvqn5D0w+gOZIDbq/jOP8qIAYBSslVKk8TOlInPfEvN1vCdf5QVAwCl1dk/cq1cPOmtvO5LK3ZWdAQQhQGAUnPb+TZJm6I7MPXM7S1zvrPu1ugOIAoDAKXWPbBxh8y5N0Dp2FWdM2ufiq4AIjEAUHpdA6NrJf9WdAemTCNN7Ezr62tGhwCRGACApEra8QqTuBK8BFz2b3P61/04ugOIxgAAJM1eMzzhcu4NUHTuNyd7Zrw3OgPIAgYA8IDa00Y/JdmG6A60T1LRS2uXXLI9ugPIAgYA8ABbpdRS7g1QWO5f7Owf/V50BpAVDADg99TWrLtO7h+L7kCr2Z1Kk3OjK4AsYQAAD+G2a5UknglfIO46u2vtyO3RHUCWMACAh+ge2LjDU3FvgKIwXdY1NPLl6AwgaxgAwF50r6l/V65vRHfgsO1MGulLTPLoECBrGADAPlS8+mpJd0d34HDYOzrXrr8pugLIIgYAsA+z1wxPyO0t0R04ZNfWxndwQSewDwwA4BHUTh75rLlGoztw0FIzP9M2buQrncA+MACAR2CrlErpWdwbIF/M/bzawOgPozuALGMAAPtRG1r/U3d9OLoDB+yWZGbH26MjgKxjAAAHoDmj+S6ZuJgsB8z9lbP7hrdFdwBZxwAADsC8vg07XenLozuwX1+rDY32R0cAecAAAA5Q98D6S9z11egO7IPp3mrir43OAPKCAQAchEpl8hxxb4BMMtnrZvWPjkV3AHnBAAAOQmf/FVvc9cboDjyE+brOgZH/iM4A8oQBABykrqH6+TJdFt2B39ntaeUsbvcLHBwGAHCQTPLU/GWSdke3QJL7e7uH1v08OgPIGwYAcAjm9I/+wlwfiu6AfrEtfdS/RkcAecQAAA7RfenR75b0i+iOEkvd9OIT167lTAxwCBgAwCF64MBzlvjsOYbps90D9Xp0BpBXDADgMHQN1ofN/MvRHSU0satSfXN0BJBnDADgMDWqk2dLuiO6o0zc/V/mXzR8T3QHkGcMAOAwzV195Z1mzr0BpoppqHto9NvRGUDeMQCAFugcGP2C5D+I7iiB+5qN6lnREUARMACAFjDJm6m9TNKu6JZi8zfPXTt8W3QFUAQMAKBF5q6p3yB3vpPePlfWZnR/OjoCKAoGANBC29JHvU8Sd6VrvUYzTc+0vr5mdAhQFAwAoIVOXLt2t8xeJu4N0FLm+uDcNet/Et0BFAkDAGixroGRy2V2YXRHUbj0y8mZzfdGdwBFwwAA2qBZ3f1aSbdHdxSAV1wvn9e3YWd0CFA0DACgDeauvvJOub8+uiP33C/oHKpfGp0BFBEDAGiT2tDohZK+H92RY3coTc6NjgCKigEAtIlJXlHCvQEOkcvP7lo7wscoQJswAIA2mj247pcye390Rw5d3D04ykOWgDZiAABtdtf0uz4g18+iO3JkR+J6eXQEUHQMAKDNTuq7fo/LzxL3Bjgw5u/oHKr/KjoDKDoGADAFuodGRyT9Z3RHDlxbG9t1XnQEUAYMAGCKNCabr5e0Nbojw5ru+n+2ceNkdAhQBgwAYIrMu3jDXe722uiODDuve6i+MToCKAsGADCFuodG/std34vuyKBbKjOq74iOAMqEAQBMsWql+XJJ3Nr295j0itl9w9uiO4AyYQAAU2x2/4Yb3cTDbR7grq/WBusD0R1A2TAAgABd91U/6NI10R3hTPd2VPx10RlAGTEAgAA2PNxIUp0pKY1uiWTy187qHx2L7gDKiAEABKmtqV9hps9Hd4QxX9c5MPqF6AygrBgAQKBpO6efK6mM74B3e1o5y7g7IhCGAQAEOubSS+81U/k+A3d/b/fQup9HZwBlxgAAgtUG6l+VNBjdMYV+sS191L9GRwBlxwAAMsAseZWkHdEdUyBNE3vRiWvX7o4OAcqOAQBkQG1g3Sa53hXd0W7mOn9O/8hodAcABgCQGbXt1Q8X/N4AW3ZLb4qOAHA/BgCQETY83JDpFSrolfHmdvZxQ/W7ozsA3I8BAGRI90C97q7CfTfeZJfUhka+Ft0B4H8wAICMaTaa50raGt3RQjut2Xx5dASAB2MAABkz7+INd8n93OiOVjH5uzvXrr8pugPAgzEAgAyqDY1eKPkPojta4PrO8V0fio4A8HAMACCDTPJmai+TlOfvy7ubzrKNGyejQwA8HAMAyKi5a+o3mCu3757NdH73QL0e3QFg7xgAQIbdlx79bkk3RHccgjtSVd8SHQFg3xgAQIaduHbtbrf0ldEdB8vlZ3cPDN8R3QFg3yw6AMD+jS9f9DXJ/y664wAN1wbrz+BRv0C2cQYAyIFKWjnbpHuiOw7A7jTxszj4A9nHAAByYPaa4QmXvy26Y3/c9O45/aO/iO4AsH8MACAnak8b/ZSkH0Z3PIJfbG8cndtvLQBlwwAAcsJWKU0SO1NSI7plL1zuLztx7do837cAKBUGAJAjnf0j17r0yeiOh3LXF7qGRi+L7gBw4BgAQM50JP42kzZHd/ye2x94gBGAHGEAADkzq3/0PnedE93xW+Z647yLN9wV3QHg4DAAgBzqGqr3yfTd6A5JV3aeXP9idASAg8cAAHKq4smrFPuwoGYzTc+0VUoDGwAcIgYAkFOzB9f90mUfifr5Ln1i7pr1P4n6+QAODwMAyDPb8R653xzwk7fsrlZXBfxcAC3CAAByrHtg4w5PktdN9c8102vmXzSch1sTA9gHHgYEFMD48kVDki+dkh9mvq42MNrL/f6BfOMMAFAAlaTxakm7puBH7fG0wsN+gAJgAAAFMLt/w40mtf8+/KaPdg+t+3nbfw6AtmMAAAUxOaP5Pkmb2vgjbq1Mr76njX8+gCnEAAAKYl7fhp1m1rY7BLr72bP7hre1688HMLW4CBAomPHlPQOSlrfyzzTZJbXBkWe18s8EEIszAEDBJM30bLX2gsDdjdRf2cI/D0AGMACAgulcu/4mSR9s4R/5gblr6je08M8DkAEMAKCAtjWPfr+kwz9om27ata36gcMvApA1DACggE5cu3a33F5zuH+OSWfPHx6eivsLAJhiXAQIFNjh3CHQpUu7B+vPbHUTgGzgDABQYA/cIXDPIfylDTM/u9U9ALKDAQAU2Oz+DTea+ycP9q8zs090DYxe344mANnAAAAKbmdHx7sk3X4Qf8ldjepu7vgHFBwDACi4+RcN3+Pytx/wX+D21rmrr7yzjUkAMoABAJRA14zu8yVdu9//Q9fPatsr57e/CEA0BgBQAtbX15Tv/6I+T9JzbHi4MRVNAGIxAICS6Boavcyki/b1n5t0UffA+kumsglAHAYAUCLmeq2k3Xv5j/YkSs6d6h4AcRgAQIl0DtV/JdPHHvYfmD46e3DdLwOSAARhAAAlUzV/r0zjv/dvbT1i5/T3hwUBCMEAAEpmVv/ofZbqrb/93831pmMuvfTeyCYAU48BAJRQ58n1L0p2leQ/vv9fAwCAUhhbtnDR2LKFi6I7AAAAAAAAAAAAAAAAAAAAAAAAAAAAAAAAAAAAAAAAAAAAAAAAAAAAAAAAAAAAAAAAAAAAAAAAAAAAAAAAAAAAAAAAAAAAAAAAAAAAAAAAAAAAAAAAAAAAAAAAAAAAAAAAAAAAkCH/P9c1lGs3o8XBAAAAAElFTkSuQmCC;" vertex="1" parent="1">
                    <mxGeometry x="422" y="678" width="30" height="30" as="geometry"/>
                </mxCell>
                <mxCell id="58" value="&lt;h1&gt;&lt;font style=&quot;font-size: 31px;&quot; color=&quot;#000000&quot;&gt;25.2 Km&lt;/font&gt;&lt;/h1&gt;" style="text;html=1;strokeColor=none;fillColor=none;spacing=5;spacingTop=-20;whiteSpace=wrap;overflow=hidden;rounded=0;labelBackgroundColor=none;strokeWidth=2;fontSize=16;fontColor=#E6E6E6;opacity=70;" vertex="1" parent="1">
                    <mxGeometry x="373" y="740" width="202" height="48" as="geometry"/>
                </mxCell>
                <mxCell id="59" value="&lt;h1&gt;&lt;span style=&quot;font-family: &amp;quot;Google Sans&amp;quot;, arial, sans-serif; font-size: 20px;&quot;&gt;&lt;font style=&quot;&quot; color=&quot;#000000&quot;&gt;35 °C&lt;/font&gt;&lt;/span&gt;&lt;br&gt;&lt;/h1&gt;" style="text;html=1;strokeColor=none;fillColor=none;spacing=5;spacingTop=-20;whiteSpace=wrap;overflow=hidden;rounded=0;labelBackgroundColor=none;strokeWidth=2;fontSize=16;fontColor=#E6E6E6;opacity=70;" vertex="1" parent="1">
                    <mxGeometry x="273" y="820" width="70" height="48" as="geometry"/>
                </mxCell>
                <mxCell id="60" value="&lt;h1&gt;&lt;span style=&quot;font-family: &amp;quot;Google Sans&amp;quot;, arial, sans-serif; font-size: 20px;&quot;&gt;&lt;font color=&quot;#000000&quot;&gt;1100 Mdpl&lt;/font&gt;&lt;/span&gt;&lt;/h1&gt;" style="text;html=1;strokeColor=none;fillColor=none;spacing=5;spacingTop=-20;whiteSpace=wrap;overflow=hidden;rounded=0;labelBackgroundColor=none;strokeWidth=2;fontSize=16;fontColor=#E6E6E6;opacity=70;" vertex="1" parent="1">
                    <mxGeometry x="363" y="821" width="133" height="48" as="geometry"/>
                </mxCell>
                <mxCell id="61" value="&lt;h1&gt;&lt;span style=&quot;font-family: &amp;quot;Google Sans&amp;quot;, arial, sans-serif; font-size: 20px;&quot;&gt;&lt;font color=&quot;#000000&quot;&gt;1h 32min&lt;/font&gt;&lt;/span&gt;&lt;/h1&gt;" style="text;html=1;strokeColor=none;fillColor=none;spacing=5;spacingTop=-20;whiteSpace=wrap;overflow=hidden;rounded=0;labelBackgroundColor=none;strokeWidth=2;fontSize=16;fontColor=#E6E6E6;opacity=70;" vertex="1" parent="1">
                    <mxGeometry x="499" y="820" width="134" height="48" as="geometry"/>
                </mxCell>
                <mxCell id="62" value="&lt;font style=&quot;font-size: 16px;&quot; color=&quot;#b3b3b3&quot;&gt;Temp&lt;/font&gt;" style="text;html=1;strokeColor=none;fillColor=none;align=center;verticalAlign=middle;whiteSpace=wrap;rounded=0;" vertex="1" parent="1">
                    <mxGeometry x="243" y="868" width="130" height="30" as="geometry"/>
                </mxCell>
                <mxCell id="63" value="&lt;font style=&quot;font-size: 16px;&quot; color=&quot;#b3b3b3&quot;&gt;High&lt;/font&gt;" style="text;html=1;strokeColor=none;fillColor=none;align=center;verticalAlign=middle;whiteSpace=wrap;rounded=0;" vertex="1" parent="1">
                    <mxGeometry x="355" y="869" width="130" height="30" as="geometry"/>
                </mxCell>
                <mxCell id="64" value="&lt;font color=&quot;#b3b3b3&quot;&gt;&lt;span style=&quot;font-size: 16px;&quot;&gt;Rail times&lt;/span&gt;&lt;/font&gt;" style="text;html=1;strokeColor=none;fillColor=none;align=center;verticalAlign=middle;whiteSpace=wrap;rounded=0;" vertex="1" parent="1">
                    <mxGeometry x="485" y="869" width="130" height="30" as="geometry"/>
                </mxCell>
                <mxCell id="66" value="" style="shape=image;verticalLabelPosition=bottom;labelBackgroundColor=default;verticalAlign=top;aspect=fixed;imageAspect=0;image=data:image/png,iVBORw0KGgoAAAANSUhEUgAAAgAAAAIACAYAAAD0eNT6AAAABHNCSVQICAgIfAhkiAAAAAlwSFlzAAAOxAAADsQBlSsOGwAAABl0RVh0U29mdHdhcmUAd3d3Lmlua3NjYXBlLm9yZ5vuPBoAACAASURBVHic7d15nB9Vne//V3c6QPYNSFiysCXsiiASQEaGGZVN5Ad4AYXhXq/LjLIqoCiLDjIgyKKIMjPK6IiO4I0EEBxFEBSQQWTHsIUlJEAWQhZICEn374/TLe2XXr5LnXqfqno/H4/PI4qYs1T1OZ+uOnVOGzpdwrKtvNrUFTAzK4J2dQXMzMwsf04AzMzMKsgJgJmZWQU5ATAzM6sgJwBmZmYV5ATAzMysgpwAmJmZVZATADMzswpyAmBmZlZBTgDMzMwqyAmAmZlZBTkBMDMzqyAnAGZmZhXkBMDMzKyCnACYmZlVkBMAMzOzCnICYGZmVkFOAMzMzCrICYCZmVkFOQEwMzOrICcAZmZmFeQEwMzMrIKcAJiZmVWQEwAzM7MKcgJgZmZWQU4AzMzMKsgJgJmZWQU5ATAzM6sgJwBmZmYV1KGugECbugIV0aWugJmZ9c9PAMzMzCrICYCZmVkFOQEwMzOrICcAZmZmFeQEwMzMrIKcAJiZmVWQEwAzM7MKcgJgZmZWQU4AzMzMKsgJgJmZWQU5ATAzM6sgJwBmZmYV5ATAzMysgpwAmJmZVVAVE4D11BWogPXVFTAzs4FVMQEYq65ABbiPzcwSV8UEYEt1BSpga3UFzMxsYFVMAPZWV6AC3MdmZomrYgJwiLoCFeA+NjNLXJuw7C5RueuATYGFovLLbhIwH11yqbynzcwKo4pPAIYAn1dXosROpZr3lZmZ1alLGKuAKfGbWDnTgNVor62ZmSVOOUl0AbPw4+IstQHXob+uZmaWOPVE0QV8OXorq+Mc9NfTCYCZWQGoJ4ouoBM4KnZDK+CjhL5UX08nAGZmBaCeKHonAefjhWvNaANOJ3xZob6OTgDMzApCPVHUxiy8MLARU0njnb8TADOzglFPFH3FKuBCYGLEdhfdJOAi9Kv9nQCYmbWgihsB1aMTuBuYDdwJPA0sBdYoKyWwPuFgn62BvQg7/O1B2q9L/GWHmVkdnABY2TgBMDOrQ8q/yZmZmVkkTgDMzMwqyAmAmZlZBTkBMDMzqyAnAGZmZhXkBMDMzKyCnACYmZlVkBMAMzOzCnICYGZmVkFOAMzMzCrICYCZmVkFOQEwMzOrICcAZmZmFeQEwMzMrIKcAJiZmVWQEwAzM7MKcgJgZmZWQU4AzMzMKsgJgJmZWQU5ATAzM6sgJwBmZmYV5ATAzMysgpwAmJmZVZATADMzswpyAmBmZlZBTgDMzMwqqIoJwOXA8+pKlNhzhD42M7OEtQnL7hKV29PmXYCDgL2A9wBjRfUpuleBe4A7gRuB+7v/ufr6mpnZAKqcANT+s20JScFWwBbAlsAmwDBgJDAK6MipjqlYC6wAVgKrgAXAM93xNGGyn0Pf1zKl62tmZjWcAFgsvr5mZgmr2m+0ZhbfUMITtRnA9O4/tyY8RRsBjOv+E+A1YCnhKdNK4Cng8e54gvCE6c0c625WGX4CYLH4+lbHEMKEvxfwd8D7gTEZ/d2vA3cBtxDWmdyDEwKzwusSheXD17f8dgDOB14iv+u7BLgS2DuH9plZJJ4gys3Xt5xGAacAj6C7xj3xMHAyYZGumRWIJ4hy8/Utl9HA6YTfwNUTf20sIzyJGB+t9WaWKU8Q5ebrWw7DgXOB5egn+noSga9019nMEuYJotx8fYvvYMKeD+qJvdGYBxwRoT/MLCOeIMrN17e4JgM3oJ/IW43ZwOYZ942ZZcATRLn5+hbTQcBi9JN3VrEYODDTHjKzlnmCKDdf32LpAM4B1qGftLOOTuAywgZFZpYATxDl5utbHOOB36OfqGPH7YRdCM1MzBNEufn6FsMmwIPoJ+e84lHCGgczE/IEUW6+vunbFngO/aScdzzb3XYzE/EEUW6+vmnbDliEfjJWxUKcBFjF+TAgi8XXN12bEQ7WmaquiNgLhAOMnldXxEyhXV0BM8vVWOAmPPlD2CPgJryFsFWUEwCz6hgK3AjsrK5IQnYAfk74DNLMcuJ3xOXm65uei9C/e081zm+hX82sQZ4gys3XNy0HEDbEUU+0qUYn8KGme9esgLwI0GLx9U3HZOB+YIK6IolbDOxCWBxoVnpeA2BWft/Gk389NgS+pa6EWRX4EXG5+fqm4cPoH68XLQ5qqqfNCsavACwWX1+94cAjwBbqihTMc4SvA15TV8QsJr8CMCuvM/Dk34ypwKnqSpjF5icAFouvr9Z4wp73o8T1KKrlhETgVXVFzGLxEwCzcjoBT/6tGA18Vl0Js5j8BMBi8fXVGUH47X9DcT2KbgnhFcoKdUXMYvATALPy+RSe/LMwAfi4uhJmsfgJgMXi66vzELCTuhIl8QjuSyspPwEwK5dd8YSVpR2Bd6grYRZDFU/A8mYxVmbHqCvQh3XAXcBs4E5gLrC0+38bB2wJ7A0cAswEhgjqOJBjgc+pK2FWJurdvhzljCobAryM/hr0xOvABcDGDbRhY+DrwKoE6t8TC/DTUrNMqX+oHeWMKtsNff/3xLWEQ4iaNQWYlUA7emKXFtpiliRntWblsZ+6AoTJ8ivAR4B5Lfw9zwOHAV8gHNWrtq+6AmZlos7oHeWMKrsZbd+vA46M0K6jCUmAsm2/iNAus8pSTxSOckZVDQVWou37MyK270xx25YT+tjMMqCeKBzljKraCW2/X0vcPRja0K8J2CFi+8xy5zUAZuUwQ1j2auAU4iZgXcDxhK8DVKYLyzbLnBMAs3JQJgCX0dqCv3rNB76dQzn9UfaxWeacAJiVg+q303XAxTmWdxG6rwKcAFipOAEwK4ctReXeBSzMsbyXgbtzLK83VR+bReEEwKwcxorKvU5Q5mxBmQBjROWaReEEwKwcRonKvasiZQKMFpVrFoUTALNyGCkq92lBmU8JygRdkmUWhRMAs3JQTU7LBGW+KigTnABYyTgBMCuHKm+CZGZNcAJgVg7LReUqFh+qFjyuEJVrFoUTALNyUCUAik/jthaUCU4ArGScAJiVgyoB2LsiZYKuj82icAJgVg6KxXgAhwjK/JCgTND1sVkUTgDMymGBqNyZwMY5ljcJ2CPH8nqbKyrXLAonAGbl8Jio3CHA53Ms71R049YcUblmUTgBMCuHR4RlHw9MyaGcacBnciinP48LyzbLnBMAs3JQJgAbAJcCbRHLaOsuY/2IZQzmCWHZZqXS5XBEiKpqB1ai7fszI7bvbHHblgMdEdtnVinqicJRzqiyW9H2fSdwVIR2fbT771a27cYI7TKT8isAs/K4WVx+G3A1cD7ZjC1twOnAD4n7eqEet4rLNysV9W+KjnJGlW2Pvv97YhatLQycClyXQDt64p0ttMXMaqh/oB3ljKp7Fv016IlVwIXAxAbqPwm4CFidQP17Yj5+WmolpHys5sHaYlA/Kla7AvhHdSVqdAJ3A7OBO4GngaWEazWWsLf/XoRdBfcgvcn2IsL+A2aWqHPR/6awAtgodkMzMJ6wram6v86N3dAKeg/661q22LmhK2BmufKE1jgnTOX1R/TXtizxQIN9b2Y582TWOCdN5fV/0V/XssSJDfa9meXIE1nznDiV0zBgCfprW/RYDIxssO/NLEeexJrn5Km8LkB/XYseX2q4180sN57AWucEqpzGEn6DVV/bosar3X1oZony5NU6J1Hl9Tn017WocVYT/W1mOfHElR0nUuW0HvAU+mtbtHiKcMKhmSXKk1Z2nEyV15Hor2vR4oCmetrMcuEJK3tOqMrrp+ivbVFiVpN9bGY58WSVPSdV5bUhsAD9tU09FgKbNdnHZpYDT1TxOLEqr/cT9uRXX99UoxM4uOneNbNceJKKx8lVuX0T/bVNNc5roV/NLAeeoOJzglVeHcDN6K9vanFbd9+YWcI8OcXnJKvcRgH3o7++qcTDwLiWetTMovPElB8nWuW2KfA8+musjnnA5Bb70sxy4EkpP062ym8Hqv1lwEJgRsu9aGbReULKnxOu8psGPIn+Oucdz+LJ36wwPBnlz0lXNUwCHkB/nfOKR4DNM+k5M4vOE5GOE69qSOVnLHbchk/4MysUT0I6qUwMVUy+8rQV+mscMzqBy4ChWXWYmcXnCUjPCVj5nYL+GseKRfhwH7NC8uSj5ySs/G5Ff31jxCy8t79ZIXniSYcTsfIaD7yJ/vpmGU8DB2bZSWaWL0866XAyVl5Ho7+uWcVS4Cxgg0x7yMxy5QknPU7Iyum/0F/XVmMRcA7e0tesFDzZpMdJWfkMBV5Ff02bjQeAE4ERWXeMmWl4okmXE7Ny2Q/99Ww05gMXATtH6A8zE/Mkky4nZ+VyGfprOVisBH4NnA7sCrRH6QmzCmpTV6DGeOAZYLS4Hl8DviyuQ6rOBb4krsNKYEvCu19r3lxgC2H5awjX8lVC0r2CcDbBE90xp/vPtaoKmpVZGyHLNrPWpJZMD2ZH4GFh+e8AHhKWb/VpIxwfvUV3TAY2BCbURAdvbbO8Hm+ty3iNkOhBSPTWAktqYhHhaOZnCb8A9pxSaZF1qCtgZhIfEpb9HJ78U9MBbAPsREjOdgK2BaYA67fw947grWSg5yuNbQb5/7xBuEceJ9wnPfEksK6FulgNJwBm1XSwsOwbhGVbMAnYE9gbmAm8k3T2T1gfmN4dve/T1YQvP+4Cft/958u5165E/ArALBtFegUwibCaXrWg7v2EhX2Wn7HA3wH7A/sAW2urk5kngTuAm4FbCIuUrU5OAMyyUaQE4OPAv4vKXk74wmbNYP+itWxHwm/Q+xN+yy/7E9+1hKcCNxOeMj2qrU76nACYZaNICcBsdGsAfgocKSq7CrYAPgIcC2wvrovaY8C1hN0u54jrkiQnAGbZKEoCMAxYDAwXlX8M8CNR2WW1MfAPwMfwBkn9eRD4T+CH+PPhv3ACYJaNoiQABwPXi8peB0wkfPplrWkH/pbwm/7hhMTOBreG8ATsX4Hf4PlPvtOXw1GGKIor0fXRb+M3r/RGAScRjjxW3/NFj6cIZ0mMbOgKlIz6IjgcZYgiaANeQNdHp8RvYmlNJJx4uAT9vV62WEbYFnvzei9GWfgVgFk2ivAK4N3A/wjLn0HY2tfqtxVhW/KjCTvsWTxrCOtTziXsSFh6PljDrDqUu//9GU/+jZhM+K30UeA4PPnnYT3g/xB2IPwh4byRUnMCYFYdyt3/bhSWXSQTgcsJ76dPoLVteK05QwlfqzwGfJPwlUUp+RWAWTZSfwUwhbC/usp7Cdu3Wt+GAv8EfAUYI66L/bXXgIuAfyGcU1AafgJgVg2HCMteAtwtLD91BxNekVyKJ/8UjQDOBh4BjhDXJVNOAMyq4SBh2b/Ap7j1ZQvgvwn7MmwlrosNbmvgGuAmYKq4LplwAmBWfqOB9wnLV208lKp24JOEI27fL66LNW5/wvqA04Eh4rq0xAmAWfl9AN0q8jeAX4nKTtFOhNchV1LxDWgKbjhwPmFdy47iujTNCYBZ+Sk//7sVWCEsPxVthF3n7gV2F9fFsrMH8CfCJk2Fm08LV2Eza8gQwiNLlRuEZadiEuG98aX4s74yGkpYJPhrYDNxXRriBMCs3PYCJojK7sLf/x9O2Mzng+qKWHR/Szh18FB1RerlBMCs3JSP/+8H5gnLV+ogvCO+FhgvrovlZwIwi7DGY6i4LoNyAmBWbsrd/6r6+H8jwud9p6srYjKfJBw3PEldkYE4ATArr22B6cLyq5gA7Ab8kfA42KrtvYR7Yaa6Iv1xAmBWXsrH/wsIq6Or5CPA7wjbLptBWBT4W+Bj4nr0yQmAWXkpH/9fT7XOGTkR+C9gA3VFLDnrEU4XPEdcj7dxAmBWThPQPnqsyuP/DuC7hE/8Uj8QynTaCJ8KXkVCiwOdAJiV04Hotil9jbABUNmNIHzf/yl1RawwjiM8HRsurgfgBMCsrJTv/38FrBaWn4cxhJX+f6+uiBXOBwn3zmh1RZwAmJXP+mgPmSn74/9xhAF8L3VFrLD2Jjwl21BZCb+zMiufDwC/FJXdCWwCLBSVH9tEwpavO6krIvAs8Ex3PAs8ByypiS5gDeE1EITXJOsR5poJNTGVcCTyNGBLSnLEboN6ToR8WVF4h6JQM4tKufr/Hso7+U+gOpP/HMKphfcCD3fHsib+ntd4Kxl4BXhygH93DKFvdybsp7AnMKOJMotkZ8Irs30J/WNm1rQ2wm9mXaL4QvwmSowhTIaqfo0dTwGXE9aOSB9L19gIOAT4NvA0+n6KFf9DAmsCzKzY3ol2INshfhNzN4Jw7rt6ksgyOgm/4Z8CbJNdV0U3Hfgc4UlTJ/p+zDJuJ5GvA8ysmM5EN4A9lUP78jaU8IhWPTlkFY8Bp1GO9+3TCOct/Bl9v2YVN5PQPgFmVizKx9SX5NC+PLURNm5RTwqtxuvADwgrz8vqvYTd9lah7+9W498z7hszq4BN0T4W3Td+E3N1FvrJoJVYSDiSeJOsOyZhGxGeCixA3/+txBlZd4yZldun0A1YSynXo8uPUdx3zM8Dn6ba5xIMA/4JmIf+ejQTncBRmfeKmZXWjegGrB/n0L687Am8gX4SaDQWAMcTNoKyYAPgBOBF9Nen0VgNvCf7LjGzshlBeNerGqzK8tvKJGA++sG/kXiNcNCMV5D3bwTwFbQ/I83EPGDjCP1hZiXyYXSD1BpgbPwmRjcUuAP9oF9vdBKevEyO0RklNYVwbLP62jUSt+FN+8xsAN9HN0DdkkP78nAZ+sG+3piL9ryHovsb4An017HeuChON5hZ0bUDL6EbnE6M38ToDkc/yNcTa4GL8eP+LIwgfLq6Dv11HSw6CU/5zMz+yp5oB6ct4jcxqs2AxegH+cHiOeB9cbqg0vYkPFFRX9/B4hX8usfMapyHblB6JIf2xdQO/Ab94D5Y/JhyrLNI1TjgGvTXebD4NeGeNTMD4FF0A9LXcmhfTKehH9QHijcJG9tYPj5J+p+AnhKt9WZWKFuiHYxmxm9iNDuR9mA/n/B42vK1N2nvJLga2DFa682sME5ENxC9RHEfRw4hnCinHsz7iz9SrS18U7Mp8Cf090F/cTfF/dkzs4zcim4QKvKhJaegH8T7i18Co+I13eo0Arge/f3QX5wQr+lmlrqxhE14VANQUT9L2gJYiX4A7yu+Q3g6YWnoAP4V/X3RV6ygHMc6m1kTjkI3+LxO+A2piP4b/eDdV1xIOILY0tIGfAP9/dFX/CJiu80sYT9BN/DckEP7YlBumTxQnB+z0ZaJ09HfJ33FgTEbbWbpGUrYGEQ16HwyfhMztx5pbv96TsQ2W7a+iv5+qY0n8QmQZpWyH7oBp5Owe17RpPgb3KVRW2wxXID+vqkN7w1gViGXoBts7s2hfVmbCCxDP1D3ju/id/5F1EZ6CwOXAhvFbLSZpeNJdIPNmTm0L2vfRj9I946b8BGvRTYEmI3+PuodfppkVgE7oh1o3hG/iZmaQtg9TT1A98R9wMioLbY8jALuR38/9cQqYPOoLTYzuS+gG2Seo3iPrf8N/eDcE/MJu8xZOWwGvIj+vuqJ78Rtrpmp3Y1ugPlWDu3L0jTS2e9/DfDeqK01hZmkdY8V/XhuM+vHxsA6dAPMB+I3MVNXoR+Ue+KfIrfVdJRnctTGv9Vb6aI9yjOruv8NfF9U9grCSuM3ROU3ajNgLuH7f7X/IuzcWAZDgW2BGcD07j+3JrwTHwGM461dIl8jrFBf2R1PAY93xxPAHMKRx2XwM+AwdSUIP59bEF5NmFmJXIfuN4trcmhfllL5XnseMD5yW2MaAuxA2PzpGuBVsuub14BfE/Zo2JuQXBTVWMIaGfX91gV8LXJbzSxnw9AeYnNM/CZmZhThN0/1QLwO2DdyW2PZgbBF8Uvk119LgCsJyUAR7QOsRX/fvYK/NDErlQPRDShrgQ3jNzEzJ6EfhLuAi2M3NGOjCLvKPYK+7x4GTqZ4E9ll6PuuCzg+dkPNLD/fRTeY3JFD+7LSDjyNfgCeS3FOTBxNeAy/BH2/1cYywpOIorxGGUUarwKexOv8zEqhjfAuWTWYfD5+EzPz9+gH3y7g/bEbmoHhwLnAcvT9NVgsIxzGMzxKT2Rrf/T91UVxXz+ZWS+7oR1IZsRvYmauQT/w/jh6K1t3MPAM+r5qNF4Ajo3QH1n7Gfq+KsJ9aGaDUB5D+mQO7cvKhui3/X0dmBq7oS2YDNyAfnJqNa7vbkuqphC+clD20Rv4kCCzwvsTukHkwhzal5VT0U9M58RuZAsOAhaj76OsYjFhcWyqvoa+j06O3kozi2Yy0IluANknfhMz8yDawXYBab6j7iAkJspdJGNFJ2HlfQobPtUaCbyMtn/ui95KM4vmM+gGjyUU59jabdFPRp+N3srGjQd+j75vYscdhF0IU3MK+r7ZJnorzSyKX6IbOH6QQ/uycg7aQfZ5YP3YjWzQJuifiuQZj5LeuoANCAsXlf3ypeitNLPMjUK7qO2I+E3MzKNoB9l/jN/EhmxLGt+j5x3zgZ0y6L8sHY+2Tx6M30Qzy9ph6AaNNwgbxBTBjmgH2IWErZpTsR2wCP1krIpFhAQoFSPQL758W3+0R2iomWXnEGHZtxE2iCmCD4nL/zawSlyHHpsBN1OsrZuztiHhkKEp6op0ew24QlyHg8Xlm1kDhqD9LS7FBW39uQNdP71OOt9aj6Va7/wHi0dJZwvhiYQkUdUXt8ZvopllZR+0g+e06C3MxhhgDbp+SmWh5FCqsdq/0biDdI4ZvhpdP6wh/KyYWQFciG6wuD+H9mXlCLQTTCpH116EfrJNNS5ooV+z9D60/fDh6C00s0z8Gd1A8c85tC8r30PXT4/l0L56HIB2s6jUoxPtepoebcDj6PrhyvhNNLNWTUc7YL47fhMz8xS6fjoth/YNZjL6FeZFiEXA5k32cZbOQNcHc3Jon5m16PPoBokFFOcc8Yno+qmTNNZJXI9+ci1KXNdkH2dpS3RPazqBjXsq4s8AzdKk/GSnZ0IpAuX793uAZ4XlQ3in68+76ncI+v6ai25//jZgZs9/cQJglp7xwJ7C8m8Ult0oZT9dKywbwqFDF4vrUESXEzbmUbpGWPZewrLNbBAfQ/eI9DXS2tFuMH9A11fTc2jfQM5F1/aix1ea6O8sbYeu7Xfl0D4za9I16AaHn+fQvqx0oNtYZW4O7RvIeMIujeqJtKixDP3JgXPRtP11wiZjfgVglpj1gA8Iy79BWHajphNOWlP4hajcHicQDoqy5oxGv9Plr0TlDgO2BicAZqn5G3QH8HQCN4nKbobyxLdbhGWPAD4jLL8sTkKbRKkSAOj+2XECYJYW5aE29wAvCctv1M6icrvQvkf9FNU+6Ccr44H/Kyz/TmHZO4MTALPUHCQsu0iP/0GXADxO2FRG5Thh2WXzcWHZLwNPisr2EwCzxOyMdmOZoiUAM0TlKn/73xXtq4+y2QF4p7B81VOAbSGsok3JUELFZhAW+MwgLFYYRXjvNa77zw7CKs43gBXAi4QNOZ4jZFT3EbL0dbnW3qxvQwj38q7ANoRJfiqwCeHeXp9wSpcyIX8GeERYfqPa0Z31rtrEBeAYYdn9WUdIimYTJrS5wNLu/20cYee7vQmb8MykewV6Qo4FHhCVfR+aJzpTSWC3zyHAboT9tG8GVpLdpw4rgNuBLxMGXj/tsLy0E+7rMwlHkWZ5X8eKy6L0RDybo+sr1e6DQwiPjdX3Su/PyS6g19ayddgY+Dq6zzf7ihfRzQ/KI783yaF9fXoXcCn53swvAVcAe+TQPqummcB3SGuQrjf2i9AfMe2Npp860Z2pvluddcwjriUcQtSsKcCsBNrRE7u00JZWjGugjllHrrtojgJOITxmVF/sPwOfw9/RWutGA6eiPeKz1XiV8PqtSFS7JT6bQ9v6c3o/dcozOoFzyObxcVt3m9Yl0K7PZdCeZs0boF4x4+g8GjceOBtYknPj6omlwHmEE8XMGjEJOJ8wearv41bjJxn3TR5UR6r+Jo/G9ePmAeqVR6wDjozQrqPRnY7XE8qNnX7bT51ixxdiNmo4Ya/qImxXuYLwvnZ4lJ6wMhlB+A2oCO/1641cfhPI2DfQ9NX38mhcH4aiv+fOiNi+M8VtW47uKdh/1FG/GHFhrAYdQnhUprygzcQLFHMwtHwcA8xHf59mGW+i3xO9GT9A019n5tG4PuzUQB1jxLXEXTXehn5NwA4R2zeQsxuoY5ZxVdYrHycTviW+jvCZQdFsBlxN+JxFtkLSkrMp4b7+Yfd/LpPf8dYnW0UyQVTu86JyVXseAKwmrN/qilhGF3A84esAFdXpjqp7akKWCcBBwP1odzLLyoeAR4HD1RUxuSMIC1fLcF/3pWib//RQbYW7WFSuMgG4jLBQLbb5wLdzKKc/qj5W3VOZ/AwNBS5Cv4gjRnQS3jWmtmGSxTcUuAT9PRg7ts6qw3L2BJr+Un1GrHrlsZbGvvNv1UR0XwVclUP7+rJnA3XMMua0WvHxwO9Flc8zbkf3yNHytxHh0bj6vosdywg/w0Wk+nRKlTCp7sc78mhcDdWccnsejevD9AbqmGU818orgM0JN+VeLfwdRbEP4aZUbT1q+ZlGuNaq3d7yNJow6BVxvct6onKXi8odKyr3OkGZswVlgm6DJ9U9tX6zCcB2hD2ft8+wMqnblrDftWqlqMW3E+G+Vi0GUtiRkPBsqa5Ig1QJwBuiclWblikOPlIdtjRaVK7qnmrqZ2g7wlGYikcWKcRLaBfkWBzbAQvR31+qWECxktvX0fTTsDwa14fFDdQxy9goj8bVmNhCfVsJ1RHPwxuoY5bxWqMV3Yxift+fdcwDtmi08yxZUwgnSarvK3XMp7X93fO0Fk0fqU6ye6OBOmYZiict67dQ31ZidR6N68OQBuqYZaxt5BXAeOBXFPP7/qxtTuiLoi6gsrdsCNyG13dA2OPgeopxRobqKFOfKmpZk91T9RY8lDAwVOmd/2C2Bn6KPxEssg7gGor3/jumO/28IAAAIABJREFUd1KM+/pNUbmq7cJXiMpVLD5ULXhU9bHqnnqz3gTgX6jGav9G/R1hDwQrpkuAfdWVSND+hP0vUla1BGClqFxFcqz61FKVAIwQlVtXAnAAYRtI69uJhN3irFgOBT6rrkTCjgcOVFdiAGtF5VbtCYDic1jVJ7iqz/FUCcCawRKAyYT9z1Xv24ri24TjYa0YNgX+TV2JxLUR+ijVDbBUe8arEoBXReUeIijzQ4IyIWyMpaC6p1YPlgBcQboDQEo2Av5dXQmr2/fwfV2PTYAr1ZXoR9UG67micmeS71bAk9Btt6zqY9U9tWygBOAQynsASgwHAoepK2GD+gjwQXUlCuQw4H+pK9EHVQKgShyfEJU7BPh8juWdim5V/OOiclX3VL8JwHDCAilrzCXo3ufY4IYBX1dXooDOJ3ybnRLV+1rV56KqyQnCepA82j0N+EwO5fRH1ceqT+v7TQDOwBvdNGMy+WbL1pgv4H0smjEN7cDcl6WiclX3T8snt7VgA+BS4q4Fa+suQ5loqhIAVVLZ57qS8YTsWrEzURmiyCeslZnv69biFdK6ry9D0w9X59G4PgwlfAmgvAfOjNi+s8VtW07oY4X/qrOOWcfFfT0BOJ5i7ASWqtGETwMtLSfj+7oV4wjvZ1OxQFTuVFG5bxIObVL6CnBUhL/3o4QEQOl36PaWUD0BeLH2H4wClqDNxMoQS9GdLGVvN5bwuEt9XxQ9XkF3GE6tY9H0wbw8GteP0waoV17RSVgTksVCvTbgdGBdAu36XAbtadb8AeoVMz5WexE/QVqP+YpqLHCMuhL2F8eiO+u7TMYR5zfAZqieAGyKLrn/jajc3nom7Z/R2m+uU4Gfk10y0apbReWOJXxuq/C2n6GH0GdiZYkHB+1+y8sD6O+HssSfGuz7WLZC1wfvi9+8Pg0hHEeuvgd6YhVwIeH43npNImyfvjqB+vfEAnRJyH511jFGTOtdkV2FFSlrqDa0sLfMRH8flC3e3dAViGMIuiNylV/6XDJAvVSxjrA+4VRgT0JCsB5hRf9EwjkypwF3ksbj/tpQnntx+gD1ihlvAEN6n/iV4iPrdcBdwGzCzTOXtz7/GUc4qGJvwqZFM9Gd1d2fu9UVsCQV/b4+FrhXXId1wHPANoKydxWU2eM/gZOE5felnTDJF/XAuB8Ky1bdS88QfoaAMMC8jD4T64nXgQtobAvKjQmbvKxKoP4OR19Rlvv66QbqH9NNaNr/ZB6NG4Bf1WYXjzTY91mbi6bdN/auxG6iSvQV1xI21GnWFGBWAu1wOHpH2e7rbVtoS1YuQtP2TnRn1kP4pFV9/csSyqcpEwaoV+z4qx1RVe8hekcncA7Z7DaV0ucljmpHWe/rFI4IV30K2AV8OIf29WcEsKifejnqj8Vo9wY5vJ965RFH967IzcKKdBEGtCOb7cUBHE0YgNU3mqOaUeb7+pYI7WrUO9C1/19zaN9AzkbX9rLElxvu9Wx9D13bd+ypxFBgpbAiXYSzB2I5U9w2R3WjzPf1CuLuDV+P9YA1aNo/D237x+DNrVqJZWhf47QRPj9UtH01vbY93klUiZ64lviHTKT07tRRjajCfZ3CgWF/RNf+nXNo30C+iq7tRY+zm+jvLO2Cru339FSiHZgRs5WDWE14l9gVsYwuwvkGqyKWYdZbVe7rHYRl91B+anuAsGyAfyF8zmWNeY6wgZGS8t65q+c/tAPThRX5JvnsrT0f+HYO5ZhBde7rHQf/V6JTJgAHCsuGkPydLK5DEX2W8EmukjIB+EPv//IDNI8h1tLY99Ctmkgaq6cd5Y4q3dc/yqF9g9kC3bXuJI3XINejv++LEj9vso+ztBXaRbx/OcOhnbDrmMJdwMIcy3sZ78xn8VXpvlYdYtLbM8ALorLbgH8Qld3bZwinuNrAFhNem6kdh24B6bPA8z3/pR3dSsjrBGXOFpRp1VKl+zqVExaVnyQeh/40u3m8tSeC9a0L+Di6ZLFHO+FaqfzVz0o7uo0Q7hr8XylFmVYtVbqvVcfi1lImAFPRnQ7Y202EnRGtbxcQXpWo/T2tHaPcqrf9rCxG8x5iozjtG9DEFurrcNQTVbqvX86jcXWYhPad6n/Gb2JdhgJ3oP8ZSC1+C/Q++E7pJ+j6YR0141Mb4VjA9eK0dUDrEzbxyLvM1TmXadVSpfv6DWADQbl9uQ94l6jsVYQnAYtE5fc2BridsEuiwaPAPsAr6ooQEtVn0P3M3Avs3vsftKN/f2Vm1irl491hwAnC8ntbRvjE7FlxPVLwAqEvUpj8IRw8pEyY37Y+qR14TVAR0Cw+VG79aNVQpft6hajcvigWX/b2WdJZE7EA2J/wereqFhPetz8/2L+Yk7HAP4rr8LYkuR3dTmKKzw+3FpRp1VKl+zqlBOBBtLvijQU+LSy/1hzgvaQzAeZpAfC3hD5IxWfQJohPA4/U/sN2wkFACnsJytxTUKZVS5Xu65QSAID/Jy7/ZNJZEwFhAtwDeEhdkRw9Rmjzw+qK9DIc/SuiPn822gnbiSooztNWnuFt1VCl+/pVUbn9+bG4/EmEb81T8iKwL/A7dUVycDuwN/lsw92IT5Dv7qB9ubq//6EqWwFPwlsBO+JHle7rq3JoX6MeRXv9XyadDZJ66wDOoZxjYCdwGb2OuE3IOMLXIcr+6fcJUDu6d0RDgM/nWN6p+IsHi69K93VK71h7/ERc/sbAWeI69GUtIQH4AOns35CFxcBBwInAm+K69OUcYENxHQY8s+MYdJnJKvLZFWka4TtpdabqqEZU5b4+NHoLGzeFMNkpr/8baI9ZH8zmhO2j1T8nrcZ13W1J1XaEPUGUffQmsOlAldxeXMFZxD0YoY1wo6hvVke1ogr39fYR29eKG9Ff/xujt7J1BwFz0fdVo/E0+qOY63Ez+r4a9PTDIYTVvMpKnjl4XzbtbHHbHNWNMt/Xy0lne9VaH0J/7bsI3+KnbhjhMfUy9P01WLxKuO+HxeiIjB2Ivr/qvgdvF1eyEziqnoo26KNo9wh3VDvKfF+n/BvuEMJKcPX1f5Z0NgcazCjCe/QX0fdbbSwmJCnjYjU+Y2MI117db89Q5/qgMxOobCdwfr0VHkQbcDrlXPHqKFaU9b4+JYP2xPRF9H3UBXw/dkMzNpKwn8FD6PvuIcL2uSOjtjh7/4G+77poYDHyrglUtidm0doCqqno3406HLVRtvv6nS20JQ/jCZucqfupCzgkcltj2YGQvOb5VGAxcCXhe/4iOgT9/dZFeEVX9+eo7cBLCVS6J1YBFxKOOa3XJMJ52F7t70g1ynJfz6cYn9Rejr6vugif3ak3gmnVlsAngWuApWTXNyuBXxOebO1KMe6r/mxMuNbq+60LuLieCvdepXwF+sMKanUCdxM+WbmTsPpzKaHeYwl7oO9FyLr2oNg3j1VH0e/riwj7D6Rua8JeBUPUFSE8vUnxs8lmdBA+c5wBTO/+cxvCo/pRhHu457H9SsLivRXd8STwRHc83h1rc6x7TD8njd1m1xLu/eca+T/tgT5rKVu8u5ELYFHMRH8flC12bugKaF2Nvr96IqXDgixbn0Z/f/VE0+tO/pxA5csSf2iw7y2eB9DfD2WJBxrse7Vt0G8M1BOrgF3iNtcEdgReR39/dRHu9en1Vrz20eK/N9BoG9gV6grYX3xPXYESuUpdgQY9CfxUXYluGxC2Ki7aqnbr3wjgWtLZm+BHhNcrTRlFtgs8qhoLgfUb7HuLZwy+r7OIRYQBr2i2JWyJqu6/nvhh3OZajv4D/f3UE2sIT7xacl4CDSl6/HPDvW6xfRX9fVH0+FLDvZ6O76Lvv95xXNTWWh7+Af191Dsuz6JRE9FvDVzkWERYBWtpGU8xtjtNNZaS5jG39ZpEWuPaSsJhMVZM25LOPhNdhLGt4U9N+/q86GXCt8rWnK8SPnuxtLwCXKKuRIFdQhhkiuolwueLqRhB+KY+lXfHVr9hhHUlKb0Ou4Dw6jkTw4EX0Gc1RYs5wNAm+tvyMZw09uguWjxFWMBWdCOA59H3Z+/416gtthhSe530DBESyaMTaFjRoqhbflbJ4ejvk6LFAU31dJoOQ9+ftXFk1BZblj6C/n6pjWjzzuwEGleU+FmTfWz5+wX6+6UoMavJPk7ZL9H3a+9YRti5zdK2FemtI4p6KucmwJIEGpl6zCMsMrNimERYrKm+b1KPhcBmTfZxyrYhrbMVuoD78KfDKVsPuBf9fdI7Xiec0RDV4ejPHk851gH7Nt27pnIo+nsn5VgHfLDp3k1fKscF945vRm2xteJS9PdHbZwWtcW9fCOnBhUx/qWFfjWty9DfP6nGeS30axF0AH9E38+9o5M0DpOxv3YI6f0SfA85HnLVAdweuUFFjF/iVf9F1gHcgv4+Si1u6+6bstsJeAN9f/eOV4CpMRttDZlCeq/BVwM7xGx0XzbEhwX1jnvxnt5lMIGwX7z6fkolHqJaG1mdgb7Pa+Mu/ItFCjoIx3Wr74fa+ELMRg9kc8IZw+oOUMfThB0TrRwm4/0BugiLWSe31pWF0w78Bn3f18b5MRttdTkf/X1QG3eQ46P/vuxA2FVL3RGqeAl/slNGMwi7YKrvL1Us7O6DKppMeo95O4H9YzbaBvRBwkJY9X3QO5YQfgmXm0F6O2rlEU/hyb/MdqSaO2A+Q3Un/x4pbhBU1s8wU7cpaf4ycFjMRjdqGtV6d3ovfuxfBVOo1lqXhwgDnsEV6K9HbfwW8SPfihlCWASrvu618Z2YjW7WeKqxivqXeMFflUwgDLzq+y523Ea1FvwNZgPgAfTXpTa+ErPR9lfOQX+9a+NBEj6Lo4M0N0nIItYRvvP3itzq6SDsf5Ha979Z3dfnUY1P/Ro1g7SODe65Xn8bs9EGhA3d1qK/3r1jBQV5PXco4Z2VusOyinl4hz8LO2GmtkCslVhIuXf4y8Ix6K9TbSygifPerW4bA/PRX+faOCZmo7M2iXA4gbrTWo2f4b397S2bANehvy9bjVl4UVm9vo/+etXGfxM+W7RstZPeAVFdwFUxGx3TYRTzu+o5+Ehf699RhCdD6vu00XiKch3pm4cRwKPor11tfDFmoyvqC+iva208RrgHC2sYcDbpHZ/YVywCjsfv+m1ww4Evk9574r5iKXAWCS8gStyOhBPX1Nexd7wJ7BWz0RWzJ6FP1de1d7xO2Ka6FMYRVrEuRd+xtbEQ+Ge8EtoatzFwLmHvdvV9XBuLgC8BY6K1vjo+gf561sbz+BVlFsaT5s62n4zZaJXRwGcInzSoO/ge4Fh8/ra1biRwEmk8Ln4AOJGCPzpM0E/QX9vauB5oi9nokmsjzXU9P4nZ6FTMRNfBu+fQPqum3YHLgRfJ736eD1wE7JxD+6pqNGluenZyzEaX3Inor19tPEm41ypB1clmsbUB7yKcNHcbsJzs7t/lhC9tTgHeiVeF5+VdhGNY1ZNE73gDeHfMRpfUbqR3DPRqYNeYje6L8hGSajL2YzPLWzswnfADvg1hG+2phC14RxIWzI4mbPiyEniVsMhwBeG3gie6Y073n2tzrb31OB74proSNeYSkpNl6ooUxBjgPmArdUVqnEh691ZUfgJgZkUzC/1vi7VxbdQWl8vV6K9XbdxABX8xdQJgZkUzlvBbt3rSqI1Px2x0SXwa/XWqjecJZ49UjhMAMyui3UnvHfIqYJeYjS447+mQGCcAZlZUp6GfQGrjCWBUzEYX1AjCznrq61Mbp8VsdOqcAJhZUbUBs9FPIrVRie/IG/QD9NelNm6m4l/wOAEwsyLbCHgB/WRSG8dFbHPRHIf+etTGS4SD8yrNCYCZFd0+pHeG/Epg+5iNLohtyHYPjixiHbBfzEYXhRMAMyuDs9BPLLXxCOHgqqraALgf/XWojbNiNrpInACYWRm0A79GP7nUxpUxG524K9H3f238FhgSsc2F4gTAzMpiIvmeAVFvfDRmoxN1BPp+r42XCTt/WjcnAGZWJvuS3nqAFcCMmI1OzFaErbTV/d471gHvj9noInICYGZlcx76Cac2HiS8Ey+7ocAf0Pd3bXwtZqOLygmAmZVNB/A79JNObVwas9GJuAx9P9fGHwiJidVwAmBmZbQ5sAj95NM7OoFDYzZa7EBCG9X93DteIZz6aX1wAmBmZXUA6U1ISwlHUZfNZGAx+v7tHZ3Ah2M2uuicAJhZmV2MfiKqjXuA9WI2OmcdwO/R92ttXByz0WXgBMDMymwocBf6yag2zo/Z6Jydj74/a+NeypVkReEEwMzKbgqwBP2k1Ds6gYNjNjonHyR8Yqfuz96xHJges9Fl4QTAzKrgcPQTU20sBDaL2ejIUt146eiYjS4TJwBmVhVXoJ+cauN2irk1bTtwC/r+q40rYja6bJwAmFlVrA/8Cf0kVRvnRGxzLOeg77faeBgYFrHNpeMEwMyqZGvSPJ7272I2OmN/Q3rbLa8EtovZ6DJyAmBmVXMk+gmrNl4CJsVsdEY2Auaj76/aODZmo8vKCYCZVdFV6Cet2riVtNcDtAO/RN9PtfH9mI0uMycAZlZFI4BH0U9etfHFmI1u0RfR909tPA6MitnoMnMCYGZVtQPwGvpJrHe8CewVs9FNeg+wBn3/9I5VwDtiNrrsnACYWZV9Ev1EVhvzgAkxG92gccAz6PulNj4Rs9FV4ATAzKruR+gns9q4EWiL2eg6tQE/R98ftfHTmI2uCicAZlZ1I4E56Ce12jgpZqPrdDL6fqiNp4DRMRtdFU4AzMxgZ8I7ZfXk1jvWAHvEbPQgdgPe6KNeylgNvCtmo6vECYCZWXAC+gmuNp4GxsRsdD9GEVbYq9tfGyfEbHTVOAEwM3vLLPSTXG1cG7XFfbu6hfrGihtIY11EaTgBMDN7y1hgLvrJrjY+HbPRNf4xYjuajedJ68uIUnACYGb213YnvXffq4BdYja6247A64L2DRSp7o1QeE4AzMze7jT0E19tPEHcXe9GAI8l0M7aOC1imyvNCYCZ2du1Adejn/xq4ycR2/yDBNpXGzcTziCwCJwAmJn1bSPgBfSTYG0cF6GtxyXQrtooygmJheUEwMysf/sAa9FPhr1jJbB9hm3cBlieQLt6xzpgvwzbaH1wAmBmNrCz0U+ItfEIMDyDtm0A3J9Ae2rjrAzaZoNwAmBmNrB24NfoJ8Xa+G4GbbsygXbUxm+BIRm0zQbhBMDMbHATgRfRT4618dEW2nREAvWvjZeBTVtokzXACYCZWX32Jb31ACuAGU20ZSvg1QTq3zvWAe9voi3WJCcAZmb1Ow/9RFkbDxLe5ddrKPCHBOpdG19roA2WAScAZmb16wB+h36yrI1LG2jDZQnUtzb+QEhMLEdOAMzMGrM5sAj9pNk7OoFD66j7Qd3/rrq+veMVYGoddbeMOQEwM2vcAaQ3kS4Fpg1Q58nA4gTq2Ts6gUMG6miLxwmAmVlzLkY/gdbGPcB6fdS1A/h9AvWrjYvr6mmLwgmAmVlzhgJ3oZ9Ea+P8Pup6QQL1qo176TtZsZw4ATAza94UYAn6ybR3dAIH96rjBwmf2Knr1TuWA9Mb6mnLnBMAM7PWHI5+Qq2NhcBmpLuB0dFN9bRlygmAmVnrrkA/qdbGbd2hrkdtfKfJPraMOQEwM2vdBsCf0E+uqcfDwLAm+9gy5gTAzCwbKR6rm1KsBLZrunctc04AzMyycyT6iTbVOLaFfrUInACYmWXrKvSTbWrx/ZZ61KJwAmBmlq0RwKPoJ91U4nFgVEs9alE4ATAzy94OwGvoJ191rALe0WJfWiROAMzM4vgk+glYHZ9ouRctGicAZmbx/Aj9JKyKn2bQfxaREwAzs3hGAnPQT8Z5x1PA6Az6zyJyAmBmFtfOhHfh6kk5r1gNvCuTnrOonACYmcV3AvqJOa84PqM+s8icAJiZ5WMW+sk5dtwAtGXVYRbPTHQ3ye45tM/MLCXjgGfRT9Kx4tnuNlqixhIeRT2M/mb5H+AfCIdomJlVwUxgDfrxN+tY0902S9AE4J+BV9HfKLWxCPgazhzNrBpOQz/uZh2nZdpDlonhwFcpxglVi4ETgaFResLMLA1twE3ox9ys4ib83j85BwPPoL85Go0ngCPwDWVm5bUR8AL68bbVeAmYlHHfWAs2AW5Gf2O0GrMIry7MzMpmIvB79ONsq3EnTgCScRjhUbr6psgqXgD2y7SHzMy0DgZeRj++ZhWLgP8v0x6yhnQA30J/I8SIdcDX8doAMyu2DuCbQCf6cTVGfKO7jZajDYFb0V/82PErfKa0mRXTWMIYph5HY8dtwPiM+swGsSXwNPqLnlfch983mVmxbAX8Gf34mVf8GZiWRcdZ/7YD5qO/2HnH08A2GfSfmVls0ynHav9GYwFhjrIIdgIWor/IqngZJwFmlrZtCROherxUxYvdfWAZmkY1f/Ovjafx6wAzS9MWhAlQPU6qY0F3X1gGNgTmoL+oqcRDhMU1ZmapGE0a562kEk8SNj6yFgwFfof+YqYWv8KfCJpZGoYCv0E/LqYWt+NxuiWXoL+IqcbXW+hXM7OsXIZ+PEw1LmmhXyvtCPQXL+VYh3cMNDOtgynvJj9ZxeFN925FbQIsQX/hUo8X8NkBZqaxGWFLXPU4mHosBTZvso8r6Qb0F60oMavJPjYza8Uv0I9/RYkbm+zjyvkY+otVtPhwUz1tZtacQ9GPe0WLI5rq6QoZSbU3kWg2ngLWa6K/zcwaNRx4Bv24V7SYR5jjKq+9n3/+ecL7f2vMVsCn1ZUws0o4He9734zNgVPVlUhBWx//bBPC5gkjcq5LWSwhbBW8VF0RMyutcYTf/seoK1JQywkH2i1RV0SprycAJ+LJvxUTCE9QzMxiOQVP/q0YjZ8CvO0JwGjgeXxjtWoRMAVYra6ImZXOGMI4PVpdkYJbBkwGVqgrolL7BOBTePLPwkbAR9SVMLNS+hie/LMwBvjf6kqk5HH0KzTLEv/TYN+bmdXjQfTjW1liToN9X1oz0V+MssXuDV0BM7OBeZzOPt7T0BUokY5e//lYWS36tw64C5gN3AnM5a3V9eMIqzj3Bg4h/GAMEdRxIPeoK2BmFlnRx+ljqfhY3Q68jD4T64nXgQuAjRtow8aEk/lWJVB/h8PhKHu8DpxP8cfpBfT9SXxl7Ib+IvTEtYSVmc2aQtiXX90Oh8PhKGtcS2sH66Q2Tu/WQlsKq+dRzMeBfZUVIRxl+WXCPgTLWvh7lgHXEB5LvY+KZ3ZmZhnqPU4vb+HvSW2cXgDcLq6DzB1os691wJER2nU0PiPb4XA4sohY4/RR6MfpWyK0qxCGACvRdv4ZEdt3lrhtDofDUYb4EvGcKW7bSv56UXxlbI+2468l7uOfNtJ61+RwOBxFi58Rf5z+f+I27hSxfUlqB3YVlr+KsKd1V8QyuoCT8La8ZmbNWAWcTPxx+mS04/QOwrIl2oHpwvK/STibObbngctzKMfMrGzyHKe/lUM5/dleWLZEOzBVVPY64OIcy7uIsNDEzMzqk/c4/Q104/TWonJllAnAncDCHMt7Gbg7x/LMzIquSuP0pqJyZdrRNfp6QZmzBWWamRWVYpy+TlAmwCRRuTLtwAhR2XdWpEwzs6JSjJl3CcoEGC8qV6YdGC4q++mKlGlmVlRVGqc3EJUr0wa8iWYDhPWBNYIy/TmgmVl9qjROrwWGCsqVaccr483MzNapK5C3dmCFqOyxFSnTzKyoxgjKVI3TqrlQpp2wB7LCloIyK/edp5lZC7YSlKkapyuZAKgavXdFyjQzK6q9BGWqxulWjjcupHbgVVHZhwjK/JCgTDOzoqrSOL1MVK5MOzBXVPZMYOMcy5sE7JFjeWZmRbcn1RmnVXOhTDvwuKjsIcDncyzvVEJ7zcysPkOAz+VYnnKcniMqV0aZAAAcD0zJoZxpwGdyKMfMrGxOIJ9xeiracVo5F0qoE4ANgEsJGxLF0tZdxvoRyzAzK6sNCCcCln2cfkJYtkRPAqD6FBDgUODLEf/+s9AsZDEzK4vDgDMi/v1nAh+O+PcPZgUVTAB63Ax0CaMTOCpCuz7a/Xcr2+ZwOBxliHXAkWTvaPTj9I0R2pW8nsUWt0lrER7/XA2cTzYLQNqA04EfEvexlZlZVbQDPyaM01mMqz3j9H9m9Pe14lZx+VK7os8ue2IWrS04mUo4T1rdDofD4Shr/AyYTPOmAj9PoB098c4W2lJ4Q4CX0F+EnlgFXAhMbKANk4CLCKdIqevvcDgcZY9VwNdpbJyeSBjbVyVQ/56YT0U/Ee/92OUS4CRVRfrRCdwNzAbuJJwTvZRQ77GEPaP3Iizy24OKXkQzM6H+xmmAcYTzBHrG6ZmkN05fRNh/oNLehT4TK1t450Ezy9JM9ONa2WLnhq5AiT2E/mKUJR5ssO/NzOrxAPrxrSzxQIN9Xyq1j2KuktSinK5UV8DMSul76gqUSKXnvNpPL0YCzwIT8q9KqSwlbD9cueMlzSy6MYRxeqy4HkW3mDBOvyauh0ztE4CVwDcVFSmZy/Dkb2ZxLAO+pa5ECVxKhSd/6HvzhTHAc91/WuOWE7LKpYP8e2ZmzRpPeAowSlyPolpGGKdfFddDqq/PMZYRfoO15nwDT/5mFtcrhAN6rDkXU/HJfyDDgLnoV2gWLZ4DhjfR32ZmjRoGPIN+3CtaPEU44dAGsD/6C1W0UJ5mZWbVcwT6ca9ocWBTPV1Bs9FfrKLE7Cb72MysFb9AP/4VJWY12ceVtDnhUwn1RUs9Xqax/bDNzLIyCViEfhxMPRYCmzXZx5W1P/qzmlOPw5ruXTOz1h2CfhxMOTqBg5vu3Yq7AP0FTDW8EtfMUnAZ+vEw1TivhX6tvA7gdvQXMbX4FeEoZTMztQ7gFvTjYmpxW3ffWAvGAQ+jv5ipxJzuPjEzS8UE4En042Mq8RDeMjkzm+LvTruAeYRdpMzMUjOZsEugepxUx7zuvrBV6hncAAACH0lEQVQMbUtYTam+uKp4Edim5V40M4tnBuHrJPV4qYqF3X1gEWxLNTPM54HtWu8+M7PodgReQD9u5h3P4Mk/uk2AB9Bf7LziMWBKJj1nZpaPTQnvwdXjZ17xCGH/GsvBOKrxdcCthNO3zMyKZgLwW/TjaOy4DS/4y10HcA6wDv0NECOuBIZm1VlmZgIdwPmUc1O3TsIeCB6nhQ6gXNtRLsE7/JlZuRxOGNvU42tWsRD4YKY9ZE3bHLgO/U3Raswi7K9tZlY2m1Cecdp7+yfoIGAu+huk0XgO+EiE/jAzS81RhG/l1eNuo/EU4YmzJWwYYW3Aq+hvmMFiOfDF7jqbmVXFcODLwAr04/BgsRQ4C9ggSk9YFGMJN1iKxwovAb4KbBSt9WZm6dsYOBd4Bf24XBuLgC8BY6K13qIbCZwIPIj+hnoEOAEYEbXFZmbFMhI4CXgU/Tj9AGHO8DhdMu8AvgEsIL+b6UXgW8BuObTPzKzodgcuJ4ydeY3T84GLgJ1zaF/ltYnLbyckA/sC+wH7EDLQLCwH7gN+DfySt3YtNDOz+rUBuxA+t/t7YFdgVEZ/9wrgDsJma7cSdi3szOjvtkGoE4BaHYQ9nGcA07v/3IaQFIwirCcYCQwhTPCrgJWEJwnPEc4neIIw8T+JbyQzs6y1E8bnXQnj8zRgKmHb4ZGExdSjCZvDrSQsBF/RHU8SxugnCEeqPwGszbX29hf/P+x6SSgcV4P5AAAAAElFTkSuQmCC;" vertex="1" parent="1">
                    <mxGeometry x="331.25" y="746.25" width="41.75" height="41.75" as="geometry"/>
                </mxCell>
                <mxCell id="67" value="" style="shape=image;verticalLabelPosition=bottom;labelBackgroundColor=default;verticalAlign=top;aspect=fixed;imageAspect=0;image=data:image/png,iVBORw0KGgoAAAANSUhEUgAAAgAAAAIACAYAAAD0eNT6AAAABHNCSVQICAgIfAhkiAAAAAlwSFlzAAAOxAAADsQBlSsOGwAAABl0RVh0U29mdHdhcmUAd3d3Lmlua3NjYXBlLm9yZ5vuPBoAACAASURBVHic7N15mFTlmT7++z1LVfXG2s2OIioqiBu4RImg0WgvgBsxaiaj0Wj2aJIZM8lMxCS/yWQd/SaZqInGJJqJwXGDpmlUwF0UxA1EXFBbtm727q6uOtv7+6PBoLJ0d9Wp55yq+3NdXLli7HPuFNXnfc67AkRERERERERERERERERERERERERERERERERERERERERERERERERERERERERERERERERERERERERERERERERERERERERERERERERERERERERERERERERERERERERERERERERERERERESSlHQAIuobPWNGVcZxBpu2XaN8f3BgGINVEAzWSg1WSg2G1oMVYAZAuQKS3T+k+0MpA4AFoGrXpXYC8KF1AKV2AIAGsgaQ1oAPpbZorbcorbdow9hiBMEWDWz2g2Bzqqpqs5ozp0PkAyCinLAAIIooXV8/0DGMEUYQDNfAWA2MNXb9J4DDAfSTzrhLFsA6AG8DeFsBbwfA24ZhbPCDYH2qsfFt4XxEtBcsAIiE6bPO6u+VlU3UQTARwLEAJgKYAKC/bLK82Q5gJbR+BYbxkvL9VyzgFdXUtFM6GFEpYwFAVEB6+vTqbBCcqoCTDK2P0UpNBDBGOpeQtQp4JQBe0UotTSr1jJo7d7N0KKJSwQKAKESZ+vqxhlJTAEyC1qcBOAH8vduft6HUUwCWQ+sn7cbGFxSgpUMRFSM+iIjyKHPuuUcYplmrtD5TK/UJANXSmWKuTQHPaKUWBUHQlJo/f410IKJiwQKAKAd6+vRyLwhODYCzFDADwFHSmYrcWgAPa+CRRBA0cx4BUd+xACDqpUxt7aGmYZyngXMBfBK7l9hRoWUAPKGUWuApdX/Z3LlrpQMRxQkLAKIeSM+cOdry/Qug9SwAp4K/O1G0Sis1RxvGXamHHnpTOgxR1PEhRrQP6draUZZpXshGP5a6iwGt/8x9CIj2jg80oj3oWbMq3XT6YgBXgI1+MQgAPAWl/mg7zt/VwoWd0oGIooIPNyIATn39JCj1eWj9TwAGSuehUOwE8DdlGH+x5859UjoMkTQWAFSydG1tP9cwPgvgGnSvz6fSsUoBf7Y87/equXmrdBgiCSwAqORk6+uPVsC1AC4BUC6dh0R1AvibNoz/Ts6du1I6DFEhsQCgkuFOnz4l0Pp6pXU9+N2nj3sqUOqnyXnz5nH3QSoFfAhSUdOTJtnOsGHnKeA7AE6SzkOx8BKU+pW9YcP/quXLXekwRGFhAUBFSc+YUeUFwZeh9dc1MEo6D8WQ1i1KqZut8vJb1Zw5HdJxiPKNBQAVFT19ermr9Re11t9VwDDpPFQUNivgF5Zh/FrNnZuWDkOULywAqCjoWbMSbjp9uQJu0MAI6TxUlNoU8Eurs/NmtWRJRjoMUa5YAFCs6UmTbHf48Eug9WwAh0jnoRKgdQsM45e279+impqy0nGI+ooFAMWSBpTT0HCp0vrHAMZI56GS9LYGvp9obLyHqwYojlgAUOw4dXWTodRNAE6TzkIErZ9XhvFNe968Z6SjEPUGCwCKjc4ZM0bYvn8DgKsAGNJ5iPagFXCvZxjfKZs79z3pMEQ9wQKAIk/PmpVwu7q+DK1/BKBKOg/RfnRqpX6R6Oj4L04UpKhjAUCRlq2rm6mUuhnAwdJZiHphraH1N6z58+dJByHaFxYAFEl6xoyhbhD8fNfpfESxpJWa5wNfKp83b510FqKPYgFAkZOtr5+lgN8BGCydhSgPtgO43m5s/D1XC1CUsACgyMjU1481gFsAnC2dhSgEjwdafzE1f/4a6SBEAAsAigA9a5bpdXZ+Syt1I4Ay6TxEIUor4AdWeflNas4cXzoMlTYWACSqq67uYFOpPwM4XToLUcEo9Wzg+59LNTW9JR2FShcLABKza6z/VgADpbPEklLQ/fsjGDIEeuBA6Koq6MrKD/6gsrL7n5WXQxsGoBRQXt79s5YFnUx2XyabBTyv+5+n04DWUEEAlU5DtbcDHR1Qu/+0t3f/2b4dRmsr1I4dgOawdh/thNZfS8yf/xfpIFSaWABQwena2n6uaf6GM/x7RtfUIBg1Cv6oUdDV1d3/vboaQXU1YNuy4VwXxubNMDZvhmprg2prg7FuHcyWFqjNm2WzxYQC5ljANaqxcZt0FiotLACooJza2lNgGHcBOFQ6S+RYFvwxYxAcdFD3n9GjEYwaBb37rT1mVDoNo6XlH3/efRfmu+/+o7eB9vSu0vrz9vz5j0sHodLBAoAKQs+aZTrp9A0K+B4AUzpPFOiyMvhjxyIYNw7BEUfAHzcOWvqNPmyeB6OlBeaaNd1/Xnute5iBAMBXWv/IOumkH6nZswPpMFT8WABQ6PT55w92HOduBZwjnUWSTibhjx8P/5hj4I8fj2D48O5x+VKmNYz162GuWgXz5ZdhrloF5TjSqURpYEHC8y5Tzc1bpbNQcSvxpw+FzamrOw5K3QfgEOksEvSQIfAmTIB//PHwjz66+N/wc+X7MN96C+aKFbBWroSxdq10IinvwTAuSsyd+7x0ECpeLAAoNNn6+s/tmuUfz0HsPgoOOQTeySfDPekk6Joa6TixplpbYS9dCuu552C88450nELLAPhqorHxDukgVJxYAFDe6WnTLKei4scKuF46S6EEI0fCO+kkeJ/4RHfXPuWdamuD9cILsJ57DuaaktpM7za7vPzras6c0h4bobxjAUB5pWfMGOr6/v0APiGdJWxB//7wTj8d3ic/yUa/wIz162E9/jisJ56AsXOndJxCeMp23QvUwoWt0kGoeLAAoLzJNDQcbmjdCOBw6SyhUQre+PHwzjwT3gknAJYlnai0BQGs116DtWgRrGXLgKCoJ8+v1UB9srHxNekgVBxYAFBeuLW1p2nDeABAtXSWMAT9+8M74wy4U6dCVxfl/8XYU21tsB9/HNaiRcXcK7BNKXWBPW/eEukgFH8sAChn2YaGi5XWdwJISWfJNz1sGJyzzoJ35pmcwR8Xngfr2WeRmDcPxrp10mnC4GjgymRj413SQSjeWABQn2lAOQ0NNyitf4Ai+y7548bBbWiAd9xxXKsfV1rDWrUKdnMzzBdfLLYzC7RW6oeJefNuVEBR/R+jwuGTjfpET5pku0OH/gFKfV46S94oBW/yZDgzZiAYM0Y6DeWR8c47SD74IMzly4urEND6j3Y6fbVasoT7K1OvsQCgXtO1tUlPqb9ppc6TzpIv3oQJcC6+GMEhJblfUckwWlqQeOABWM8/XzSFgFZqXqKjY5ZasiQjnYXihQUA9YqePr3cDYIHAJwtnSUf/HHj4MyaBf/II6WjUAGZb72FxIMPwlyxQjpKviy2y8tnqDlzOqSDUHywAKAe07NmVbrp9EMAzpDOkit/7Fg4l14K/4gjpKOQIHP1aiT/939hvP22dJR8eNIOgnrV1FS0SyAov1gAUI/o+vqBLtAE4GTpLLnQAwbAueACuNOmcXIfddMa1vPPI/nXv0Jt2SKdJlfLbcM4V82du1k6CEUfn4B0QHrGjKGu5y2EUsdIZ+kzy4L7qU/Buegi6FTRrVakPFDZLOzGRtjz5kG5rnScXKxyTfPsioceWi8dhKKNBQDtl66rG+Yq9RiAcdJZ+so78URkL7mEB/NQj6i2NqT++leYy5ZJR+k7pV63g2Camj9/o3QUii4WALRPevr0ajcIFgM4WjpLXwQDBsD5/OfhnXiidBSKIWvFCiTvvBNq61bpKH31qp1ITFP33x/7cQ0KBwsA2itdW9vPNYxHAUyWztJrSsE77TRkL7sMurJSOg3FmEqnkbjvPtgLF8Z12eCLNnCmamzcJh2EoocFAH3MrqV+TQBOl87SW3roUGSuuAL+hAnSUaiImGvWIHn77TDWx3JY/Rm7vPzTXCJIH8UCgD5Ez5qVcNLpBxVwrnSWXlEKTm0t3Isu4p79FArlurD//nckmpvj2BvwqN3Z2cDNgmhPLADoA3rSJNsZPvw+pXWDdJbeCPr1g3P11fCOPVY6CpUAc+VKpG69FWpbvHrVFfCQtXHjRWr58lgvcaD8YQFAALoP9nEbGu6C1pdKZ+kNf/JkZK68kmP9VFAqnUbyj3+E9eyz0lF6R+s/2/PnX84DhAhgAUC7ZOvrf6yA70vn6Clt23AuvhjuOedIR6ESZj35ZPdKgWxWOkqPaaVuTM6bN1s6B8ljAUBwGhqugNZ3SOfoqWDYMGSuvRbByJHSUYhgbNiA1M03w1i3TjpKT2kAVyQaG/8kHYRksQAocW5DwzStdTOAhHSWnvCPPx6ZL30JurxcOgrRB1Qmg+Rtt3WfMhgPrgLq7MbGR6SDkBwWACUsW1s7XhnGUwAGSGc5IMOAM3MmnPPP5x7+FE1aI9HYiMScOUAQSKfpiZ1a6ynJ+fNfkQ5CMvgkLVH6nHOGu5b1DICDpbMciK6sRParX4V3dCw3JKQSY772GlK//S3Ujh3SUXriHVvrT3DL4NLEAqAE6WnTUm5FxROIwS5/wYgR6PrOd7iPP8WKam1F2S9+AWPDBukoPbHUDoKpqqkpPjMZKS9YAJQgp77+DwCulM5xIP64cchcey10VZV0lD5xtu1A55tvo/O9FqTffR/plvfhbt0OvysDt70dQSaLIN6nzuXMsG0YqSTsqiqYZSnYgwagfPQolB88ChUHjUbl4WNhD+gvHbNPVGcnUjffDPO116Sj9MRticbGa6RDUGGxACgxTkPDl6D176RzHIh38snIXnNNrHb1C7IOti5bge0vvIRty15Ex9vvxHHHuEhRhoGKsWMw4IRjMWjysRg4+QQYifh8J+B5SN1+O6wnn5RO0hNXJRobb5cOQYXDAqCEOHV1J6P7aN+kdJb9cc85B9nLLovNZL/21W9gY/Oj2LRwMdwdO6XjFDWrsgLVU07BsHPPwsBJx8bjO6I1Evffj8QDD0S9IMzAME5PzJ0bm6UMlJsY/PZQPuhPf3qIZ9vLNTBKOss+GQayV14J9/Ton0EUOC42LngELX+9F+n3Y3lATOyVjx6Jgy6dhaHnngkjBj1F9pIlSP7xj1FfIfCeHQSTVVNTm3QQCh8LgBKgp02z3IqKhwFMk86yT6aJzFVXwZsyRTrJfgVZB+seaETL3/4P2TYesx4FyZpqHHTpRRgxsy7ywwPW0qVI3XIL4HnSUfbnUbu8/Bw1Z44vHYTCZUoHoPB9b8KEnyogunv8Wxa6vvY1+KecIp1kv7YuW4FXvnsjNj28GH66SzoO7eKn09i6dBlaH1mCslEjUD46ujtEBqNGIRgzBuayZVDR7QkY67uu9eM33lgkHYTCxR6AIufW1Z2tlWpGRP+udSKB7HXXRXqNf7a1DW/cfCvaHntKOgr1QM3U03D4tV9GsmawdJR9Ml97Dalf/jLKZwgEKgjOtpuaWAQUsUg2CpQfevr0aicIXlbAcOkse6PLypD5znfgjxsnHWWfNj/5LFb/56/g7myXjkK9YFVW4MjvXouaadEdUjJff727COiKZm+SAtZZicSx6v77OdZVpDgEUMT+/fDD7wRwsnCMvdKJRHfjf8QR0lH2Svs+3r71Trxx0+8QRPctjfYhcFy0Ln4SXns7Bk46FsqM3qNOV1cjOPJIWM8+C+VHcri9n/b9w370xht/lw5C4WAPQJFy6uqugVK3SOfYK8tC5tpr4R17rHSSvfLaO/Dy9bOx4+WV0lEoDwYcPxETf/IDWJWV0lH2ylq5Eslf/hIqqptCKfWFxLx5f5SOQfnHAqAIZWbMOMzw/RUAovfEsyx0feMb8I8/XjrJXjlbtuKlb/8HOt58WzoK5VHFIQfj2F/9GMmaaukoe2UuX46y3/wmqqsDOgOtT0jNn79GOgjllyEdgPJLT5tmGb5/F6LY+BsGMldfHdnGP/3+eiz/0rfY+BehzrXvYsVX/wVd66K5N78/aRIyX/kKYETykVxhKHW3njQp2mssqdci+W2jvnMqKv4DURz3VwrZK6+E94lPSCfZK2fzVrx03feQ2bBJOgqFpGv9Rqz4+vXItkZzjxvvxBORveIK6Rj7MtkbNuy70iEovzgEUESy9fVHK2A5gIR0lo9yzj8fzgUXSMfYK6+jEyu+fj063nhLOgoVQMXYMTjhtz+HVRW9TjIASNx7LxIPPigdY28cHQTHJ5uaVkkHofxgD0CR0LNnGwq4FRFs/L1TToFz/vnSMfYqcF28/K83sPEvIZ1vv4NXvvdDBNEcb4dz4YVR3REzoUzzdj17NtuNIsG/yCLhPv/8NwCcKp3jo/wjj0Tm6qsje2jL27f8kbP9S9D2Fa9g7W1/ko6xd0ohc+WV8CdMkE7ycVqf4j7//JekY1B+RPOpTL3SNX36QWYQrETEJv4FI0ag6wc/gK6okI6yV5ufeAavfO9HoZ/Qlhg0EAMnHYd+449A+ZjRSA0fhkT/fjDKUjAsK9R7R13geQi6MnB27ERmw0ak32nBzpWrse2Fl+Bs3RbuzZXCMT+9AYNPjd6UGQBQHR0o++EPYWyI3MTFnZ5lHV3+4IMt0kEoNywAioBbV/eQVmq6dI496aoqpG+8EbqmRjrKXmVb2/DcP38FXntHKNe3+/fD0E+fgaHnnIl+R0Z3p8Moa1+9BhsXPIpNDy8J7Zhlu38/nHjn/0R222DV2oryG26A6gjne9pXGpifbGysl85BuWEBEHPZ+vrPKeAv0jk+RClk/uVf4E2cKJ1kn179/o9D2ds/WVON0ZdciJEza2Ekk3m/finyMxmsf7AptBMYa6ZNwdE//n7er5sv5sqVKPvZzyJ3jLDW+uLk/PncJTDGWADEmJ4xo8rx/TUKGCadZU/OZz8Lpz66Lwdbn1uOl77173m9pmFZGHF+PcZefTnMslRer03dgmwW7919L9696x4ETn53zTvm5z/E4E+cmNdr5lPiwQeRuPde6RgftckOgnGqqSmc7hkKHScBxpjj+z+IWuPvT5oEp65OOsY+BVkHa37x27xes/ygUZj0h5tx+De/xMY/REYyiTFfuAyTbv1vlOX5yN83/9+teS8q8smZMQPeiZErUIY6SnFvgBhjARBTmdraQxXwdekcewqGD0fmmmsiO+MfANY90Iiu9fmbVFUz9TRMvv3XqDxsbN6uSftXefihOPH2X6Nm6ml5u2a6ZR02zFuQt+vlnVLIXn01ghEjpJN8iFLq25kZMw6TzkF9wwIgpkyl/htAZAaZdTKJzHXXQZeVSUfZp8Dz8P7fH8jb9YbXnY0JP/w3vvULMMvLMOGH38OI8/I31PTuXXMQRPVAHgA6lULm61+HTkRqq4+EGQT/JR2C+oYFQAy5tbVnRm3Wv/NP/4Rg+HDpGPu1cf7DyGxqzcu1Rsysw5Hf+1Ykj5ktFco0cMR3voZRF83Iy/WyrW3Y1LwoL9cKSzBqFJzLLpOO8SFa6wvdurqzpXNQ77EAiBk9a5apDeMm6Rx78idPhjt1qnSM/dMaLX/NzySqmqmnYdy3vpqXa1HuDvv6Nag5PT97YL1795zQ94XIlXvmmfAnTZKO8SFaqZ/rWbNYDccMC4CYcTs7vwQgMuvr9MCByFx5pXSMA9r+0qtIv78+5+uUjxqx682fvzpRoUwDR/3Hv6D8oFE5X6urZR12rFydh1Thylx5JYIBA6Rj7OlYN52O/oOAPoRPsRjRs2ZVQqkbpHN8QClkrrkGujJSGxDu1cbmR3O+hmHbmPDj78OqKM9DIsonsyyF8bO/m5edFTc2PZKHROHSVVVwIjbhVgM36unT+csRIywAYsRLp78BIDJb6znnnhvN/co/InBctC3OfdOf0Refz9n+EVY17lCMnDUz5+u0Lno80ksCd/OOPhruOedIx/iAAoZ5vs+xsRhhARAT+qyz+mvg29I5dguGDYM7a5Z0jB7Z+vwL8HLcSjVZMxgHX35JnhJRWA75wueQGDwop2t47R3Y/sJLeUoUruxnPhOppYFaqev1jBlV0jmoZ1gAxISTSl0HILcnW74ohexVV0HbtnSSHsnHw3z0JRfBTHG5X9SZZSkcdOlFOV9nW0wKANg2sldcEaWhgMGe739DOgT1DAuAGNDnnTdAaf1N6Ry7uWeeCf+II6Rj9Ni25bk9zO3+/TByZm2e0lDYRsyshd2/X07X2Lb8xTylCZ9/5JGRWoWjge/o+vqB0jnowFgAxIDjOP8KIBJTfvWAAXA+8xnpGD3mbNuBjrfW5nSNoWdP48E+MWKmUhh61rScrtHxxttwd7bnJ1ABOJdcAj0wMm3uAAe4VjoEHRgLgIjT06dXK6W+Jp1jt8zll0OXx2eib8ebb+W8rnvouZ/KUxoqlGE5/p3pIED7mjfzlCZ8urwcmSuukI7xAQV8S9fWRmbCMu0dC4CIc4LgOwAiManGO/HEyG1AciDpd9/P6ecTgweh3xGH5ykNFUrVkYfDHphbp1lXS+77RhSSf/zxUfr9rHQMIzLDlrR3LAAiTM+YUaWAa6RzAIC2bWQvid8s+PR7uRUAA084NkoTrKinlMLAE47J6RJdLbl9dyRkLr00MpNzFfAVPWtW9DcJKWEsACLM9byrEJGxf7e+Hromfj166Rwf4v3Gx2eyI31Yv/FH5vTzne+25ClJ4eghQ+Cee650jN0Guul0dMYl6GNYAESUnjXLRETG/vXAgXAbGqRj9ImzZVtOP18+ZnSeklChVRyc29+ds3V7npIUljtzZpS2Cb6OZwREFwuAiHLS6VkAIrHtXPbii6FjOgve7+rK6efLRkb7hEPat9So3DbI8TvTeUpSWDqZhBOdTboOcbq6zpcOQXvHAiCiVESW0QSHHALv1PyctCYh14e4FYNzDmjv7MqKnH7e74pnAQAA3ic/CX9sJN4foILgX6Uz0N6xAIggd/r0qQBOls4BANnLLov1JDi/K5PTz5tl3P0vrswcl6t6Me0BAAAoBeezn5VO0U2pE93p06dIx6CPYwEQRUFwnXQEAPAmTozVjn97E7i5HepiRGRGNfWekcjt7y4OBwLtj3/UUdE5rCsIviUdgT6OBUDEpGtrR2kgEjPu3AsvlI5ARDlwIvI7rIEZ6ZkzOaM2YlgARIyt1JUAxGfN+scfD//QQ6VjEFEO/MMPh3dMbvsh5Ilpu+4/S4egD2MBECF69mxDKyW/blYpZC+4QDoFEeWBc9FFkZjHo5W6Us+ezTYnQviXESH+0qXnADhYOoc3eTKCMWOkYxBRHgSHHAL/+OOlYwDAGO+553iwRoSwAIgQbRhflM4AAM6MGdIRiCiPsjNnSkfoplQknnHUjQVAROi6umFRmPznTZjAt3+iIhOMHQv/yNy2Rs4HDczUn/70EOkc1I0FQER4hnEFAPE1Z15dnXQEIgqBE43f7YRn25+XDkHdWABEhNZafPJfMHw4vIkTpWMQUQj8445DMCK37ZHzQQNfkM5A3VgARIBTXz8JgPih825DQyRmCxNRCJSKykmBR2VnzIjE2sRSxwIgArTWnxHP0L8/vE98QjoGEYXInTIFQf/+0jEA3xd/5hELgEhQSolv1+WecQY0t70lKm62DW/aNOkUUEBEDioobSwAhDl1dScDkN1yTym4U6eKRiCiwnCnTo3CUN+hzvTpJ0iHKHUsAOSJd4V5EydCV1dLxyCiAtA1NfDGj5eOAR0E4s++UscCQJAGFKLQ/R+BLkEiKhzvjDOkI0ABn9GAeFdEKWMBIMirrT0Vwlv/Bv36RWWbUCIqEG/SJOh+/aRjHOI2NJwoHaKUsQAQFBjGedIZvKlTAcuSjkFEhWRZcE89VToFNHC+dIZSxgJAkALEt+byPvlJ6QhEJMCLwMRfpXUkNiYoVSwAhKRra0cBEJ2JExx8MILhwyUjEJGQYNQoBCNHSsc4tnPGDPntCUsUCwAhlmHIv/2ffLJ0BCISFIFngLKD4BzpEKWKBYAQpXWtdAb3pJOkIxCRIO+UU6QjABwGEMMCQICeNMnWSomuwwnGjoUeOlQyAhEJC4YPR3DQQdIxztbTpnEmsgAWAAK8YcOmABDdkNvj2z8RIRLDAAO9sjLxEKWIBYCAIAJdXu6JXH5LRNEYCgxMU/yZWIpYAAhQSn1K8v7BiBHQQ4ZIRiCiiNDDhkEPGyaaQQFniQYoUSwACkzPmlUJ4FjJDN4xPIqbiP7BO1b0kQRoPUlPn14uG6L0sAAoMC+dPgWA6ISX4LjjJG9PRBHjT5woHcH2fH+ydIhSwwKg8ET339TJJLxx4yQjEFHE+OPHQycSsiGUmiIboPSwACiwQOvTRO8/fjxg25IRiChitG3DP/JI0QwBIPpsLEUsAApIz55tKKVEl7tw/J+I9sYXfjYo4FQ9ezbbpALih11A7rJlEyG8/t+fMEHy9kQUURF4Ngxwnn9e9HyUUsMCoJCEu/91VRUC4eU+RBRNwciR0JWVohmU8DOy1LAAKCzRHTeCww8HlJKMQERRpRT8Qw+VTsEdAQuIBUBhiS629Tn7n4j2I5B+RijFSUoFxAKgQHYddnGUZAb/8MMlb09EEReBl4QJPBiocFgAFIhTUXEkgKRYANtGcMghYrcnougLDj0UsETb35RTVXWYZIBSwgKgULQW7dryDzoImuv/iWg/tG3DHz1aNoTvcxigQFgAFIphiO61GYwZI3l7IooJ8WeF8LOylLAAKBStZQsA6aqeiGJB+llhCPeWlhIWAAWihL/U0r/URBQP0s8KDbAHoEBYABSAPuus/lBK7rdKKQSjRondnojiIzjoIOn9QsboGTOqJAOUChYABeDa9ljJ++vqauhyHrVNRAemy8uhBw6UjKAczxsjGaBUsAAoAG0YouvvpLv0iChepFcCaKW4ZrkAWAAUgKHUGMn7+yNGSN6eiGImGDlS9P4GC4CCYAFQAFrrMaL3r6mRvD0RxYz4M0P4mVkqWAAUgHR3lh4yRPL2RBQz0gWAYgFQECwACkD6yxxUV0venohiJhAuAKRfmkoFC4DCgmKsvQAAIABJREFUOFjszkpBDx4sdnsiih9dUyO9FJAFQAHw1KWQ6enTq90gEFvTqgcM4BkAOVg8pVY6AlHBadtGUFUFY+dOqQj99DnnDFLNzVulApQC9gCEzFFKdAq+dFceEcWT9NwhJ5EYLhqgBLAACJnhuqID8MIbehBRTEk/OwyAk5dCxgIgZIFhiA7A6yruqElEvSf97AiCgJOXQsYCIGRKuIrVlZWStyeimJJ+dkg/O0sBC4CQKa1lewBYABBRXwj3ACil2AMQMhYAIdPCX2LpbjwiiqdA+OVBC788lQIWAOGT7cZiDwAR9YX8s4NDACFjARAy6R4A6SqeiOJJuvdQ+tlZClgAhEwBsmtpyspEb09E8aRTKdH7K60HiQYoASwAwqa16G+RNk3J2xNRTGlLfKPYpHSAYscCIHwJ0bvL/xITURzJPztYAISMBUD4ZL/E8r/ERBRDSv4MERYAIWMBEDat2QNARLETgeFD2WdnCWABEDbDkK1i5at4Iooj4WeHZg9A6FgAhE24ByACVTwRxZD0JEDFHoDQsQAIH7/ERES9xx6AkLEACJ/ol1j5vuTtiSimlOdJR2ABEDIWAOFTond3XdHbE1FMyT872D6FjB9w+GRfweWreCKKoQj0HopXIMWOBUD4ZL/ELACIqA+0fA8AH14hYwEQPtkvMQsAIuoL+WeHeAVS7FgAhE/0tygC3XhEFEMRmAQoHqDYsQAIn2gVq7q6JG9PRDEl/ezQ7AEIHfeJDZkCPC15//Z2wbsXt9TQIRjyqdMxcPJxKD94NJLV1dCeC2f7DqTfacHW55ajbclTyGxqlY4aS/x8ZUk/OxQLgNCxAAiZBmTL6I4O0dsXo2RNNQ796pUYcsYnoT6y06Iyk0gNHYLU0CEYdPIkHPqVq7Bp4SKsvf0vyGxkQ9UT/HwjQvrZoRS7L0PGIYCwKSVaRktX8cVmyFlTcfLdt2HoWdM+1jjtjTINDKs9Cyfe+T8YctbUAiSMN36+0WFIFwBa8+EVMvYAhC0IdkLJ7QWkOjvF7l1sRl98Pg772hfRl79Pq7ICE264HslBA9Hy9wdCSBd//HwjRv7lQTxAsWMPQMi0YbAHoAgMOWtqnxunDyiFw75+NWrO+GT+ghUJfr7Ro4R7ABSwUzRACWABEDLpLzELgNwla6px5L9+M7fGaTelcNS/XYfkkJrcr1Uk+PlGk3QBoNkDEDoWAGETHsdS27dL3r4oHPrVK2GWl+XtemZ5GcZec3nerhd3/HyjSW3bJh2BBUDIWACETCsl2gNgtHJmdC5Sw4ZgSAhdykPPmopE9aC8Xzdu+PlGlxJ+dmhOAgwdC4CQGUGwVfL+ascOKPk9vWNryJmn92g2em8p08TQs8/I+3Xjhp9vNCnXhSE8fGgYxhbRACWABUDItFLSZTTUFv4e9dXAyceFd+3jJ4Z27bjg5xtNqrUV0JJbmAE6CNh9GTIWACEztBb/EhttbdIRYqv84NGhXbvi0ENCu3Zc8PONJmPzZukIMLTeJJ2h2LEACFlgGOIFgGIB0GeJQQPDu/aA/qFdOy74+UaT9Pg/EI1nZ7FjARAy3/PEv8QsAHIQYi9o4PGkRn6+0aQi0APgWZb4s7PYsQAIWcq2xb/Exrp10hFiyw1xGaWzRXR+aCTw840m4/33pSOgbMcOvrmEjAVAyNTcuWkAovvxmi0tkrePtc6174V27a51G0K7dlzw842mCDwzdqolSzLSIYodC4BCUEq0nFZbtkCl05IRYmvrc8tDu/aWp5eGdu244OcbPaqjIwqbAMl3QZQAFgCFoHV4rzk9uz8M+Yo+ltqWPAXtB3m/rvZ9bH6SDRQ/3+iJwrNCK/WudIZSwAKgECLwZTbek61B4iqzqRWbFi7K+3U3zGtGtk1+opU0fr7RE4VnhZJ+aSoRLAAKIApf5ihM6omrtbf/BV5H/qZxeJ1prL3j7rxdL+74+UZLFJ4VCpDvhigBLAAKQAPyBcC74p0QsZXZ2IrXf/HrvOyMpoMAr/3wZ5yhvgd+vtEShWeFjsBLUylgAVAAKgJDAOa770I5jnSM2Gp95DG8+evbcmqkdBDgzf93KzY/xbHpj+LnGw3KcaKwAgDKNFkAFAALgALwIlAAwPNgrF0rnSLWWv7+AF79wU/gp7t6/bNeZxqvfPeHeP/eh0JIVhz4+coz3nwT8DzpGPBcV/6ZWQJYABRAKpV6D0BWOoe5Zo10hNhrW/wEln7uGmxsXtSj2eva97H+oSYsvfSLXJbWA/x8ZUXkGZFNVVXJd0OUACUdoFQ49fWrABwlmcE7/nhkvvUtyQgFt3hKbWjXTtYMxtCzz8CA445GxaGHIDGgP3SgkW3bjK51G7Dlmeew+YlnORu9j6Lw+Z7xZFNo146i1M9/Duvll6VjrEw0Nh4tHaIUWNIBSoXS+nWtlGgBYK5Z0z3Gqlj35UO2bQve++u9eO+v90pHKUr8fAtMa5hvvimdAgqIRDdEKeAQQIEEEfhSq85OGBu4PSoRfZzx/vuR2DE0UOp16QylggVAgSjgDekMAGCuXCkdgYgiKCrPBvYAFA4LgAJREalqTfnxPSKKoKg8G5TWkXhWlgIWAAViuW4kvtTmypVQrisdg4giRLkuzNWrpWMAACzDYA9AgbAAKBC1cGGrBjaK53BdmK9HohYhoogwV62KxIuBAtapuXO5bKZAWAAUktaR6GMzXnpJOgIRRUhUuv8DpaIRpESwACikiHy5LRYARLSHKDwTtAYybtAmnaOUsAAoIBWVHoANG6A2bZKOQUQRYGzcKP880MCWLh8ZT4sPk5YSFgCFZBiRKAAAwH7uOekIRBQB1rPPSkfAtmyAtBsgYWC+dJZSwgKggOyystcAROJIPosFABEBsJbKnqGwI+OjPevDUtADtrY+LRqmxLAAKCA1Z44D4DXpHABgvPMOdwUkKnHGhg0w3n9f7P7tToAd2e5Dn0xT7VTLl8svRSghLAAKLzKv3uwFICptkt3/nW6AbRn/H1kMQ/4gghLDAqDQlHpeOsJu0l1/RCRL6hnQ5QbYmvYB/Y9/ZiotPxmhxLAAKLzIvHYbLS0w1q+XjkFEAoyWFhjr1hX8vhkvwOa0v2fb353HVPcVPEyJYwFQYHZZ2asAOqVz7GY9/rh0BCISIPG7n/U1NqeDjzX+pgE9uH/lYwUPVOJYABSYmjPHB/CCdI7drCeeADxPOkZozPIy6QgUU2ZFuXSE8Hge7KcLO+HeCTTaOn0E+qPNP5AwVduuZyMVEAsAGdEZBti5E9aKFdIxQpMaUiMdgWIqNXSIdITQWMuWQe3cWbD7ub5Ga4e318YfAEylXi1YGPoACwABWqlITXaxFi+WjhCaQSedIB2BYmrQicdLRwiNvWRJwe7lBUBr2kew97YfAGAo45GCBaIPsAAQkDCMJ4CPDYOJsV59FaqtOLfgHt5wDpTJrzn1jjINDJ9+rnSMUKi2NpirVhXkXl6gsanDhb+f1l8poNL07ipIIPoQPhkFqIce2gTgDekcH9AadpFOBqwYOwYjZtZLx6CYGXnBdFSMOUg6RijsJUu6T94JmRdobOr04R/gVrZhdJUvXNgSeiD6GBYAUpSKVItrL14cifPAw3DY17+IQZOLtzuX8mvg5ONw6Fevko4RCuW6sArQ/e9rYFOHt983/90sQ70eeiDaKxYAcp6QDrAntWMHrKeeko4RCsO2MfHnN2LUhTM4HED7pEwDo2bNxDG/+BEMy5KOEwrriSdghDz5zws0Nra7B3zz3802sDDUQLRPxfktjwFfqSfMAnTD9YY9fz7cqVO7B+WKjGHbOPy6L2PEeXVYP7cZ25atQGbDRvhdGeloJMgsSyE1fBgGnXg8hk8/t2i7/QF0D/U1N4d6i552+++mABiJxJ9CDUX7VHxP+hhx6ureg1KjpXPsKfPtb8M77jjpGLHT/vqbWHbVN3IeW62ecgom/tcNeUoVLa9890ZsfjL3BTCT/3Azqo4cl4dEpcVcvhxlN90U2vU/aPx70O2/W8JQzkGPNydDC0X7xf5QWZFbf2c3NUlHiKV37rgrLxOrxlx+SR7SRNOYL3wuL71L79z5v3lIU3oS8+eHdm030D0e89+TbRprQopEPcACQJJhPCod4aPMVatgrF0rHSNW2l9/E5ufzn1vp+oppxT1m23VuENRfdrJOV9n85PPon01243eMN96C+aacD4zb9cmPz3t9t+TZQThVSV0QCwABNlBsBAR2g9gt+RDD0lHiBW+/fccewFk2A88EMp1nUBjU2ffGn+lADth3Jb/VNRTLAAEqfnzNwIozI4cvWAuXw6TvQA9wrf/3mEvQOEZb78N66WX8n5dx+ve278vjT8AJAzVMaCp6a38pqLeYAEgTevobYGpNez7eDJnT/Dtv/fYC1BYiTlz8r7xT8YL0Jru/Zj/nixDvZjHSNQHLACEGUD0CgAA1osvwnzzTekYkca3/75hL0DhmGvWwHo1v+fsdLkB2tLBfvf274mUqf6en0TUVywAhJkVFUsAONI59sa+917pCJHGt/++Yy9AYST+7//yer20q7E57UPn+L03FfSALvvOvISiPmMBIEzNmdOBiO0KuJu1ciXM1aulY0QS3/5zw16A8JkrV+b10J9OJ8DmtJeXWcu2qTaqpx5qz8OlKAcsAKJA60bpCPuSvPvughwcEjd8+88dewFCpDWSf89fD3t71seWLj9v10sYKtwtCalHWABEQKB1ZNfdGe+8A+uJSHZQiOHbf36wFyA89mOPwXj77bxca0fGx7ZMkJdrAd3bz9qmcXPeLkh9xgIgAlLdS2Ei+wRL3HMPVFeXdIzI4Nt//rAXIP9UJgM7T2P/W7t87Mjmr/EHgKSlOgY+PJ8rACKABUBUaD1POsK+GDt3wp47VzpGJPDtP7/YC5B/9gMPwNi+PadraABtnR46nPw2/gBgG8Yzeb8o9QkLgIhQEZ4HAACJpiaoTZukY4jj23/+sRcgf9SmTUgszO103UADrZ0+urxw5v4kkyZ3/4sIFgARYbW2PgEgt7I9TJ6H1N/+Jp1CFN/+w8FegPxJ3X034Lp9/nlfA5s6PWS9/L/5A0DCUl7/1g0PhnJx6jUWABGhli93AUR2GAAAzGXLYC5bJh1DDN/+w8NegNxZzz0Hc8WKPv+8GwAbOzy4fd3btweShnpl17OOIsCSDkD/oJW6T2n9Oekc+5P805/QNX48dHm5dJSCytfbPwAsu+qbebkOfdzuXoBS62FR6TSSd93V55/PeN0b/AQhL/k1DXVHqDegXmEPQIQkysoWAOiUzrE/xvbtSNxzj3SMgsvX2z+FrxR7ARJ//SvUtm19+tm0q9HW6YXe+FtKBYO9rj+EehPqFRYAEaLmzOlSQJN0jgOxFy+GuXKldIyCyefbP4Wv1OYCmKtXw3788T79bHvWz9vufgeStNQbasmSTAFuRT3EAiBiAq3vl85wQFojeeedUDlMNooTvv3HT8n0Arguknfc0evvp0b3Gv98bvBzIIaJ0p5FHEEsACImYVlzAUS+SjY2boSdx61Go4pv//FUKr0AyXvugbFhQ69+JtDhrfHfF1MpnUya3P0vYlgARIx66KF2pfXD0jl6ItHcDOull6RjhIpv//FV7L0A1quvwu7lmn8/0NjU4SET0hr/fUmaeGdAY2PfJilQaFgARFAAxOPJpTWSf/gDVHtxHurFt/94K+ZeALVzJxK33tqr4jTr6+5lfkHhC1rL4uz/KGIBEEEJ03wQQId0jp5Q27cjdfvt0jFCwbf/+CvKXgCtkbr99l5t95t2ArR2+ghxif8+mQZ0jZe5qfB3pgNhARBBau7cNIDYbL5vLl8Oe8kS6Rh5xbf/4lCMvQD2I4/AfOGFHv/7OzI+Nnf50ELFbMpUK9WSJbF4oSk1LAAiKlAqVq8uibvugrFunXSMvOHbf/Eopl4Ao6UFif/t2f+fAEBbOv+n+fVW0jT+RzQA7RMLgIhKbtiwAMAW6Rw9pbJZlN10E1Q6LR0lZ3z7Ly7F0gug0mmU3Xxzj5bf+oFGa4eHLle28U8Yyh84sLI4xwiLAAuAiNq1X3Z+DvUuELVxI1K9nJgURXz7Lz6x7wXQGqnf/75HJ3JmfY2NnT4ciQH/j0jYxvNqzhxHOgftHQuACFNA3zf3FmK+8AISc2MzfeFj+PZfnOLeC5B44IEeHcTV4QRo7fTgC8z0/xgFlNvmz6Rj0L6xAIgwq7HxSQBvSeforcS998Z2fwC+/RevuPYCWK++isQDD+z339G6e2e/rV1+ZL6+ScPoqlowb//BSRQLgAhTgFbAn6Vz9JrWSN5yC1Rrq3SSXuHbf3GLYy+A2rQJyd/+Fgj2PZbvBxqt6cLu7NcTSRMLFApyzAD1EQuAiPO0/hO6J/TGiuroQPnPfharTYL49l/84tQLoDo6UPbLX0J17HsF3e7NfbIF3tnvQBQAywp+IJ2D9k9JB6ADc+rrFwOYJp2jL/wjjkDX9dcDti0dZb/aX38Ty676Rs4FQPWUUzDxv27IUyra0yvXz8bmp5bmfJ3Jf7gZVUeOy0OiEHkeyn7+c5irVu3zX+lwAmzLRKfLf08pU7WOeqx5qHQO2j/2AMRBdy9ALJmvvx6LlQH5evsfc/kleUhDezPmC58DVO7vLJHvBdAaqT/8YZ+N/+6T/KI03v9RSQt3SmegA2MBEAN2RcW9AOLTl/4R1tKlSNx3n3SMfcrX2H/1lFOi/2YZY1VHHIbqU0/K+TpRnwuQmDMH1lNP7fV/272+P2rj/XuylQqq/X4/ks5BB8YCIAbUnDkdiMsBQfuQeOCByG4XzLf/+Cj2XgB70aJ9LqPt8jQ2dHjIRmB9//4kLfWcWjKHW//GAAuAuND699IRcpW84w5YTz8tHeNDAseFl4fdC6tPO5lv/wWQr14Ar7MTgXPgHfUKyXrqKSTvvPNj/1yjez//trSHKCzv3x8FIGUbnPwXE5wEGCNOff1yACdI58iJYSDz1a/COyn3h3g+7Xh5Jd65425sXbaiTz8fi4llRSKXCZv9J47HQZ/7DKpPOzmEZH1nLl+Osl//GvD9D/1zXwNb0j4yXnS7/PeUMtW2UY81D5LOQT1jSQegXtD6Nih1i3SMnAQBUr/7HTLJJLxjj5VO84H+x0zAsTf9J3a8vBJr77gL25a92OOf5dh/Ye3uBejNioCoNvwAYK1cidRvf/uxxj/jBdiSljnCt6/KbPNO6QzUc+wBiBE9a1alm06vB1AlnSVXOpFA5l/+Bf6RR0pH2aveFAJ8+y+8nvYCRLnhBwDzjTeQ+ulPobLZD/3zHdkAOzL+Pn4qmmxDBQdVGANVU9NO6SzUM6Z0AOq5G1etcv5j3LhDAEySzpIr5fuwli1DMG4cdHW1dJyPSQ0dgmHnnoVBk4+Hs20Hulr2ftRx9ZRTMPqzFxY4HSWrB6Hj9TeQ3sffS/+J43HU976FsVf/M8oPGlXgdD1jrl6N1C9+8aHG3w80tnQFkZ7lvy/ltnqu6uEFv5XOQT3HHoCYydbVTVRKvSydI190IoHstdfCmzhROsp+7Xh5Jd69aw62PP3hbme+/cvZWy9A/4njcciV/4SBk48TTHZg5qpVSP3qVx9q/LvcAFszQTQO8uklpYBB5faZA5sbF0tnoZ5jARBDTn39YwBOl86RN5aFrq98Bf6JJ0onOaAdr6zCu3/5O7Y8vZS7/kXA7t0B+08cjzFXfg6DJh8vHemAzBUrkPr1r6Hc7lUIGsD2Lh/tMXzr363MVq0jF3Pnv7hhARBD2fr6CxTwf9I58sowkLnqKnif/KR0kh7Z/uIrsPv3Q8UhB0tHKWmda9+Fu2MnBhwX7R6k3axnnkHqttsAzwMAeIHG5k4fTgzf+vfUv8z8Qc3DTdz8J2ZYAMSQnjXLdNPpNQDGSmfJK6WQveIKuGecIZ2EKO/sRYu61/nvGrLodAJsywQIorqfbw9ZhnIPNrLlaskSTzoL9Q43AoohNWeOr4D/kc6Rd1ojeccdSN7FU/moiGiNxH33IfnHPwJaI0D32v4tXX7sG38ASFhqLhv/eGIBEFOWbd8OoCi327Sbmz80RkoUW66L1C23IHH//QC61/Zv2Omi043veP+eDAWdKLe+IZ2D+oZDADHm1Nf/FsBXpHOExT/sMGSuuw66Xz/pKES9pjo6kLr5ZpirV3+wne9OJ+ie9VckKhLm8uGLmiZL56C+YQ9AjAVK3QSgOF4l9sJ8802U/fjHUK2t0lGIekVt2oSyG2+EuXo1XF9jU4eHndniavwVACthfkc6B/UdewBiLltf36SAc6VzhElXViL7la9Efq8AIgCwXnoJyVtugeroQHvWx/ZMUEzt/gdSplo/6rHmkdI5qO/YAxBzhtY3S2cIm+roQOrnP0finns4OZCiS2sk5s1D6pe/hL+zHa2dPrYVaeMPACnb+Il0BsoNewBiTgPKra9fCeAo6SyF4B13HLJf/jJ0ebl0FKIPqK4upG67DeayZehwAmzP+JE/ujcXSVOlR53xiSo1e3bRDkGWAvYAxJzqHlX8jXSOQrFefBHlP/gBjJYW6ShEAABjwwaU3XAD8NwytHZ62NpV3I0/ACRs489s/OOPPQBFQE+fXu4GQQuAkjmHW9s2nIsvhvvpT3dvRE4kwHrySSTvvBNdHV0l0fADgKVUcHBl9UDVdDdP/Ys5PjmLRLau7j+VUv8mnaPQvIkT4VxzDYL+/aWjUAlRO3cidfvtwPIXsLXLR1eRrOvviYqk0Tz80QVFPfG4VLAAKBL6/PMHu47zLoAK6SyFpvv3R/aqq+AdF+0T4Kg4WCtXInnLLUi3bsW2Lr941+HuhaGgB1YYYwcuWPCOdBbKHQuAIuI0NNwMrUtzVy6l4JxzDtzPfAbatqXTUBFSrovEPfdALViIrWkPGa+Umv5uZbaxbOTiBdE/tpN6hAVAEUnX1o6yDOMtAAnpLFL00KHIXHEF/AkTpKNQETFffx2J229H+p33sSOri2IP/95SCqhKmicMeaRphXQWyg8WAEXGaWj4PbS+SjqHKKXgnXYaspddBl1ZKZ2GYkyl00jcdx/Q1IwtXR4cr/Qa/t0qLOOV4UsWHCOdg/LHkg5A+RVo/RMDuByl/HerNawnn4TxyitwPv95eCedJJ2IYshasQKJO+9E+/o27HSCkt6DSgEwreI9d6RUsQegCDkNDXdD60ulc0SFP2kSMpdeCj1kiHQUigG1aRNSd98N9/nuGf5eKaztO4CUpd4YtaR5nHQOyq/SfUssYlrrHyvgs+BGTwAAc/lyVLz0EtxPfQrOhRdCl5VJR6IIUtks7MZGmHPnYUd7Bh1O6U3y2xsFoNI2viadg/KPPQBFyq2vf0ADM6VzRI2uqoIzcybcs88GDNZHhO4ho6eeQuJvf0NX2zZszwTwS7m//yPKbOPdkYsXjJHOQfnHHoAipQ3jhwiCGWCR9yGqvR3Ju+6C/fTTyH72s/CPKokjFGgfzJUrkfzb3+C/tRZtGR/ZEp7kty+phPFt6QwUDjYORcypr18I4GzpHFHmjxsH56KLWAiUGPPNN5G4916olSuxM+OjPVu8p/blosxU60fyyN+ixQKgiLnTp0/VQbBEOkcceBMmwL34YviHHCIdhUJkvvUWEg8+CHPFCqTdANsyAXxO8ts7BQxIWZ+vfnj+X6SjUDhYABQ5p77+CQBTpHPEglLwjz8eznnnsRAoMuZbb8F+8EFYK1bAC4BtXT66SnAnv95IWcbmUUsW1EjnoPBwDkCRU1p/Xyv1mHSOWNAa5gsvoOyFF+CPGwf3nHPgTZ7MyYJxpTWsF1+E1dwMa+VKBFpjezZAe4mv6e+ppKW+L52BwsUegBLg1Nc/AuBT0jniSA8dCufss+GdcQZ0omR3WI4X14W1dCkS8+bBWLcO0ECHF2BHlw+fDX+PpEzVOuqx5qHSOShcLABKgDN9+okIgqXg33ef6f794U6bBnfqVOga9opGkWpthf3YY7Afewxqxw4AgONrbOvykWXL33MKGJAw/qn60QV3SUehcLFBKBHcFyBPlIJ/+OHwpkyBN2UKTx6U5nmwXngB9pNPwnzpJSDoHtf3g+7u/k5u5tNrZbZ6b+Ti5oOlc1D4WACUiGx9/dEKeAncHTBvdL9+cE87Dd7ppyMYNUo6TkkxWlpgPf447Keegmpv/+Cfaw20OwF2Zn1wcn/vKQD9Uqqh5pHmRuksFD4WACXEqa+/C8Bl0jmKUTByJLyTToJ3yikIRoyQjlOUVFsb7KVLuw96WrfuY/9797I+Hz5f+vus3DZeH7F4wZHSOagwWACUkK7p0w8xg2A1AM5mC1Fw0EHwTj4Z7sknQw/lPKpcGBs3wlq6FNbSpTBaWvb672R9je3cxS9nSilU2vq0oYsWPi2dhQqDBUCJcerrbwFwjXSOUqGHDIE3YQL8o4+Gf8wx0KmUdKRIU64Lc80aGK++CmvlShhr1+7z3/UCje2ZAGmXr/z5UJYwVoxctOAE6RxUOCwASkznjBkjbN9/A0C5dJZSo20b/lFHwT/mGPgTJiAYORJQJf4rqDWM99+HuXIlzJdfhrl6NZTr7vdHfA3szPjocLmeP18MpfQAUx8zaMnCV6WzUOGU+NOnNDn19b8AwAM+hOlUCv6hhyIYNw7BEUfAP/zwot9rQDkOjHfegbF2Lcw1a2CuWgXV0dGjnw0AdGQ5wS8MFQn1xPBFzadL56DCYgFQgvT06dVuELwFoJ90FtqDZcE/6CAEBx+MYPToD/7oigrpZH2iOjpgtLTAeP99GO+9B+Pdd2G2tACe16vraACdToAdGW7kEwZTQQ9M2ocNeKTxbeksVFgsAEpUtqFhttL6BukcdGB60CD4o0cjGDUKuroauqYGQU0NdE2N+D4EynWhWlthbN4M1doKtXkzjHXrYLa0QG3dmtvFNZD2AmzP+OC2/eFjE7GiAAAVq0lEQVSpSppNQx9tqpPOQYXHAqBE6drafq5pvgGth0hnob4L+vfvLgQGDoSuqoKuqgIqKxFUVgKVldCVldBlZf8oFMrLu+cdWBZ0MgkAUNls91u51kA63f3PXBeqq6u7e76jA8au/1Tt7d1/tm2DamuDsWvHvXzr8rpn9rt85Q+VZcAfXGEOr2pqapPOQoXHAqCEOQ0NX4LWv5POQbRb1guwIxMgw4a/IPoljT8MeXTBF6VzkAzuClfC7LKy3wN4RToHUdbXaO3wsKnTZ+NfIAnT6KrZ3vYV6RwkhwVACVNz5vhKqeukc1DpyvoabZ0eNnV4bPgLrMzCv6vly/e/5pKKGocACNmGhvlK61rpHFQ6XF9jR5ab+EhJmWr9qMeaR0rnIFnsASBA628D4JsAhW73G/+GDo+NvxAFoMwyLxeOQRHAAoCQbGx8DcDvpXNQ8cp6wQdd/V3cs19UmW0sG/zo/Ielc5A8FgAEALCDYDaA7dI5qLhkvQCtnT42dfps+CPAUNDltv0Z6RwUDSwACACgmpralNb/KZ2DikPG09i0e1Y/d/GJjPKkMWfAwrn7PmGJSgoLAPqAVVFxM4A3pHNQPGkAaTfAxg4PrZ0espzVHymWoZyhZfYV0jkoOlgA0AfUnDmOVup70jkoXnbv1b+h3cPmtA+HDX8kVSTMn6i5c9PSOSg6uAyQPsapr38MAE8Go/3yA40OV6Mjy0N6oi5pqS2jlzRXS+egaGEPAH1c97JADtzSXvkBsD3jY0O7xxP6YkApoMyyrpbOQdHDHgDaK6e+/jYA3COcPuD4GjudAF1OALb58VFuqxdGLG6eJJ2Dooc9ALRXtud9FwBPCCt1GuhyA7R2etjY4SHNxj9WTKWCVGXifOkcFE0sAGivVHPzVij1fekcJCPQQIcTYH2Hi7a0jwzX8MdSRdL4n0Fz574nnYOiiQUA7ZM9efLtAJ6RzkGF4wUa2zM+1rd72Nrlg0v44ytpqR01U07+pnQOii7OAaD9cqZPPwFB8BwAUzoLhafLC9DhaHR5AdjHH38KQP+UOq/6keYHpbNQdLEAoANyGhp+A62/Kp2D8isAkHYCtGd98Fye4lKRMJ4fvmjBSdI5KNo4BEAHZPv+9zSwQToH5YcTaGzt8rF+h4utXWz8i41lKN+qTJwnnYOijwUAHZBqatqpgH+TzkF9p3X3Nr2tnR42tnvocAJu9FCkyi38puahh9ZL56Do4xAA9YgGlFtfvwjANOks1HNeAHQ4PjqdgBv2lICEie2jH1s4SHEmB/WAJR2A4kEBOmsYX1NBsAKALZ2H9m33236HE/BAnhKiAJQlzc+z8aeeYg8A9YpTX/8rANdJ56CPc32Nzl0Nf8AmoORUJIxnhi9acKp0DooPzgGgXrFN8wYFrJPOQd12b9izscPDhg4PO7Ns/EuRbSivosKeIZ2D4oUFAPWKeuihdqX1l6RzlDQNZDyNLWkP69q7Z/LzCN4SpoAyGzf0mzt3s3QUihcOAVCfuA0N92qtL5TOUUrcAOjkhD76iHIbb49YvPBQ6RwUP5wESH1iBcHXXKXOBDBQOksx83dN6Ot0Ar7l08dYSgWJykS9dA6KJw4BUJ+o+fM3Qut/lc5RjLTWSLsB2jo9rG93sY1d/LQP5Qnzd9Vz566WzkHxxCEA6rNdewMsBHCWdJa40wAyboC0G6DLAwLNBp/2L2liy6jHFtZw2R/1FYcAqM8UoLsM42ozCF4BUCGdJ3Y0kPUDpF2NtKvhs9GnHlIKSJYlz2PjT7lgDwDlzK2vv14D/yWdIy4yvkbaCdDlcjIf9U1lwrh/2KIFF0jnoHjjHADKmdXZ+UsAy6VzRFnWC7Cty8e6nS5aO7r34mfjT32RMFR6aJC5VDoHxR8LAMqZWrLEg1JXAnCls0SFBtDlaWzp8vH+ThebOn20s9GnHCkFVFjqcrVkSUY6C8UfhwAob7J1dT9VSpXsyoAAQMYJkPY0Mi5P26P8q7DV48MXN0+VzkHFgZMAKW8SFRWz3XT6AgCHSWcpFD/Q6PI0utwAGV+D8/goLLapsomUMV06BxUP9gBQXrkNDdO01o+iiIeXXP8fjT5P26NCUAronzKuqH54wZ3SWah4sACgvHPq6m6CUt+UzpEvAYDsrga/y9PwedoOFVh5wnh6xKIFp0nnoOLCIQDKOzud/q5bUXE2gPHSWfrKC/7R4GfZtU+CbENlk0lVK52Dig97ACgUTm3tKTCMJwGY0ll6ItBAxutu8DN8y6eIUAD62eqymsXNf5XOQsWHBQCFJtvQ8BOl9Xelc+yN1hpZv3t9ftbXyHqaW6pR5JRbasmIJc1nSOeg4sQhAApNwvdnu4ZRD2CidBYAcPzut/uMF7DBp8izDZWx3Y4Z0jmoeLEHgELl1NUdB6WWAkgU8r4a3bP1M7vG8LNcl08xogBUWfjskCUL75HOQsWLBQCFzq2ru0ErNTvMe3yowfcCZH2eqEfxVZkwHx62qOnT0jmouHEIgEJnpdP/n1teXg+lTszXNYNdY/jOrvH7rBewS5+KQsJUnW7X9pnSOaj4sQeACiJbX3+Uwv/f3r3HyHXVBxw/59zHPO7M7Nr7mN0xUgpSW4kmKUmgTlQ78a5tdtaxXSAxAUJVWoVIhSpK1RaB+hCVVdSqRFFT1CARpSICSrvGIG/subO7M7Mh6ovEbVGpi8rDCbW9tkmc2Puex739w3IaEjv2emfm3Mf386e9j+8fu/f89tyX+DchRPJ6Pr/pXVzo662LW/p1z+dFqIgcKYTYkJS7N86UD+tuQfQxAKBrGrt3f8r3/b+42se1vIsL/WuLfcsX3JWHOMgmjAP5Smmf7g7EA6cA0DVmKvVIY2lprxDitSeaeUKIRtN7bcGvt3zR4Go9xFDCkOcGN2Y+pLsD8cEOALpqec+ety8uN4+ttrxkveWLFos9IJQUfi5l3tE/deRfdbcgPiL7whYEU2py8ni95T+13GDxBy5xbPUoiz+6jR0AaHFiW/H4StP7Od0dgG5pS/2oUHNj8wptBAc7ANAiYbV+1VSyobsD0MlUoplIym26OxBPDADQYmB6+lTakr8t2YNCTEkhRMo2HuorlU7obkE8cfiFVnOj45XFemtUdwfQbWlb1QpVl599aMMOALQaOpMZtw1xXncH0E22IReGvZVdujsQbwwA0Er+10Q9bcj3Kslz/RAPSgg/a9u75ezsiu4WxBsDALTrr5a/49jqUd0dQDc4lnp8w/TkM7o7AK4BQGCcGil+f6nh/aLuDqBTuOUPQcIOAAIjl7XvspSq6+4AOsFUopFLqS26O4BLGAAQGJlDh87kbOPD3BqIqJFCiB7beCBz5Mhp3S3AJQwACJQNM4cPZix1QHcH0E6ZhHFgw0zpKd0dwOvxtxYCxxdCntxW/N+VprdJdwuwXglTnX7brFuQgjtdECzsACBwpBC+kxRbTCWbuluA9TCUbOUs804WfwQRAwACaYPrvpA0xSfYokJYSSFExjR+p2f66R/obgEuh+MrAm1udPzIYr01rrsDWCvHku5wrczPLgKLHQAE2lBfZk/SlGd0dwBrYRvi5SF/dY/uDuCtMAAg0OTERCtj23eYBtcDIBxMJVtp39sqZ2f5mUWgMQAg8HqnJo9nk8aDPB8AQSeFEGnb/N3+b8/8t+4W4Go4pCI0zu4ofuPCivcB3R3AlTgJdXi44u7W3QFcC3YAEBoDW27fl7LUSd0dwOUkLXlmaOvte3V3ANeKHQCEyuLY2PBLy+KFhufbuluAS0wlm71J+xd6pyaP624BrhU7AAgVp1yeS5vqXiUlD1ZBIEghRMpSH2PxR9gwACB0BqqlSceWj+vuAIQQIp1QX85XSl/V3QGsFacAEFpzI2P/udjwb9TdgfhKWeqHm2ruz+vuAK4HOwAILcNfvSNhyAXdHYgnW4nlrGrcrrsDuF4MAAitwdnZhaTytxlSerpbEC9SCj+VMMZzlcrLuluA68UAgFAbqE0ddSz5h5zLQjelbbl/YLr0jO4OYD04biISTm0bqy41/RHdHYi+dELNFCruTt0dwHqxA4BIGB7I7Uwa8qzuDkRbypBnh1srvOEPkcAAgEiQExMtx3F+xVSiobsF0WQo0UinUpt5yQ+iggEAkbHhyMEXnaRxDw8JQrtJKYSTtD+ywf3WC7pbgHZhAECkDEyVJh1T7NfdgWhxEuajg1NPH9DdAbQTFwEikk6PFqsLdY+LArFuKUv946aau0V3B9Bu7AAgkvJ92Z1JkzcHYn0Shnyp0J8d1d0BdAIDACJJTky0emzvVttQy7pbEE6GknUnZ98mJybquluATmAAQGRlp6bOZi2xS0nBRYFYEyWF75jqfRsnJ3+iuwXoFAYARNqGGXc2a6vfl1ztgjXIWupPB6ulku4OoJM4LCIWzo4WD12oe3t0dyD4MpY8PFQr79bdAXQaAwBiwRdCzo0Uf7jU8N6huwXBlTLli4XZ8tul4LQRoo9TAIgFKYSfSMpbEoaa192CYLJNuZhJiFtZ/BEXDACIjb5S6YKt/K2Gki3dLQgWQ0rPMuRIT7l8TncL0C0MAIiVfK383bQlPya4KhCXSCEcW/7WcMV9TncK0E0MAIidfMX9SsaUj+nuQDBkLPmFwYr7Zd0dQLfxZxBi6+RI8dnlhscjXmPMsWRluFbeobsD0IEBALHlC6FObiv+eKXp3aC7Bd3HFf+IO04BILakEF424d9qG2JBdwu6yzbkguOYt7D4I84YABBrPeXyOcdsbTaVaOpuQXeYSrYSSmzpPXz4Fd0tgE4MAIi9vkrlWMpW9/HOgOiTUgjHkh/N18rf1d0C6MYAAAgh8jPuwUzC+GPuDoy2jG3sH6i4X9fdAQQBhzvgdU6PjH19oeHfp7sD7Ze11US+6n5QdwcQFAwAwBucHBl7frnh36a7A+2TMuXRTbPld+vuAIKEUwDAGxT6c5uTpjqhuwPtkbTkqcL8DXfo7gCChh0A4DLOj41tPL/iv1hviYzuFly/hCEXcklxA8/4B96MHQDgMrg9MPwsJRppU21m8QcujwEAuIK+SuVY0hLv5/bA8FFS+BlD7emrlI7pbgGCigEAeAtDlamnM7Z6mNsDw0NKIXIJ8cm+mlvW3QIEGQMAcBWDFfcxx5RP6u7A1UkhRM6Wj/TPTD2uuwUIOv6uAa7RqdHxZ5bqrTt1d+DKcrY8OFgt36O7AwgDBgDgGvlCyBMjxe+tNrx36m7BmzmWen645r5HdwcQFpwCAK6RFMJ/W3/2loQhT+luwc9K28ZPhvwV7vUH1oABAFgDOTFRzyXFTZahLuhuwUW2Kc8nVeNmOTvLLZvAGjAAAGvUUy6f68lZ7zKVWNXdEneWIVezSfmujTMz53W3AGHDAABch97JyeO28rcYSrZ0t8SVIUXLMeXWDa77gu4WIIwYAIDrVJidfj5tqXt5UFD3KSF8J6k+3F9xn9PdAoQVAwCwDvlK6VuZhPEQv0jdI6UQTkL+weC0O6G7BQgzjlvAOg3OlL6QThif457a7nAs9Wi+Un5EdwcQdhyzgDY5vWP8yYWV1m/q7oiyjK3+bqjqfkR3BxAFDABAG82NFGcWG9523R1RlLZUuVBzi7o7gKhgAADa7OTI2NHlhn+r7o4o4Sl/QPtxDQDQZoVa+T1JU/5Id0dUpEz5g6G7bt+suwOIGgYAoM2kEJ6af+nmhKle0t0SdilTnS6s5n5Zfvaznu4WIGoYAIAOKBw9umQb9o2WIRd0t4RVwpSvOo7xTvnPE8u6W4AoYgAAOiRfOXSmJ+HfbCvFArZGtqGW0il1U+/hw6/obgGiigEA6KDeqanjjt94t6Uk7w24RqaU9d6EdVtfqXRCdwsQZQwAQIf1PVs5ZltyqykFb6u7ClOJZsaWW3JTk9/X3QJEHQMA0AXDFfe5tC1HeXnQlRlSepmkMcbz/YHuYAAAumSwUn42bXq7lBBc0f4GhpBeylLv658qVXW3AHHBAAB0Ub46PZVJGPdJ3iD4GimF7ySNB4aqpUndLUCcMAAAXTZYKR1wEsYDvEZYCCGlcEz18ODMkb/VnQLEDQMAoMHQTOlJx5KfiPOzuKUUImPJzwzV3Md0twBxxAAAaJKvlr+YtY1Px3EIkEKItCn3D1XdP9fdAsRVHI89QKCc3rnrc4vLzc/E6XxA2pR/VZgtP6y7A4gzBgAgAOa2j39+cbX1e7o7uiFrqb/J19xP6u4A4o4BAAiI06PFLy00vAeifGlg2hZfKVSnfl13BwAGACBQ5kbGDiw2/Ht0d3SCk1AHhivuPt0dAC5iAAACZm60eHix7u3S3dFOGVtNDlXdvbo7APw/BgAggM6Mjh+cr7fer7ujHTK2nB6qlt+ruwPAz2IAAALqzGjxG/N17wO6O9bDsWRluFbeobsDwJsxAAABFuYhwLFVbbjqjuruAHB5DABAwJ0eLR5cqHuhOh2QtoxvF2qlu3R3ALgyBgAgBM5sL07M1717w3CLYMqUz26aLd+puwPAW+NRwEAI5CvuPsdSB4I+srP4A+HBAACExHDV3Zez1D8EdQhwLFVl8QfCI6CHEgBXcna0+PcXGt4Hg3Q6wDFlZXiWq/2BMGEHAAiZwap7X9aSX9PdcUnakjMs/kD4MAAAIZSvlu/vSaiv6t7Cc0xZKtTKOzVnALgODABASA1U3I9mbONruoaAjK0ODc+WI/XIYiBOGACAEMtXS/dnE+YT3R4C0pY6OFR1f63L3xZAGzEAACE3WDnyccdWfy27MQVIIZyE8VSh5kbyjYVAnDAAABEwVHUfyiWN/Z3+hU5b8onhSuk3OvxtAHQBAwAQEQPTpT/J2canO7ERIKUQ2YT6y0K1/PEOfHkAGui+iBhAm/10x/iDC6utL7b8Nv1+SyEylvFHQ9XSn7Xl6wEIBAYAIILObx+//5W691TT99e1y6eE8J2k8an8TOnz7WoDEAwMAEBEnRsd3zPf9L7Z8Hzjej5fSeFnLfngQLX8RLvbAOjHAABE2Ks7i9vP13230fLNtXyektLrseSH+qruRKfaAOjFAABE3Cs7xm+Zb3j/VG/5yWv5eFOJZsr0785Xp6c63QZAHwYAIAZevfvud8wvtv5jtell3+rjTCVWE5baOlxxn+tWGwA9GACAmFjYuzf/6oXV7600/f7L/b9tyIWUY9w2cOTI/3S7DUD3MQAAMeLv2ZM+Nd84ttz0bnj9v9umPNNrpH8pV/nmy7raAHQXAwAQM/62beacTP37UqN1oxBCJA31Y7Xw05sKR48u6W4DAAAd5AuhTo2M/cuJ0eJ3fJ4ICgAAAAAAAAAAAAAAAAAAAAAAAAAAAAAAAAAAAAAAAAAAAAAAAAAAAAAAAAAAAAAAAAAAAAAAAAAAAAAAAAAAAAAAAAAAAAAAgID5P1Gpjk1wcepqAAAAAElFTkSuQmCC;" vertex="1" parent="1">
                    <mxGeometry x="452" y="500" width="63" height="63" as="geometry"/>
                </mxCell>
                <mxCell id="68" value="" style="shape=image;verticalLabelPosition=bottom;labelBackgroundColor=default;verticalAlign=top;aspect=fixed;imageAspect=0;image=data:image/png,iVBORw0KGgoAAAANSUhEUgAAAgAAAAIACAYAAAD0eNT6AAAACXBIWXMAAA7DAAAOwwHHb6hkAAAAGXRFWHRTb2Z0d2FyZQB3d3cuaW5rc2NhcGUub3Jnm+48GgAAIABJREFUeJzs3XecVPW9PvDnc6ZsYeltBRRQUYoKKhqx6zXR3QUTjeRGU9R7DcYoIpqIwEJOpFhiQEQTNflFU03U2GAXMEVsqAgKNgiodKS37VPO5/cHmIsKsmd2znzPOfO8X69b45nzyIuZeeZ7vgUgIiIiIiIiIiIiIiIiIiIiIiIiIiIiIiIiIiIiIiIiIiIiIiIiIiIiIiIiIiIiIiIiIiIiIiIiIiIiIiIiIiIiIiIiIiIiIiIiIiIiIiIiIiIiIiIiIiIiIiIiIiIiIiIiIiIiIiIiIiIiIiIiIiIiIiIiIiIiIiIiIiIiIiIiIiIiIiIiIiIiIiIiIiIiIiIiIiIiIiIiIiIiIiIiIiIiIiIiIiIiIn8R0wHIn2z7gZJkUjvG0slIOqZFQKQQACSNNpblREzn8xPHsdIawR4AiKSkAZpuTEZi6VhMttv29bWm8xERHQgLQJ4ZPXpaUatW0isKq7cDp7coeinkcAW6CqQjVDtC0BFAgemsIdEExXaIbAd0m4huhVrrHeiqiGB1WpxVDQ3p1ffc85M600GJKL+wAITUiBEPxbp2beqPtHO8WDhBVQcKZACA7qaz0QFtBfCeAO+q4D1LnaW1Ten3WQyIyCssACExfvy07hFYZ0L1DIicAeB4ADHTuahFHAAfAfq6wloQUV3w/spu7z/xxLfSpoMRUfCxAASUbT9Qmk4kLhKxLgCcMwHpaToT5cQeAG9A5WVL0vMQ27PItm3HdCgiCh4WgIAYPvzxSN++nwyStF4AC8OgGALAMp2LjNsO4F8K+YeD1JwpU25ZZzoQEQUDC4CPDR/+eGTAsRvOcRz5FgTfBNDJdCbyNQWwGIonLUefsO8c/bHpQETkXywAvqMyYez0My3L+pYClwEoNZ2IAustqD7pWNaTkyePWmk6DBH5CwuAT9x22y/bxyLJ4QIdCeA403kodBYr5OGmZONjd989psZ0GCIyjwXAINu2LSfR7r8g+AGArwOIm85EoVcL4AkL8lt7yqhXTIchInNYAAywbTueTrT7tgjGAOhvOg/lrZUQecCKFv7atq+tNx2GiHKLBSCHxoy5s21BrOgqOHorBN1M5yHaS3YL9HeSkl/Yd41aazoNEeUGC0AO2PYDpZpMjlXgGgDFpvMQHURSBE844kydNOnm902HISJvsQB4aOzY+zvGIsmRULkZQGvTeYiaSRWogiX2pEmjFpsOQ0TeYAHwgG1Pb6dJuUWBUeAXPwWXquLZCHSSPXX0W6bDEFF2sQBkkW3bVjrR7rsi+DmALqbzEGWLArNVrJsmT77xI9NZiCg7WACyZOK4GedBnOmADDSdhcgjSYE+IrHUBNv+yRbTYYioZVgAWsi+bXqvtCW/EMGlprMQ5chOKKZY8V0zbdtOmA5DRJlhAciQbdtWOtn+GoH+AkCJ6TxEBnxoiXW9PfnG500HISL3WAAyYI+bcZwD/Q0EXzGdhcgHnkgpRk6detNm00GIqPlYAFywbTuuyXbjFbgN3LaXaH87FTIuEtv5sG3bjukwRHRoLADNZI+d2dex0n8CcJLpLEQ+tsBKO1fad978oekgRPTlLNMBgmDCuHu/71jpReCXP9GhnO5ErKUTK2eMApQ/MIh8jG/QL2Hb93RykpHfAPJ101mIAmieFbOuse0b15sOQkRfxAJwEPb4+05z4DwJoLvpLEQBtsMSXG1Pvuk500GI6LNYAA5gwvgZIwQ6E5zoR5QNKsBMie36CfcNIPIPFoD9jBx5X0GHNnq/Qq8xnYUohBY5EvnW5MkjV5kOQkQsAP9h2/f1cJLOMwBONp2FKMR2QPX7t08dXWU6CFG+i5gO4AcTJkw7Hg7+CaCf6SxEIVcEkcvPOedCefGlefNNhyHKZ3k/AjBx3L1fheBJAG1MZyHKJyL4y54653+mT7+5wXQWonyU1wVgwrjp/yMiDwKImc5ClKdet2KxS2z7+k2mgxDlm7zdCGhi5XRbRP4f+OVPZNJpTjK5cMKEaQNMByHKN3k4AqAysXLGz6G4xXSSbOvVuwf69T8K3bt3RevWrVBQWGA6ErVAU1MCNXtqsXHjFiz74EOsXrUeqqZTeWanBbnYnjLqFdNBiPJFnhUAlZ+On3GvAjeaTpJN3bp3RXnFOTj8iMNMRyEPrV+3CdWz52PDhtAeuldviQy3J4+qNh2EKB/kTQEYPvzxSL9jNv4awNWms2TTwEF9cfE3LkA0ygUd+SCVSmPWs//EkreXmY7ilZSqXjtp6ujfmg5CFHZ58a1h27bVqX3q9wC+bzpLNvU5pheG/3c5IpG8ncqRdyzLQt9+R2LTpq3Ytm2n6ThesETk4nPOuXDLiy/NW2Q6DFGY5cE3h4om2z0A6HdMJ8mmkpJiDP/vMlhW3gzi0D4igksvuxAlJcWmo3hFoPLAxMrp15sOQhRmoR8BmFjZ/m4Ao0znyLYLvnYGevbiOUX5KhqNIB6PYcW/V5uO4hUBpOzssy/a+tLLc980HYYojEI9AjCxcsZkKH5iOke2RSIWBg7qazoGGTZwUL+wz/0QAe6fWDn9OtNBiMIotAVgYuW9o6E63nQOLxzRszsKucQv78XjMRzRM/SjQAKV+yeMuzdU83eI/CCUBcCuvHcoFD83ncMrHTq0NR2BfCJP/i5YIvjNxHHTy0wHIQqT0BUAe/y0wY7iLwjx/IbCwrjpCOQTRcWFpiPkSgwiT04YO32I6SBEYRGqAlBZObO3A2s2gFams3ipvr7RdATyibraetMRcqlYLHmusvLeY00HIQqD0BSAMWPubGtpuhpAV9NZvBbS9d+UgTz8u9DJUlSNHXtfZ9NBiIIuJAVApSBa+P8A5MXU+PXrNqE2v3750QHU1zdi/bq8PETvqFjEedq2bT4LI2qBUBSACeNnjAfwTdM5ckVVsWjhu6ZjkGGLFr4Dx3FMxzBDcYYm2003HYMoyAJfAOzK6RcIYJvOkWsLXn0Le/bUmo5BhtTU1OGVlxebjmGUAj+aMH7GCNM5iIIq0AWgsnJmb0flrwjxjP+DaWpK4M9/nIVkMmU6CuVYKpXGX/48G01NCdNRjBPoTHv8jNNN5yAKosB+cdq2HYVTMBvAMaazmFJbU4e1azfi2L69EYvFTMehHKivb8Rjf5qFtWs2mo7iFxEFLjrvvy74/fz5z3NiDJELgR0BcFJtK6HI+zXBq1dtwIMPPIalS5ZDVU3HIY+oAu8s/Tce/OWfserj9abj+E13Jxn9PaA8GYvIhUC+YezxM053oC8CiJrO4ift2rdBv35HoVv3LmjbtjVicY4KBFkykcTu3TXYuGELli/7CDt37jEdydcUGDVpyk33mc5BFBSBKwC2/UCJk0y+BaCP6SxE5CtNallDJk268W3TQYiCIHCPADSZnAl++RPRFxWI4/zZth8qNh2EKAgCVQDsyunnK3Cl6RxE5Ft9NVn/M9MhiIIgMI8AbPuhYifZ8C6AI01nISJfc9TRMyfdMfo100GI/CwwIwCabJgCfvkT0aFZYlkPcatgoi8XiAJgj592qgIjTecgoqDQ49PJdreZTkHkZ74vAMOHPx5xYD2EAG9aRES5J8A4Hh1MdHC+LwD9jt14DYBBpnMQUeAUiGKa6RBEfuXrSYC2fV8bJ+n8G0Cp6SxEFFCq5bdPHT3HdAwiv/H1CIAm9afglz8RtYTItBEjHuK2mESf49sCYN827WiFXm86BxEFXt/SLo0/Mh2CyG98WwCciHUngALTOYgoBFR/OmbMnW1NxyDyE18WgAkTph0P4BLTOYgoNNoXRIpuMh2CyE98WQDgWFPh12xEFEyC0bfd9sv2pmMQ+YXvvmQnTLj3FAEqTOcgorDRtvFo0yjTKYj8wncFAI5Mhc+XJxJRQKl1E0cBiPbyVQGwx993mkAvMJ2DiMJK28at5A2mUxD5ga8KgAPnx6YzEFHIid4wcuR9XGFEec83BaCycmZvAN8wnYOIQq9Lu9bOcNMhiEzzTQGwHOcW8MAfIsoBEYw2nYHINF9MtrPtaR2cpLUWQCvTWYgoP1iQM+wpoxaYzkFkii9GANLJyAjwy5+IckhFR5rOQGSSDwqAikD/13QKIsovqviGbU9vZzoHkSnGC8DEcTMuAHC06RxElHcK0wlcZjoEkSnGCwAEPzAdgYjyk4h8z3QGIlOMTgK07Xs6OcnoevDUPyIyQ620Hm3fOfpj00GIcs3oCEA6GbsK/PInInMkHZErTIcgMsFoARAo33hEZJTw6HHKU8YeAVRW3neUpc6Hpu5PRLSPWjHrCNu+cb3pIES5ZGwEQNS53NS9iYj2I07K4RHklHfMFQDgv03dm4hof6oYajoDUa4ZeQRgj53Z17HSy0zcOxdEgLZtWqNt+9ZoVVKMVsVFiBXEELUisCxf7L4cKC/OXwjV5v/z5553qndhQspRRTqVRiKRRF19A+pq67FrVy327N7j6s8+wBqsWFEn27623nQQolyJmripI6lLfHIMQdZYloUuXTqge48u6NCxPWIxI3+0BKC4VZHpCIHWeb//PZlMYcf2ndiwfgu2bNkBx3GM5fJYkZNoOAvAPNNBiHLFzLeUSLmR+3ogFouhV+/u6NmrG+LxmOk4RFkVi0XRtbQzupZ2RiKRwprVG7B61QYkk0nT0bLP0jPAAkB5JOcF4LbbftkeSJyW6/tmm2VZOPLIHjjy6MMRjfLXPoVfPB5Fn2N6oveR3fHRR+ux6qN14RoRUDnTdASiXMr5JMCYlfwqTI08ZEn79m1w1tmDcUzf3vzyp7wTjUZx7LG9cOY5J6Nd+zam42TTabZtx02HIMqVnBcAS7Qs1/fMFhGgV+/u+MqQgWhVwufMlN9KWhVjyOmD0OeYXhAJxZyeIiTbDDIdgihXcl4AFLgw1/fMBhHB8Scci/4DjoZlmT9DicgPRAR9jumJk07uF4oVLo5YZ5jOQJQrOf0mq6yc0QfAYbm8ZzZEIhZOOfV49Di81HQUIl/qWtoZg085HpFIsMuxKE4wnYEoV3L6bhXHCVy7FgEGndgXnTq3Nx2FyNc6dW6PE0/qH+jHAQocZzoDUa7ktABYARxeO+74Y9C1tPOh/0EiQpeuHXHcCceYjtES/W3bDvYwBlEz5fQvukIDVQC6deuCw48I3BMLIqMOP7w0yI/LilOpDr1NhyDKhZwVgL3r/3Fsru7XUq1aFQX9lwyRMQOO64NWJcWmY2QkCmeA6QxEuZCzAhC3Eqfm8n4t1X/A0YhGI6ZjEAVSJGLhuOOONh0jI2mVvqYzEOVCLr+QA7O+tvSwTujcpYPpGESB1rFTexx2WPDmz4g6PUxnIMqF3BUAkeNzdq8WEAH6HNPTdAyiUOhzbAA3CRLpZjoCUS7kcgQgEOtru3TtiNatS0zHIAqFkpJidOnayXQMt7qbDkCUCzkpAHv319ZATADs2ZPvfaJs6tkzcCtp+CFAeSE3IwCJdn0B+P6QjYKCODp24oY/RNnUsVM7FBUVmo7hRin3AqB8kJO/5I4EY/lf6WGdELTHlUR+JyLoWtrRdAw3Yo2NXdqaDkHktZwUAIUEYmONTp0485/IC50CNrIWiTQGcxMDIhdyUgAsqO8LgIigQ0eWfiIvtO/QNlCrAUQiLAAUerl5BAD0ysV9WqKwMI5YLGo6BlEoxWJRFBUVmI7RbFHHaWU6A5HXclIABPD9CEBJCd/vRF4K0tbAaQU/ECj0clAAVAD4fmedouLg/DohCqIgrQSIRCIsABR6nheA2277VTsAvn/nc99/Im9FA/SIzXEcNZ2ByGueF4BoNBmIbcAikeB8OBEFUSwSnKX1qlbCdAYir3lfAFQCsQDYCs4EZaJgsoJTAIA0CwCFnvfvSHECMQJARPQfUY4AUPh5XgCcgIwAEBH9H44AUPjlYARAub0eEQUK5wBQPvC+ADganMW/REQAotHUdtMZiLzmeQEQEd+fAkhEtJ80ULvDdAgir+ViWi4LABEFyVbbth3TIYi85nkBUAW32COiANHNphMQ5UIORgD4CICIgkS2mE5AlAu5WAXAAkBEAcICQPnB+0mACNAh4ESU9wS6znQGolwI0t6cRESeU9G1pjMQ5QILABHRfixYa0xnIMoFFgAiov2kJc0CQHmBBYCIaD9NTUk+AqC8wAJARPR/dtx995ga0yGIcoEFgIjo/3D4n/IGCwAR0T6qLACUP1gAiIj2ESgLAOUNFgAion1UwAmAlDdYAIiI9hEIRwAob7AAEBHtY8FhAaC8wQJARLRPkxNlAaC8wQJARLRXwx13jNxmOgRRrrAAEBHttQYQNR2CKFdYAIiI9uLwP+UVFgAiInAPAMo/LABERABUuQcA5RcWACIiAMo9ACjPsAAQEQGAcg8Ayi8sAEREACJOhAWA8krUdAAiIh9IoWjnRtMh/EzLytrAsiIAgFNO2S227RiORC3EAkBEBN1g23bKdIpc0OHD44n6+qNU0r0tx+qiFg4TB11VtKtCugnQGUAxgDb7LmkPAIm9V+/9/7y5EE0V5QCkFtAkgEZA6gDdAsUWsbBBHWwVkU8cYJPlOOti0ei/Zdas+lz/+9LBsQAQEYVwAqAOH16UrK0dCAv9VeVYiPYFpF+ivq43gKioBRUAir3/EwJxf5eS/f53ADgaAqgCEEChEABqCRJOWpsqytcA+m9RWQ4Ly0V0WVRib8lzz9Vk4V+ZXGIBIKK8JyE4Brju4ou7RZzkyaI4QyFnJurrToYlhQAA+c9/M0kA9AKklwouhAKqggRS6aaK8n9DsFhUXlEr9Wr85CHL+IjBeywARJT3grgEUMvKOics60JAywGci3TqsE+/5I1/1bsTAdAfiv4K/R6cCBJvvrG9aWj5fFGZkxKZWzx79gbTIcOIBYCIKAC7AKptW8lFiwYrnHIoyhLAYEBDupJLOkLxTYV+M6KqTRXlSyGYazmYE62vXyDz5+fFfA2vsQAQUd6zYPm2ADQNu3AANDI88ebCKwH0Mp3HAAEwCIpBjuC2RKviHY0VZU9GLP1DdNbcV+U/MxPJLRYAIsp7KfhrE6D6r3/tcCsdvVQUV8HBINN5fKaDQEY4joxIVJSvbYI+Biv6aMGsWctNBwsaFgAiynvRaNE60xn03HOjieLiryswUlI4G4F7lG/EEYCMgZMe01RR9hpUZsZbtfqbPPFEwnSwIGABIKJ8t8W2rzW2Pl0vuKBtU2H8qoRiNICe/NbPlAyBYEiyvm5zU0XZo2kH9xfPmbPedCo/YwEgonxnZAlgU1lZf1jWLQnoFaIoNJEhjBToCsiYiIXRTUPLnxRYd8dnz15qOpcfsQAQUb7L6fP/pmHD+kLT46C4AtBILu+dZ+JQXKFwLm8aWl4lKna8qmqx6VB+wgJARHlNcrQHQMOwYb3FSd0GJ/0/4GdvLgkUQxVa0TS0vEok8tP4rFlvmQ7lB/xLSER5zfF4D4D6oUO7RzQ9BU76u4DwF785e4uApiuaKsqfVMhthVVVH5sOZVJIN5EgImoer0YAdPjweOPQ8lERdZYBciX27nhH5gmA4QJdlhhaPkPLytoc8oqQYgEgorxmafb3AGgcWjYsUV+3TBT3Amid7denrIir4saEJcsTFRUj1Lbz7vsw7/6FiYg+I65ZWwXQeNFFxyYqyv8uKs8BODJbr0ueOkyhDyXeXLggMXToQNNhcokFgIjyWa1t37yjpS+igCQqKkZIxFqswAXZCEY59xVVZ1FTRdmdOnx43HSYXGABIKJ81uLh/4Zhw3onK8r+pdCHALTKQiYyJwrImER93eJEeflg02G8xgJARHlLW1AA1LatxvLyGy0n/Z5Czs1iLDLvOBUsaKqouD3MowEsAPuocgNOIk+p/w5tE81sBYCWlXVOvrlwrghmACjOcizyhxigExL1dS83XHRRL9NhvMACsE86zeOlibyUSqVNRzgA93sAJIZddErCkjcV+KoXich3TrUi1tKmoWWXmQ6SbSwA+yR9+eFEFB5pH77H1MUeAApI49DyUepYrwLo6WEs8p82UHk8MbR8RpgeCbAA7NPY2GQ6AlGoNTT47z0WkeYdBKQXXNA2UV7+1L51/TGPY5E/iSpuTNTXzq+7+OJupsNkAwvAPnV1DaYjEIVabV2d6QhfkET6kCMA9UOHdk8UxOdD8I0cRCLfkyHRdPLNREXFyaaTtBQLwD71dQ1Ipx3TMYhCyXEUDfW+GwFIxGJ7PvnSf2Do0IERdV4HMChHmSgQpJtCX2wqL/+66SQtwQKwj6pi5849pmMQhdLOHbvgOL4r2Ott2z5oqMaKigtVnZcB9MhhJgqOVhD8ramiYozpIJliAdjPjm07TUcgCqVt23ebjnAgBx3+bxxadoNAq8B9/OnLRQC9MzG0/P4gniUQuMBe2rRpm+kIRKG0xYfvLTlIAWiqqBgjKjPB0/uomVRxfeLNhX/Uc8+Nms7iBgvAfmpr67Frd43pGEShsnt3LWpq/DcBUOWLewDsHc7VO03kocC7PNGq6G9aVlZgOkhzsQB8zro1XzoniIhcWr92o+kIB6TOZ5cANlVU3M4vf2oZuThhWU/puecWmk7SHCwAn7Nh/WbuCUCUJU1NSaxfv9l0jAMSWGuAfSf5lZf/AtAJpjNRGGh5orj4WR0+vMh0kkNhAfgcx3Hw0YdZOx6cKK999OEa3y6vtZy9ewAkKsruUMHNpvNQiAi+lmioe9zvcwJYAA5g7ZpPsGeP/55ZEgVJTU0d1q7x5/A/AEVh+/WJioofARLYZVzkY4qhiVatHvXz6gDfBjNJVfH+eyuhPjy9jCgI9r6HPoTj+PY9tGnsm09+Q6EzTQehMNPvJBctvM90ioNhATiInTt240M+CiDKyEcr12HH9l2mYxzUMbu37AT0UfAzkDymiuubKsrGmc5xIPzL/yU+XLEa27b590OMyI+2b9uJlStXmY5xUKX1e/CN1e8cAyAwy7Uo6GRyoqLiStMpPo8F4EuoAm8teg979tSajkIUCDU1dXhr8Qfw69Oz4nQS31y9FDF1fD05i0JHFPpwsqLiLNNB9scCcAipVBqLFr6LulqeFkj0Zepq67Hw9XeQTKZMRzkgSxWXrlqKdgm+l8mIuAN9vL6szDdnS7AANENjYwILXn0bu3hYENEB7d5Vg9cWLEVTU8J0lIO6YOMK9KzdYToG5bfSiIVnddiwYtNBABaAZksmk1j4xjvY4NNNTYhM2bhhM15/bSkSCf9++R+/YyNO2XrQs3+IckhOSmj6QdMpABYAV1KpNJYuWY53l65AKpU2HYfIqFQqjXffWYElby9HOu3f90OXhlqUrfvAdAyi/6P4XqKiYoTpGCwAGVi37hO8NH8hNm7c4tvJTkRe2rhhK158YSHWrfX32RlRdfD1Ne8ipv7cjZDyl0KnN1VU9DOZgQUgQ42NCSx5axleeXkRNqxnEaDwUwW2bNmOBS+/hSVvf+Dr5/2fOu+TlejSyBM+yZeKAX3c5MFBXArTQjV76rB0yTKsXLEK3bt3RbfuXdCqxBfzO4iyoq62Hhs3bsGGDVtQXxecGfRH1O7EKVv43D9riosh8Tg0lQIaGgAfP/YJkOOSxcVTANxi4uYsAFlSX9+IlSvXYOXKNSgqLkSnju3Qtl0blJQUobhVMeLxGCxLTMckOijHUSQSSdTXNaC2th67d+3B9u27UF/faDqaa0XpJL6x9l3wHddMBQWQnj0hPXrs/a/u3SHdewBt2kAKC4HiA/yoSSSApiZoTQ1082bohvXA+vXQ9euha9dCd3DFRXOoYHRjefnfC6ur5+b63p6/P346fsavFXqN1/cJAssSRCIR0zECx+268liMvdatdDrt5337Xbt4zbs4fqe/5ycYFYlAeveGNWgQZNCJsPr3B+LxrN5CN22CLlkC54MPoEuXQLdvz+rrh8z6eCTaX557LqfPq/hJmUOOo3Acf26SEiZ+3YiGcqNn3Q4ct3OT6Rj+IwJr4EBY5/8XrNOHAIXeHlcvpaWQiy6CddFFgCp02QdI//NfcF55Gajjaauf0yPppCYDGJXLm3IEgIhCI6KKHyxfgI5N/IL5lJSWwrrwIljnnQfp1Ml0HCCRgPPGG3D+/jyct98GZ1D/h2OJdWZs9uzXcnVDjgAQUWicvvljfvnvI4cdhsg3L4P11a8Cfnr0GI/DOussWGedBV29CumnnoYz/wXAyfulmpbjOA/qyScPlsWLk7m4IQsAEYVC+0Q9Tt+y2nQM46RXL0QuvwLW6acD4u9pkNKrN6I33wy97DKkH/8rnBdfzO8RAcEJTaWlowDck4vbcR8AIgqFi9YvR9TJ46VphYWIXPEdxO6dAeuMM3z/5b8/OeIIRH/8E8SmTYf0OcZ0HKME+GlteXlpLu7FAkBEgdezbgeO3LPNdAxjrFO/gtiDDyJyxRVANLgDu9KnD2L33IPIiGsPvPQwL2hJVGRiLu7EAkBEgSZQnLfxQ9MxzGjTBtGf2ohOnAjp1Nl0muyIRBC5+GLEfvkryHHHmU5jhEBHNJWV9ff6PiwARBRofXdtQfe6XaZj5Jwccwxi0++FdcoppqN4Qjp1QmzqHYhc8Z1APc7IkggsTPb6JiwARBRYFhRnb8qzX/8iiAwfjtjP74F07Wo6jbcsC5ErrkD09tsh7dqZTpNjckly2EVnenkHFgAiCqyB2zegU2MeLfuLRBC98UZErrzKX0v7PGadeBKiv5gG6dHDdJScSjvWFC9fnwWAiALJgmJIPi37KyxEdMJEWF/9mukkRkjXrntHPfr2NR0lZwQ4O1lWdoZXr88CQESB1HfXZrRvqjcdIzdKShCbNBnW4MGmk5jVujVik6fAOvlk00lyxhEZ49VrswAQUSCdujVPjvpt1QqxO+6E9OtnOok/FBYiWjkB1sBBppPkhmBoU0WFJ8shWACIKHB61u5A97rdpmN4Lx5HbMJESO/eppP4SyyGaGUl5OhD/DtQAAAgAElEQVSjTSfJBYHorV68MAsAEQXOkC158OvfshC95cd5uxb+kIqKELt9Un5MDFR8u6G8vGe2X5YFgIgCpWNjXV7s+he97rq9W/rSwbVpg6j9M6B1a9NJvBazRH+Q7RdlASCiQBm4YyME4T4wxjrrbFhl5aZjBIKUliJ6y4/zYLMg+V89+eRYNl+RBYCIAsNSxfE7N5qO4Snp1g3RkSNNxwgUa/BgRC79pukYXittKi0ty+YLsgAQUWActWcbSpJNpmN4Jx5H9LaxeXwQTuYi3/8+pP8A0zE8JVl+DMACQESBMWjHBtMRPBW58krIkUeajhFMkQiiP/4xUFhoOol3FGUNw4Ydka2XYwEgokAoTiZwVIgn/0mvXogMHWY6RqBJly6I/Pe3TcfwUsRyUt/N1ouxABBRIPTbtRkRdUzH8IYIojeMzKv9/b0SufRSSK9epmN4R+SybL0UCwARBULf3VtMR/CM9bWv5dUe956KRBC97kfhXRWgOLGxrOyobLwUCwAR+V5hOoXD63aajuGNwkJEv3+l6RShIgMGwBoyxHQM71jWJVl5mWy8CBGRl/rs3hLa4f/IRWVA27amY4RO5NuXh3YUQOBcmo3XYQEgIt87dk9Ih/9jMViXZOXHHH2OHHkkrJPDenqinFZfVtbiPZBZAIjI16JOGr337DAdwxPW174G6djRdIzQinw7tCsCJBpBizcFYgEgIl/rXrcbcSdlOkb2ieTD7nVGSd++oT1MSSHntvQ1WACIyNd6hnTyn3XCCZCuXU3HCL3IBReYjuANxXkKtGiSAwvAIViWoKioAEVFBZCQTighyqbCwr3vl0iW1rT3rA3p8P9555uOkBesM88ECotMx/DCYYlhw45tyQtEs5UkDDp36YAjjzwchx9xGDp1ao+OndojHv/s4UtNTQls37YTW7fuxNo1G7Hq43XYvn2XocRE5rRpU4LeR/ZAz17d0aVLR3Ts1B7FxZ/dhjWdTmP79l3Yvm0n1q/bhFUfr8cnn2yB4zTvNL+IKg6r3+NFfLMKCnjUb64UFsE67TQ4818wnSTrxEmdB2B5ptfnfQEoKSnGSScPwMAT+6FTp/aH/OcLCuLo1r0runXvioGD9m7csXnzNix5exmWvLUM9fUNXkcmMiYWi+KEgX0x6MR+OPyIbodcZRWJRNClS0d06dIR/fofDQCoqanDO0uW463F72Pbti8f3u9WvwsxJ52t+L5hDTkdKArlr1Jfss4/P5QFQCHnAfhVptfnbQFo06YEZ51zCk46eQCi0ZYNVXbt2gkXXnQWzjv/NCxa+C5eeXkR6upYBCg84vEYvjJkEIacfiJatWrZF1fr1q1wxlkn4/QzT8IH73+I+S+8gS2btx/wnz28Lpyja9ZXTjUdIa9YJ5yw9zFAY+g+l1u021HeFQDLsnDa6YNw3vmnfWF4v6Xi8RhOP/MknHhyf/zz7wuw6M33oNq8oU4iv+rb7yiUV5yDtu1aZ/V1RQQDjuuDfv2PwhuvL8UL/3wdTU2Jz/wz3ep3Z/WeviACOf4E0ynySzQKa0B/OIsXm06SbT102LBOMmtWRqdk5dUkwDZtSnD1/34TF150Vta//PdXVFSIoRefjyuvvgQlJTzXm4IpGo2grOIcXP6doVn/8t+fZVkYcvqJ+NHI76JHj9LP/Gdd6ms9u68p0rMnpF070zHyjpwQztLVqMmBmV6bNwXg8CMOw3U3fAdH9OyWs3v2PvJwXPujy1Fa2iln9yTKhtatW2HED7+N04YMytk927VrjauvuQwnDNw7sTnupNEuUZ+z++eKdULGn9fUAmH9cxdYLABfps8xvXDl1Zd+YYZyLrRpU4Krr7kMPXt1z/m9iTLRoWM7XDPiW+hqoLhGoxFcetmF+MppA9G5obZli5x9SgYMMB0hL8lRRwHF4RuRFQcsAAfTq3cPfPuKoYjFzE13KCwswHe+dzG6detiLANRc7RpU4Irr7oE7dq3MZZBRFBWcS5O6Woug5ekZ0/TEfKTZUF6tHj7fD/KeJgu1AWgc5cOuOK7w1o8yz8bCgri+O6VX/f0WSpRS8TjMXzvqm8Y/fL/lAhwfPvw/VpDJAIpLT30P0eeCGUBEByb6Y6AoS0AsVgUl32rDAUFcdNR/qNVq2L897fLs7ZDGlE2Db34fHTp4qODaT7ZaDpB1klpKRDNu8VXviHdQ1gAgIK68vKM9pQObQH42kVn+nLyXfcepTj73FNMxyD6jONPOPY/G1v5hW7LaGWTr4X0CygwpEc452LFLeuITK4LZQHo1q0LBp/i3yUfZ509uFm7DhLlQkFBHBeWnWU6xhfotq2mI2SdlPLwH5Ok9DDTETyhqhlNLAllAbio/GxYln/nD0ciEVzwNe4DTv5w1tmD0bp1K9MxPquxEagN3x4AYZyFHijF4dx+WeFwBADYu94/CEvu+vY7Cl27+u8RBeWXwsICnPIV/42WhXH4HwD3/zetKJwFzBJhAQCAM8862XSEZhEBTjs9d5usEB3IyYMHoLCwwHSML9Dt4SwAwgJgVFj//FUlox3uQlUAiosL0eeYXqZjNNuA4/oY3Z+AaOCJ/UxHOLBdITwDAAjrufTBUVAAhHIVlpPR+vJQFYD+A/oEaoldQUEcfY7pbToG5akuXTv69zFUQ+hObduLSwDNC9B3RPNJRgUgVH8bN2/ehsf/Um06his7d4b0lw75XjqV9u375ahlS3C86RBeaGw0nSC/pdNAInHofy54WADWrf3EdASiwNi+fRe2b99lOsYBddi02XQET2hD+A43CpSwjiwBGW3fGapHAEQUDnEnZTqCN8L7BRQIGt4/f84BIKJwiDlp0xG80cBHAEaFdwQmo/WNLABE5DvRkBYA3e3PRy75QsO6ugRwMrmIBYCIfMcR/+7k2RK6fr3pCPltQ2j//DN6ZsYCQES+44T0o0k3bDAdIa+FuICxABBROKiPz/JokZoaYHdoh6F9L6wFTIGMnpmxABCR76QR0gIAQMM7DO17YR0BEI4AEFFYhHUOAAA4K1aYjpCfamqgm8O5vwSUBYCIQiJthfejSd95x3SEvOQsWQKomo7hlZ2ZXBTedxkRBVZjJGY6gmecd98FUiHd6MjHnHeWmo7gGRHZmsl1odoK+MST+gfqNEAAeO/dFfjg/Q9Nx6A8dPjhh2HIGSeajnFAbd5eBPz136ZjeKOhAfrhh5C+fU0nySu6NLwFQOGwANTU1GHAcX1Mx3DllZcWmY5AeWrbth04tu+RiEb9dzqak6jJ7KFmQDhL3kaEBSBndMsW6MaNpmN4RoCMCkCoHgF89OFa7NlTazpGs23dugMbN24xHYPyVENDE1b8e5XpGAckbduajuAp58UXTUfIK86L801H8JSyAACqiqVvLzMdo9neWvy+6QiU53z7d7BtRoebBYauWwddudJ0jLzhzJ9vOoKnMp0DEKoCAACvLViCZNL/g4cNDY1Y/OZ7pmNQnlu5YrUvR6GkbTvTETznvPAv0xHygq5cAV2zxnQMTzkOMtrgIHQFoK6uHm++4f9lNq+8vBhNTQnTMYjw4gtvmI7wRbEY0CbcowDpF17gaoAccP6VB0XLcTIaTgpdAQCA+S+84eu5ANu378LrC942HYMIALB82ce+nAsg3bubjuCtmho4L79sOkW41dfvLVrhlirYuvXjTC4MZQFoakqgevZ80zEOyHEUzz3zD6RS4TzulIKpuupF341Ihb4AAEg//tcwb05jXHrWLKDWvz8Gs+RjWbw4mcmFoSwAALDsg4/wxuv+W/f54vw3sHpVOA+koODauWM3nn36H6ZjfEY+FABdtw7OgldNxwinxkakn3vWdArvCTLeWzq0BQAAnp/7MlZ97J/DH5Z98BFefGGh6RhEB/T+eyt9tS9FbevwTwQEgPRf/sJRAA+k51TnxcmL4rAAHFAqlcZjf5qFT3wwy3n1qg148vE5UL7Rycf+8fdXfbE0sKamDs8uDM6S3pbQVavgvMpRgKyqq4Pzt7+ZTpEbli7P+NJs5vCjpqYEHv3tU1iz2tyw+8cfrcWf//gcn/uT76kCzz3zDyx49S1jGXbu3INHfvMk1jSmQ30q4P7Sv/k10NhgOkZopP/4B+iuXaZj5Egk42Hl0BcAAGhsbMIffvcMli7JuChl7I3Xl+IPv3vWdxOsiA5GFZg352U8P/dlOI6T03uvXrUBv37wr9i+fRdSVgRbC0tyen9TdNs2pB97zHSMUNDVq5GurjYdI1dqYkVFGW8o4/km4OeeXXYxgJO8vs+hOI6DZR98hD27a9H7yB6e739eX9+Ip558HgtefYvD/hRI69Z+glUfr0fvIw9HUVGBp/dKpx289OJCPPv035FI/N+E5q6NNTisfo+n9/YLXbEC1pDTIO3am44SXKpITZkMbM1oY7zAEcGr0WeefTTT6/OmAHzqk0+2Ysnby9C6TQm6dOmIbI8wOo7ircXv4y9/muXLHdaI3Ni9uwaLF70HBdCjRyksK/uDhqtXrcdjf5yF999b+YW5cK1SCRyzOz8+zKEK/fhjRM7/L8CDP+d8kJ71HJx580zHyCH98+SVH2a801HeFQAASCSS+OD9D7F82UcoKipCp87tIS1sAul0Gu8s/TeeeHwOlrz1QSC2IyZqDsdxsOrj9Xh73+TALl07tngETRVYvWodnn36n3jhX6+jru7Az7/TYmHwtnUtulegbNsGJJOwTvTnMc1+pitXIvXzu4EcP7YySQX3TF7xYcarAEJ1HLBbmzZtwxN/rUZJSTGOP+FY9Ot/FHocXopIpHkfbslkCuvWfoJlH3yId99ZgYaGRo8TE5lTU1OHeXNfxr/++Rr69T8aA47rg169u6OwsHmPB1QVn3yyFSuWr8LSpcuxY/uhJ2ltLyxBYySKwnT+FOr0U09B+vWHddpppqMER10dUnfdCSQz2g8nqDSZSLdoH2/PC4Cq05D1cfYsq62tx2sL3sZrC95GLBZF9x5d0alTe3Ts1B4FBfH/fMA1NjahsaEJ27fv2nuU74bNnNlPeSeZTOGdpcvxztLlsCxBaWlndOnaER07tUdxcREKC+MQESQSSSQSSWzfthPbtu3Exg1bXJdkBbCpuA161ezw5l/Gj1SRmnEvYkfPhHTqbDqN/6kide906KZNppPk2jutn3++Rc+ZvR8BsKzaIG1ykUymsHrVBu7WR9QMjqPYuHGLp/Nd1rTqkF8FAABqapCybcTuvAsoyY+VEJlK//EPcF57zXSM3FO0eKlDLmaabM7BPYgopD5q08l0BCN09WokJ08GElxCfDDOnGqk//pX0zGMsETmtPg1shHkSzlOxhMUiIg2FbdGbczbZYh+pe+9u/fZdpqPGj/Pef01pH71K9MxTNkd3bTp9Za+iOcFIC1OxpsUEBEpBB+XdDQdwxjnjTeQmjkzr2a3H4qz6E2k7rorf/9MFHMzPQFwf54XgClTblkHwH+HjRNRYHzcNj8fA3zK+cff925ww8cBcF54AanJk/Ntxv9nSBaG/4EcbQUskH/m4j5EFE4fl3SEA3+vJvKa88YbSI4bC9TUmI5iTPq555Ca9gsglT/LQg8gGXOcrOx1nJsCIE5+ztIgoqxoiMawoVV+HA/8ZXT5ciTHjoVuzrO51akU0g89iPTDD/HoZOB5mTMnK9tj5ma/yejufwHIo+28iCjb3m9XajqCL+jqVUiOvAHOK6+YjpITum0bkuPGIj1rluko/iD6h2y9VE4KgG3bjkLuy8W9iCiclrfvirRwj3wAQH09UnfegdT9M0M9HO4sXIjkyBugH3xgOopf7IlLNGtNKGfvpkgs+iCAbbm6HxGFS100jlWtO5iO4SvO3LlI/uTH0I8+Mh0lu+rqkH7wQaQm3Z7Xcx6+SJ6UWbPqs/Vqnh8G9Kn586sT55xzYS0gFbm6JxGFjaDv7jx7/n0oO3bAmTcXumM7rAHHAfG46UQt4ixciNTPfgZnydumo/iOI9bNU1asWJ2t18vpeJoV3f0QIAtzeU8iCo8VbTsjYeX1GWYHprp3NOC6H8J54YVATpTTNWuQGjcWqdt/Bt2WJ0dAu7OmcPDgl7L5gjlfV2PfNu1oJ2ItBtAm1/cmouC7eM27OH7nJ6Zj+Jocdhgi37wM1le/CjTzdFNTdPUqpJ96Gs78F/J3Y5/mEB1TMHvO3Vl9yWy+WHNNGDfjWyL6F1P3J6LgOqJ2J7734ZumYwSClJYiMnw4rPPO992jAf3gfaSfeALOokWBHLHIsfp4vOAIefrp7dl8UWNfwBPG33uDADNN3Z+Igut/VryOw+r3mI4RHMXFsE4bAuv882ENHAhTR7Trtm1w5s+H84+/Q9evN5IhiBT4ZWFV9fXZfl2jv8AnjpsxAaK3m8xARMEzaMcGVKx933SMQJIuXWCddTZk0EBY/QcABR4etKQKXbMaztKlcF57Hfr+e/y1754CMqCgqmpZtl/Y+BD8hPEzfijQmQA4s4eImiWqDm54/yW0SnFv/BaJRiF9+8I6YSCkTx9Ij+6QLl0znzewezd03Tro2jVw3n0XzjvvALt3Zzdz3pHqgqoqT1bPGS8AADBh7LSzxLIeA9DddBYiCoZzP1mJMzbznLGsi0Yh3bpBunUD2rWDFBYBRYVAYRGkVStoIgE0NgD19dC6eqChAfrJRuiGDUBtren0oaOWXlg4a87zXry2LwoAAIwde3/HuJW+W6FXw0e5iMifWicacf2yVxBRzhyn0FoSr6o+SQBPnpv4Zn3IK69UN7z48tznzju7fJ5CDwdwtOlMRORfiUgUnZpq0aWRvzoppBQ/jK5cudyrl/ftL217/LTBjlrXQPAtAO1N5yEi/+ncWIsRyxcofPxZRpQRwdvx2dUne/Xrf+8tfG7kyPsKOrZNn+HAOl8VXxHRY6A4wnQuIvKHa1a8tqxrfU0/0zmIsklFLy6cPcfTIxB9XwAOZOTI+wpKSqySAk22NZ3FiVizAO1vOgdRrojiY3GcCwEx+vC9EQU7Cwu37B63cOEJKngLAf08I/oifSteNWewl7/+Ab5hWmTiuOllEKk2nYMo1yzBMHvyTbNN5/hUU3n5cxAMM52DKBtUMaywutrz9xcP124JkZ+YjkBkgqPw1d99iURsePxriShHFhdUV1fl4kYsABmyx08bDOA80zmIDDl7wtjpQ0yH+FR81qy3AMwznYOopVSciV4P/X+KBSBDyl//lOfEkltMZ9ifJRa3Faege6Nw9tycPVZmAchAZeXM3qpyqekcRIZdUlk5o4/pEJ+KzZ79mgD/MJ2DKFOWpWNyeT/uv58By0mNhoirPzsBHpW0TvIqE1FLORG5DcAPXFxiRVRvBnCdR5HcE2s81PkvcIIzBY4+F5s158Vc3pFvEpdse1oHJ2mtBdDKxWWOI9J38uRRK73KRdRS9m3TezkRWQl3PwwarVist21fv8mrXG41lZc/DcE3TOcgciENKz2wYNa8nB5xyUcALqWT1g1w9+UPAE/zy5/8zr5z9GoAf3N5WaEmk/4ZAQCgjnMbgJTpHETNpdD/l+svf4AFwBXbfqRQMhjuVEd/4UUeomxTy7rD9TXADbb9QIkXeTJROHfuvwH5vekcRM3U4Dgw8niYBcAFJ7XragClLi97adIdo1/zIg9Rtk2adONSBf7l8rIO6WTyKi/yZCotMhFAg+kcRIcm9xTPmbPexJ1ZAJrJtm0LKqPdXmcJfu5FHiKvRERc/50V4Gbbtn0zqbh49uwNAvml6RxEX0aBrXHHucfU/VkAmivV9lIAbpc8LUd0F7cKpkCxJ4+aC2CJy8t6O8l23/QiT6ZiwBQAO03nIDooxc9kzpw9pm7PAtBMjmaw6YnI3bZtGz0whSgTqpiewWW+2hxLqqp2Amrs1xXRISwv2Lz5YZMBWACawR5/79kATnN52WYr2uYxL/IQeW3ztqLHIFjr8rKT7crp53sSKEPxZHoGoBtN5yD6PFWMlsWLkyYzsAA0QzqTXzaK6bZ9daMHcYg89/DD1ybh4D6316XVX1tky/PP14lIpekcRJ+hmFVYXT3XdAwWgEOwx87sK0C5y8tqrLg+5EkgohxpTDU9DGCXm2sEuMgeN32QR5EyEht86u+geNN0DqJ9Egr82HQIgAXgkBwrfSvc/jkJHrbt0a4+OIn85u67x9RA4LrIquV+tYyXxLYdS+Qm8Lhg8gPBtMLq6hWmYwAsAF/Kth8oBXC5y8uSVlJcD50S+VHKwXQArh5lqeJye8yMIzyKlJFYVdUCAE+azkH5TYDN8bS63mzLKywAX0KTidEACt1cI4LH7LtGuZ08ReRLU6fetFkgf3Z5WcyJ6Y2eBGqBdDR1C4B60zkojyl+YnLZ3+exABzErbfe1VohI9xeJ45msnyKyLfSoncDcLecVTHCtqe38yZRZoqffX4dFDNM56A8JXg9Vl39R9Mx9scCcBAFscJrAbj9AJtjTx3tdgMVIl+bPPmmfyvgdkOr1k5CrvUkUAvEW9VPBfCJ6RyUdxyBNUp8Ng+FBeAARox4KCaiI11fqO63UCUKgggy2NJaMNq2H3H1CM1r8sT8WoFyWSDllAp+G589e6HpHJ/HAnAAXTs1XA6F20lMi2+fOuoFTwIRGWZPueklCNweatXVSe1xO4nWc7FTvvIogMWmc1B+UGBbQazgNtM5DoQF4ABEkMkyJv76p3BTuD/WWvVW27Z99Tkjtu2I5VwHt/MaiDJgCW6Vp5/ebjrHgfjqjekHE8dNLwPgdiOTVVZs19+8yEPkF1Zs19MAVrq8rC9S7dxupOW5+Ky5b6rgt6ZzULgp5JXY7OpHTec4GBaAzxP3W5kqMM227ZQXcYj8wrZtRyHT3F7nqL8OCfpUQTI9RoFtpnNQaKUskRv8NvFvfywA+7HHTxsM4DyXl+2IxGKPZj8Nkf9EYm0eBbDJ5WVnTxg7fYgHcVpE5s3bYSk4IZC8IZgenz17qekYX4YFYD+awa9/Ae637etrvchD5De2fXWjAr9ye51YGRynnQOxU0/9NYA3TOegkFGsixfV3246xqGwAOxTWTmzt6pc6vKyRonFXH8YEgVZJObcD8Bt6b2ksnJGHy/ytITYtiOQ6wGkTWehEInojfLEfN//MJRc39CunHGR4+g3VNATkGiu739weqwAh7u7RNarYLlHgYh8LAzvF01Z0LWqeGbc0r9/XQDfbVxEgTS3oKq6zHSI5shZARg37t6uUUv/CpVzcnVPIqLmaJVsWnDj+y/2tYAOprNQkEmtk04fXzR37mrTSZojkoub2PYDJeLoiwBOzcX9iIjcSEaihzdFYjuPqtnW2nQWCi6FjimaM3eu6RzNlZM5AJpMjgX0+Fzci4goE4s6H95te2GrNaZzUEAp3iwoLplpOoYbnheA4cMfjyjwA6/vQ0TUEgrBk70GtgXQaDoLBU5KVK+VJ54I1GRSzwvAscdu6gWgs9f3ISJqqW2FJe12FhT9xnQOChq5Iz5nztumU7jleQGIOk4rr+9BRJQtvzv61D8BWGY6BwXGinhd3VTTITLh/RyAuLMePHSDiIJBG4ojH1qKH8LHW7iSbzgW5BqZPz+Qj408LwC2ffMOAK94fR8iohYTLLDtH2+LVVe/BMgjpuOQvynkoVhV1cumc2QqN6sAHGsiOApARP7mwJEJn/4f8VTqJyLYYjIQ+donBbHYONMhWiInBWDSHTe+qMBosAQQkT+pQm+5feqoFz79f8i8eTsUerPJUORfCvmhPPPMLtM5WiJnZwFMmnLTfZbohVC8mat7EhE1wyIoLpw0ZfS9n/8PCmbP+ROg80yEIj+TPxVWVT1nOkVL5fwsAAAYP35ad8vBkZGIFOT63mJJx3Ra/+jmHAIRTYmjV8ISDgcSHYSj0h7QPwISb+41Jt9b6bQ2RQqiq2z7xvVf9s81DBt2hOWk3wPAXQIJCmwtcHSAzJmz1XSWljJSAEz66fjpdynkVjfXiOD3P5t805VeZSIKi4nj7/0tgKvdXCPQe342ZbTro7hzqbG8/HoR3G86B/mA4rKC6uq/mY6RDXl1HPCtt97VWiEj3F4njk73Ig9R2FhO5G64nOujkGtte3o7jyJlRcGpp/5KgZdM5yDT9C9h+fIH8qwAFMQKrwXg9oNmjj119BIv8hCFjX3HyOUKVLu8rHU6abku5rkktu1A8QMADaazkBkKbEsk06NM58imvCkAI0Y8FBPRka4vVPm5B3GIQisCuH7PCHS0bT9S6EWebCmsrl4BUdt0DjJDRK9r/fzzoZoHljcFoGunhsuhOMLlZYv2XxZERIdmT7npJQhec3lZqZPac7kngbIoXlTyC65kykvPFsye86TpENmWNwVABKPdXqP89U+UGcUv3F+jt9q27evPpH2nvf0vgITpLJQruj0ZiV5rOoUXfP1my5aJ46aXARjk8rJVkfjOp7zIQxR2VmzX0wBWurysL1Ltyr3Ik00F1dXvAnqn6RyUK9YNJc89t9l0Ci/kRQGAiOslRgpMs2075UUcorCzbduBuF894yh8vRzwU/HikikA3jWdgzym+GtBVdVfTMfwSugLgD1+2mAA57m8bEdDU5IHgRC1gBVt9wiATS4vO9sef99pXuTJJnniiYQovg8+Cggx3RhPp39kOoWXQl8ANINf/wLcf889P6nzIg9RvrDtqxsV+JXb69Kqt3iRJ9vi1dVLAJliOgd5QlX0BzJv3g7TQbwU6gJQWTmzt6pc6vKyRonFXH9oEdEXRWLO/QBq3VwjopdWVs7o41GkrIrX1U0FsNB0DsouhTxYOHuu2/0sAifUBSCi6ZsBNHvPfwCAyiO2fb3bYUsiOgDbvnmHAI+6vMyyHPerdkyQ+fNTsCJXghsEhcnHBcV1rraLD6rQFgDbntZBXe5JDsBxLHDbX6IsSktkGgB3E2pFr7btB0q9SZRdBbNmLVfIRNM5KCscCxzstr0AABNKSURBVHKVPDHf1ahVUIW2AKST1g0AWrm5RlWemjx5lNulS0T0JSZPHrkKgNv90ws1mbzOizxeKDjllGmqeNF0DmopuTNWVfWy6RS5EsoCYNuPFArg+sMjIuJ+8xIiOiS13G+qpcANP/7xz12VeFPEth2NRK4GUGM6C2VsSby4+GemQ+RSKAuAk9p1NQC3w4cv2VNufN2LPET5btKkUYsBuN1Wu0NRQcztYzxjimbNWiXQMaZzUEaaEHGulCeeyKtlnaErALZtW1BxPYHIEvcHmBCRC6oZHBKEm23bdjeR16BY1ZwHIZhjOge5o5DKgufmvmM6R66FrgAg1fZSAG6XEC1HdFfol3wQmXT71NFzALg9Wrt3OtHe7VJeYwTQNKwfANhpOgs1jwKvFhQX5+Xk79AVAEfF/SYiInfbtu14EIeI9qPqfpWNiAZie+BPFc+evUHgfhSSjKhDJH3VvkOe8k6oCoA9/t6zAbjbRlSx0Yru/JM3iYhof5u3FT0GwVqXlw2eOG6G2+28jYpXVf0O4nrlA+WYQEYVPjfvQ9M5TAlVAUjD/UEiKjLDtu28mvhBZMrDD1+bhIP7XF8YsFEAAIin9ToRbDGdgw5G58Wqqn5rOoVJoSkA9tiZfQVwe5RoTSTmPOxJICI6oMZU08MAdrm8rGzChPsGepHHKzJnzlYVDeU58kGnwLakylUCqOksJoWmADhW+la4/PcR6EO2PdrtBxERtcDdd4+pEajr4i1OOnDP1QtmzXkGwGOmc9BnCeRHJdXVeb/leygKgG3P7AbgOy4vS0rKmulFHiL6chKLTwfQ6PKqK+wxM47wJJCH4rH4jwCsN52D9lH8vqCq6gnTMfwgFAVAk6lRAOIur/qzfdcot5ORiCgL9h245faXcUyjzkgv8nhJnnlml0J+aDoHAVCsi8fjo0zH8IvAF4Bbb72rtUJGuL1OrUhervsk8gvLidwNwNXyW4Vca9vT23kUyTOFVVVVKviN6Rx5Lm1F9HvyzDN87LtP4AtAQazwWgBuPxDmTJp041Iv8hBR89h3jFyugNsNuFqnk5brwu8HBYnUTQBWmM6Rv+Su2Kw5PLBpP4EuACNGPBQTUfdDgur+YBIiyr4I3G/BLaqjbNt2+cjPPHn++TqBXAEgaTpLHlqcbwf9NEegC0Bp58YroHA7KWjR7VNHuT2UhIg8YE+56SUA7g7hEnRzUu3dTvr1hXhV1WJAJ5nOkWfqVHFFvh300xyBLgCA43pZkPLXP5GvWKLuj+FWvdW27UB+fsVP+coUVXAoOkdEcUNhdTUfvRxAIN9AADBx3PQyQNxuDLIqEt/5lCeBiCgz0d1PAVjp8qq+TqJtmRdxvCa27WgkcjWAPaazhJ7gb/Hq6kdNx/CrwBYAiLjfGlT0F7ZtpzxIQ0QZsm3bgaj7VTmW+62//aJo1qxVArnRdI6QWx9PpgM5YTRXAlkA7PHTBgNwezjIjvrG1KMexCGiFrKi7R4B4G5nNpVz7PH3uTv8y0fiVVW/A/QvpnOElONAvi/z5u0wHcTPAlkANLNf/zPvuecndR7EIaIWsu2rGxX4ldvr0qruj//2kXis4DrA9emIdEh6R1FVFSd7H0LgCkBl5czeqnKpy8saU464/nAhotyJxJz7Abgq6SJ6SWXljD4eRfKcPPPMLkvxPbjcEIm+1OL4pi1c8tcMgSsAluPcAiDq6iKVR6ZOvWmzN4mIKBts++YdAjzi8rKI5SBwhwTtL1Zd/ZJAuDNpduxd8rd4MfdaaIZAFQDbntYBole5vCztWOCbiygA0hKZBsDdRF3Rq8eNu7erN4lyI+Y44wEsMZ0j6Ljkz51AFQAnERkJoJWba1Tl6cmTR7ldYkREBkz+/+3dbYxU13kH8P9z78ydWTCyS+U6itVKKI6M6w+VWjtp/cWNVEXCVlRh1XYKbrzYqgN1dgnLBlizkNN4l5cl7MKuWwuqGpo6dmokg9idmYU4KjSVkrqs++YkuMXCqYrDggIL2Ot9mblPP9hSaCPbe2bvuS8z/5/Ep53nnv8HdueZufc8p6ftrIjabtUt5jxd4yRQTKRSmUaoKwG8l3SWzOKWP2uZaQCMOVCE2P+S+yL2Q0aIKDGiaj+sS6Wts3OX1YeDtClUKj9WyMakc2QUt/zVITMNQFidWAXA7ms+0ZOmt91uzCgRJcr0dpwCYPsE9+IFxVyrgzixKpRKzwAoJZ0jY7jlr04S3aVUNm161skxnbOzvr+wOPVDQD9lWfrFmVpw3EUmInIn8Gf+AMBLdlXy09lQ7lbNORn2tWPHmglA1MW1r3ft85//tUI+9+9q+4GnaWlvoVTpTjpFFs2rAejs3LVwQZBrh8gKAEth+3Q+EVF2VAGchuoLkzPVQZdzRabvu+8PITji6voN5FRwfvwePvVfn7obgO7uoSWe1ioAbo8wDxFRFpwOxb+vp6ftrKsFpu5ftk8gvK/94a6pX/vt4tFjZ5IOklV1PQNgzL4FntbK4Js/ETWnpZ7WSuvW9be4WqDg5dYB+Imr62ef/Bnf/OenrgYgnHnvSbz/lT8RUbO6Y1GL9xVXF5fh4UlAHgIw5WqNzFJ8q1AqPZ90jKyrbxeA4I8jzkFElD2CFS4vXyiVXlfFUy7XyKA3A9W2pEM0gnq3AfLTPxERcAegEe6m+mWFcnkPBCMu18iQWVGslErlatJBGkG9DQAPriAiAkLXWwMF0KCmj8H2uOQGpNCuoFz+p6RzNIr6GgDFjyPOQUSUPYrX41hGKpWLCmkF4HwOQXrpsUKp0p90ikZSXwPgyd9GnIOIKHNU8K241iqWSscE2BPXemkigguzKq3S1A1Q9OpqAC5fkf0AXos4CxFRloz5+Yn9cS6YD7ULgn+Jc80U0FDlsRvK5aa/BRK1uhqAoaH2aS/vfwHAWMR5iIiy4FRV9QvGmJk4F5VKZVq92kMArsW5bqIUu4qlEs9HcKDuw4CMaXv7/MWW34NgNUS+D4AHMRBRI7sEke9DsPr8xZZ7tm1b97MkQhSPHjsjio4k1k7AWLBw4ZakQzQqp9tX6rF188C/AvJbNjWq8vDT29ZaHhxCRFljugf+KFQ5ZFl22stP3GmMaajdS9P3L3sRkC8mncMdeUdVf6dYLv9n0kkaVaqOA9761MAy2zd/AGf94PLLTgIRUar86I1bDwP4L8uypeHMjctc5ElSkC+sAfDTpHM4tIZv/m6lqgGAyNfsa3S3McbJ8Z9ElC6HDj1Ug+iAdaEH+78tKSdHjkx4XvgIgFrSWaKnf8NRv+6lpgEwm/vvAvA5y7JLk1PVgw7iEFFKebmbDgAYtypSuddsHvxdN4mSkx8e/UdAe5POEbE3gxDtSYdoBqlpALS+T/9DLs/kJqL0MWbVFFSeta2rqa53kSdpwd2f/XNVnEw6R0Q46jdGqWgAuruHlqjKA5ZlU9XQ/o8AEWWfF9SGAFg1/yK63Gzqv81RpMSIMaGGYSuAiaSzzBdH/cYrFQ2AF4brAeRsagR4btu2r9p9DUhEDcGYjktQOWhZ5qvvrXORJ2kto6NvQXR10jnmaZSjfuOVeANgTP9iiLZaltWkFto/CEREDSP0vN0ArB4AVmBVV9fgzY4iJaowUvk7KA4knaMe74/6xSqO+o1X4g1AOOO3AVhoU6Mqh82OjjOOIhFRBvT0tJ0VUdstwC15v/akk0ApEFSrbQBOJ53DUhiGeISjfuOXaANgzIEiRNfY1vkiu13kIaJsEdVd1kUqbZ2du6w+dGSFHD/+rnj+SgDTSWeZO91VLJe/m3SKZpRoAxBWJ1YBuMWqSPSk6W3/oZtERJQlprfjFIC/tyxbvKCYa3UQJxWC4eHXVPBU0jnm6FSw4IatSYdoVok1AA8++JIPFfsHckLYd/xE1Ljq+xZgvTHG6sHjLCmMlAcgGEk6x0eTd1SxUg4divVAJfqFxBqAO28/txzApy3LTnvBlYqLPESUTd/Ytq4C6L9Zli0JZ29a7iRQCgigMzPVxwGk9766hKs56jdZiTUAoYr1UA5V3dloB3oQURS8enYFbYg8RoosOn78gkJakc4n6w8WRirfTjpEs0ukAdjSNXgvALuxnIq3/eDKC24SEVGWnb9YfAGC/7Ysu8t0D/y+izxpUSyVjgmwJ+kc/5ecCfwcR/2mQCINgHhqPfZXRfYaY3iviIh+yf79X55VlSHbuprWMYI8Y/LnxzcCeDXpHB+YFs97WI4evZZ0EEqgATBdQ0sBtT2a85qfD/c7CUREDWF6dmofLMfhCrBsy5ZB2yPIM0XGxmbVr60EkPibrkI3BcPDryWdg94XewMQerUNtusKdJ8x6zI/55qI3Onr23hNoLYfFETCWkOOB75e8eixMwL9asIxRgulyt6EM9B1Ym0AjBn6JICVlmWzUvWsv9ojouYj+dxeAJa3CmXF5s27f91JoBQJSpXnALyYxNoCjHPUb/rE2gDobHUtgMCy6gWzc63twz1E1ISMaXsbgO3T5Xlf/DYXedImmJ5ZA+CtmJcNQwhH/aZQbA3Ahg07FynkCds69Xwe+kNEc+aFfh8Au+3CitXGDNzkJlF6yCuvXBHxHgYwG9uiip3FUumV2NajOYutASjki18GYPULpkD56afbbQd8EFETM9vbTgNiOzBsUTgjf+okUMoEIyOvQtEb03KvBuPjX49pLbIUSwPwxBP78iJq/RWbL3WM+CSipqeh2P/tEKw1xljeosymYHKyF9AfOF7mXa2FX5Kxsfi+bSArsTQAn7h5agUUv2FZdsr0rDvhIg8RNbant7efBGB7aNittZkbV7jIkzZy4kQ19HIrAVx1tgZkbXF09A1X16f5i+kWQGi9zUa1jg6eiOgDnqj1seEistEYk+gpqXFpGR4+K4q1bq6uh4NS6a/dXJui4vw/+tanBpYBYjto46wfXH7ZSSAiago/euPWwwDOWJYtDWdutB1UlllBuXwQ0O9EfNlzQVBsiucpss59pyt1jNoU3W2MqTpIQ0RN4tChh2oK2O8i8tDw44GvF+QLawDrcxQ+TBhK+KgcPvzziK5HDjltAMzm/rsAfM6y7NLkVPWggzhE1GT8/I3PARi3KlK512wetDusLMPkyJEJT/EnAGrzvxh2t4yMfm/+qSgOThsAre/T/9A3v/m1dx3EIaImY8yqKag8a1sXIuxwkSet8uXyP0DQP8/LvB68M7k1kkAUC2cNQHf30BJVecCy7L3Zmv8XTgIRUVPygtoQANsPFQ+YTf23uciTVsHPxjdD8c91lk9BsUJOnJiKNBQ55awB8MJwPYCcTY0AB7Zvb7/oKBIRNSFjOi5B5aBlma++1/CHBF1PxsZmIfIogEnrWsj6Qrn8Hw5ikUNOGgBj+hdDtNWyrCa1kGN/iShyoeftBmD1YLECrV1dgzc7ipRKhVLpJ6rYYFk2mi+VrG+zUPKcNADhjN8GYKFl2ctmR4ftlh0ioo/V09N2VkRttxYvyPu1J50ESrFCufyXUAzP5bUiuMBT/rIr8gbAmANFiK6xD+LN9wEUIqIPJVrHaHGVts7OXbYfZjJNAA1UHwfwcaf3aRjicZ7yl12RNwBhdWIVgFusikRPmt5227GdRERzZno7TilwwrJscUsh/6iLPGkmlcrFUMJH8JGnBsr2Yrk8ElsoilykDcCDD77kQ8X+wZkQHPtLRM75Yj9iXIBOY4zVA82NoGVk9HuquB/AW//vR5NQdAWlUncCsShCkTYAd95+bjmAT1uWnfaCK7ZHdxIRWTM9a8uA2h4xviScvWm5k0ApVyyXvxvc/ZlPeeLdA8UKVSwL/NwnCuXyDt73z75Iu9pQZb11kUifMSaMMgcR0YfzBgA9aFcjnQAOuUiTdvL+3+cffPCPGkhk3wB0dw/cAcBufKbibS93+dtRZSAi+jhe/vKLUPyPXZV+xnQN/qabRETJiKwB8ODVMzt7jzFmJqoMREQfxxgzoyJ7betCXz/rIg9RUqJ8BuAGy9dfna5N7Y9wfSKiOfHzsh+QKzY1qrrIVR6iJETXAGjtLavXC/5q585NVr+ARERRMKb9qiDcZ1MjCM+6ykOUhMgagKnZ2RMWHfWMl/P2RLU2EZGtKnQQwPQcX37Vy+dOusxDFLfIGoC+vo3XFNgxpxcLBoxpt3wIh4goOr29HecgMqcJpArZbkz7VdeZiOIU6RwAP3+5TwTPf/SrZPj8hZYtUa5LRFSP8xeKX1fF0Y96jQie9/OX++LKRBQXif6SKlu79z4GxSYA15+nfU6BPj8/8Qz3/RNRWhhjvLD6K20IdQMEn7zuR29CsP0bPWufA4RDb6jhOGgAfsFs6r+tJnKLj9zPzfavvMFfIiJKLxXT9cztNVR/1Vcd5+mkREREREREREREREREREREREREREREREREREREREREREREREREREREREREREREREREREREREREREREREREREREREREREREREREREREREREREREREREREREREREREREREREREREREREREREREREREREREREREREREREREREREREREREREREREREREREREREREREREREREREREREREREREREREREREREREQUr/8FkMfl8JkiVJcAAAAASUVORK5CYII=;" vertex="1" parent="1">
                    <mxGeometry x="270" y="370" width="55" height="55" as="geometry"/>
                </mxCell>
                <mxCell id="71" value="" style="shape=image;verticalLabelPosition=bottom;labelBackgroundColor=default;verticalAlign=top;aspect=fixed;imageAspect=0;image=data:image/png,iVBORw0KGgoAAAANSUhEUgAAAEAAAABAEAQAAABQ8GUWAAAAIGNIUk0AAHomAACAhAAA+gAAAIDoAAB1MAAA6mAAADqYAAAXcJy6UTwAAAACYktHRAAAqo0jMgAAAAlwSFlzAAAAYAAAAGAA8GtCzwAAAAd0SU1FB+cFCwA5DahBeOwAAAFwSURBVHja7dk9isJQFAXg+7IKNyI2rkmsNJAQ/wpJZSX+NK5ELcTCzj0ICpaKZXKmGIbMMCYER73De+erFe45AX15V4SIiIiIiIiIXGMe/SLSWk1MvS6y3xuzXGoHeSvA94E0xZc0DLVnemP4IMAv1yvgedqzvT58Goa463KxvgAgipArirTne3H4djs3ezqfW/30gW63OLx5+J/k3ysMj9nM8vC9nsPh+/388NOpw+EnE8vDDwb54Ucjp8Nrz/cq5jN8HIu0Wvc/cjiIjMfagz4VkkRktzPeZmOAZlPE3idcrNEwwOkkUqloj6LjeLT3CFuSJxLH2kPoAATDYYkfwfNZZLHQHve5bjeR1cqY7fZbHw6fAbISHD4FlivB8veArISiN0FnSnD4LqBUCbbfBmUlOHwfyBJ+lFB0Ld7paM/3nhJyFyOObIZEHF+NZSX4PpAkWQFBoD3To/6wHq9Ws/X4eq0dhIiIiIiIiIiorA/gO/54cUEGIgAAACV0RVh0ZGF0ZTpjcmVhdGUAMjAyMy0wNS0xMVQwMDo1NzoxMyswMDowMExpseIAAAAldEVYdGRhdGU6bW9kaWZ5ADIwMjMtMDUtMTFUMDA6NTc6MTMrMDA6MDA9NAleAAAAKHRFWHRkYXRlOnRpbWVzdGFtcAAyMDIzLTA1LTExVDAwOjU3OjEzKzAwOjAwaiEogQAAAABJRU5ErkJggg==;" vertex="1" parent="1">
                    <mxGeometry x="233" y="160" width="40" height="40" as="geometry"/>
                </mxCell>
            </root>
        </mxGraphModel>
    </diagram>
</mxfile>